<?xml version="1.0" standalone="no"?>
<!DOCTYPE svg PUBLIC "-//W3C//DTD SVG 1.1//EN" "http://www.w3.org/Graphics/SVG/1.1/DTD/svg11.dtd" >
<svg xmlns="http://www.w3.org/2000/svg">
<metadata>Generated by IcoMoon</metadata>
<defs>
<font id="icomoon" horiz-adv-x="1024">
<font-face units-per-em="1024" ascent="960" descent="-64" />
<missing-glyph horiz-adv-x="1024" />
<glyph unicode="&#x20;" horiz-adv-x="512" d="" />
<glyph unicode="&#xe600;" glyph-name="ico_black_1" d="M753.067 362.667c10.667 27.733 14.933 55.467 14.933 85.333 0 12.8 0 25.6-2.133 38.4l-44.8-6.4c-4.267 23.467-10.667 46.933-21.333 68.267l40.533 21.333c-12.8 25.6-32 49.067-53.333 68.267l-32-34.133c-17.067 17.067-38.4 29.867-59.733 38.4l17.067 42.667c-27.733 10.667-55.467 17.067-85.333 19.2l-2.133-46.933c-4.267 0-8.533 0-12.8 0-21.333 0-40.533-2.133-57.6-8.533l-12.8 44.8c-27.733-8.533-53.333-21.333-78.933-38.4l27.733-38.4c-19.2-14.933-36.267-32-49.067-51.2l-38.4 25.6c-17.067-23.467-29.867-51.2-36.267-78.933l44.8-12.8c-4.267-17.067-8.533-36.267-8.533-55.467 0-4.267 0-10.667 0-14.933h-46.933c2.133-29.867 8.533-57.6 21.333-85.333l42.667 19.2c10.667-21.333 23.467-42.667 40.533-59.733l-34.133-32c19.2-21.333 42.667-38.4 70.4-53.333l21.333 40.533c21.333-10.667 44.8-17.067 68.267-21.333l-6.4-44.8c8.533 0 21.333 0 32 0 17.067 0 36.267 2.133 53.333 6.4l-10.667 44.8c23.467 4.267 46.933 14.933 66.133 25.6l23.467-38.4c25.6 14.933 46.933 34.133 66.133 57.6l-36.267 29.867c14.933 19.2 27.733 38.4 34.133 61.867l44.8-17.067zM512 345.6c-57.6 0-102.4 46.933-102.4 102.4 0 57.6 46.933 102.4 102.4 102.4s102.4-46.933 102.4-102.4c0-57.6-44.8-102.4-102.4-102.4z" />
<glyph unicode="&#xe601;" glyph-name="ico_black_2" d="M320 546.133h-85.333v64h85.333v-64zM362.667 610.133v-64h384v64h-384zM640 354.133h-405.333v-64h405.333v64zM682.667 354.133v-64h64v64h-64zM469.333 482.133h-234.667v-64h234.667v64zM512 482.133v-64h234.667v64h-234.667z" />
<glyph unicode="&#xe602;" glyph-name="ico_black_3" d="M512 701.867c-138.667 0-253.867-113.067-253.867-253.867 0-138.667 113.067-253.867 253.867-253.867 138.667 0 253.867 113.067 253.867 253.867 0 138.667-115.2 253.867-253.867 253.867zM398.933 362.667h91.733v-123.733c0 0-19.2 6.4-29.867 8.533-29.867 19.2-46.933 51.2-61.867 115.2zM300.8 448c0 25.6 4.267 42.667 12.8 64h59.733c-4.267-21.333-6.4-38.4-6.4-64s2.133-42.667 6.4-64h-59.733c-8.533 21.333-12.8 38.4-12.8 64zM388.267 448c0 25.6 2.133 42.667 6.4 64h96v-128h-96c-4.267 21.333-6.4 38.4-6.4 64zM460.8 650.667c10.667 2.133 29.867 8.533 29.867 8.533v-125.867h-91.733c14.933 64 32 96 61.867 117.333zM512 657.067c21.333 0 29.867-6.4 40.533-8.533 29.867-21.333 59.733-53.333 72.533-117.333h-113.067v125.867zM701.867 533.333h-55.467c-8.533 42.667-25.6 72.533-44.8 98.133 42.667-21.333 78.933-55.467 100.267-98.133zM629.333 512c4.267-21.333 6.4-38.4 6.4-64s-2.133-42.667-6.4-64h-117.333v128h117.333zM625.067 362.667c-12.8-64-42.667-96-72.533-117.333-10.667-2.133-19.2-8.533-40.533-8.533v125.867h113.067zM601.6 264.533c19.2 25.6 34.133 55.467 44.8 98.133h55.467c-21.333-42.667-57.6-76.8-100.267-98.133zM650.667 384c4.267 21.333 6.4 38.4 6.4 64s-2.133 42.667-6.4 64h59.733c8.533-21.333 12.8-38.4 12.8-64s-4.267-42.667-12.8-64h-59.733zM422.4 631.467c-19.2-25.6-34.133-55.467-44.8-98.133h-55.467c21.333 42.667 57.6 76.8 100.267 98.133zM322.133 362.667h55.467c8.533-42.667 25.6-72.533 44.8-98.133-42.667 21.333-78.933 55.467-100.267 98.133z" />
<glyph unicode="&#xe603;" glyph-name="ico_black_4" d="M480 264.533c-123.733 0-224 98.133-224 219.733s100.267 221.867 224 221.867c123.733 0 224-98.133 224-221.867-2.133-121.6-102.4-219.733-224-219.733v0zM480 661.333c-98.133 0-179.2-78.933-179.2-177.067s81.067-177.067 179.2-177.067c98.133 0 179.2 78.933 179.2 177.067-2.133 98.133-81.067 177.067-179.2 177.067v0zM354.133 484.267h-23.467c0 81.067 66.133 147.2 147.2 147.2v-21.333c-68.267-2.133-123.733-57.6-123.733-125.867v0zM744.533 189.867c-6.4 0-10.667 2.133-14.933 6.4l-123.733 123.733c-8.533 8.533-8.533 23.467 0 32s23.467 8.533 32 0l123.733-123.733c8.533-8.533 8.533-23.467 0-32-4.267-4.267-10.667-6.4-17.067-6.4v0z" />
<glyph unicode="&#xe604;" glyph-name="ico_black_5" d="M599.467 157.867c-6.4 0-12.8 4.267-12.8 12.8v142.933c0 6.4 6.4 12.8 12.8 12.8h145.067c6.4 0 12.8-4.267 12.8-12.8 0-6.4-6.4-12.8-12.8-12.8h-132.267v-130.133c-2.133-8.533-6.4-12.8-12.8-12.8v0zM599.467 145.067h-251.733c-12.8 0-23.467 10.667-23.467 23.467v488.533c0 12.8 10.667 23.467 23.467 23.467h394.667c12.8 0 23.467-10.667 23.467-23.467v-345.6c0-6.4-2.133-12.8-6.4-17.067l-145.067-142.933c-4.267-4.267-8.533-6.4-14.933-6.4v0zM373.333 192h215.467l130.133 128v313.6h-345.6v-441.6zM571.733 554.667h-142.933c-6.4 0-12.8 4.267-12.8 12.8s6.4 12.8 12.8 12.8h142.933c6.4 0 12.8-4.267 12.8-12.8s-6.4-12.8-12.8-12.8v0zM665.6 497.067h-234.667c-6.4 0-12.8 4.267-12.8 12.8 0 6.4 6.4 12.8 12.8 12.8h236.8c6.4 0 12.8-4.267 12.8-12.8-2.133-6.4-8.533-12.8-14.933-12.8v0zM665.6 439.467h-234.667c-6.4 0-12.8 4.267-12.8 12.8s6.4 12.8 12.8 12.8h236.8c6.4 0 12.8-4.267 12.8-12.8s-8.533-12.8-14.933-12.8v0zM529.067 381.867h-98.133c-6.4 0-12.8 4.267-12.8 12.8 0 6.4 6.4 12.8 12.8 12.8h98.133c6.4 0 12.8-4.267 12.8-12.8 0-6.4-6.4-12.8-12.8-12.8v0zM279.467 202.667c-12.8 0-23.467 10.667-23.467 23.467v477.867c0 25.6 21.333 46.933 49.067 46.933h371.2c12.8 0 23.467-10.667 23.467-23.467s-10.667-23.467-23.467-23.467h-371.2v-477.867c0-12.8-10.667-23.467-25.6-23.467v0z" />
<glyph unicode="&#xe605;" glyph-name="ico_black_6" d="M768 448c0-140.8-115.2-256-256-256s-256 115.2-256 256c0 140.8 115.2 256 256 256s256-115.2 256-256v0zM300.8 448c0-115.2 93.867-211.2 211.2-211.2 115.2 0 211.2 93.867 211.2 211.2s-93.867 211.2-211.2 211.2c-115.2 0-211.2-96-211.2-211.2v0zM622.933 435.2c0-6.4-2.133-10.667-6.4-17.067-8.533-8.533-23.467-8.533-32 0l-72.533 72.533-72.533-72.533c-8.533-8.533-23.467-8.533-32 0s-8.533 23.467 0 32l87.467 87.467c8.533 8.533 23.467 8.533 32 0l87.467-87.467c6.4-4.267 8.533-10.667 8.533-14.933v0zM535.467 499.2v-157.867c0-12.8-10.667-23.467-23.467-23.467s-23.467 10.667-23.467 23.467v157.867c0 12.8 10.667 23.467 23.467 23.467 12.8-2.133 23.467-10.667 23.467-23.467v0z" />
<glyph unicode="&#xe606;" glyph-name="ico_black_7" d="M512 704c140.8 0 256-115.2 256-256s-115.2-256-256-256c-140.8 0-256 115.2-256 256s115.2 256 256 256v0zM512 236.8c115.2 0 211.2 93.867 211.2 211.2 0 115.2-93.867 211.2-211.2 211.2s-211.2-93.867-211.2-211.2c0-115.2 96-211.2 211.2-211.2v0zM524.8 558.933c6.4 0 10.667-2.133 17.067-6.4 8.533-8.533 8.533-23.467 0-32l-72.533-72.533 72.533-72.533c8.533-8.533 8.533-23.467 0-32s-23.467-8.533-32 0l-87.467 87.467c-8.533 8.533-8.533 23.467 0 32l87.467 87.467c4.267 6.4 10.667 8.533 14.933 8.533v0zM460.8 471.467h157.867c12.8 0 23.467-10.667 23.467-23.467s-10.667-23.467-23.467-23.467h-157.867c-12.8 0-23.467 10.667-23.467 23.467 2.133 12.8 10.667 23.467 23.467 23.467v0z" />
<glyph unicode="&#xe607;" glyph-name="ico_black_8" d="M475.733 462.933h-198.4c-12.8 0-21.333 10.667-21.333 21.333v198.4c0 12.8 10.667 21.333 21.333 21.333h198.4c12.8 0 21.333-10.667 21.333-21.333v-198.4c0-12.8-8.533-21.333-21.333-21.333v0zM300.8 505.6h153.6v153.6h-153.6v-153.6zM746.667 460.8h-200.533c-12.8 0-21.333 10.667-21.333 21.333v200.533c0 12.8 10.667 21.333 21.333 21.333h200.533c12.8 0 21.333-10.667 21.333-21.333v-200.533c0-12.8-10.667-21.333-21.333-21.333v0zM567.467 503.467h155.733v155.733h-155.733v-155.733zM475.733 192h-198.4c-12.8 0-21.333 10.667-21.333 21.333v198.4c0 12.8 10.667 21.333 21.333 21.333h198.4c12.8 0 21.333-10.667 21.333-21.333v-198.4c0-10.667-8.533-21.333-21.333-21.333v0zM300.8 236.8h153.6v153.6h-153.6v-153.6zM746.667 192h-198.4c-12.8 0-21.333 10.667-21.333 21.333v198.4c0 12.8 10.667 21.333 21.333 21.333h198.4c12.8 0 21.333-10.667 21.333-21.333v-198.4c0-10.667-10.667-21.333-21.333-21.333v0zM569.6 236.8h153.6v153.6h-153.6v-153.6z" />
<glyph unicode="&#xe608;" glyph-name="ico_black_9" d="M512 192c-140.8 0-256 115.2-256 256s115.2 256 256 256c140.8 0 256-115.2 256-256s-115.2-256-256-256v0zM512 659.2c-115.2 0-211.2-93.867-211.2-211.2 0-115.2 93.867-211.2 211.2-211.2s211.2 93.867 211.2 211.2c0 115.2-96 211.2-211.2 211.2v0zM499.2 337.067c-6.4 0-10.667 2.133-17.067 6.4-8.533 8.533-8.533 23.467 0 32l72.533 72.533-72.533 72.533c-8.533 8.533-8.533 23.467 0 32s23.467 8.533 32 0l87.467-87.467c8.533-8.533 8.533-23.467 0-32l-87.467-87.467c-4.267-6.4-10.667-8.533-14.933-8.533v0zM563.2 424.533h-157.867c-12.8 0-23.467 10.667-23.467 23.467s10.667 23.467 23.467 23.467h157.867c12.8 0 23.467-10.667 23.467-23.467-2.133-12.8-10.667-23.467-23.467-23.467v0z" />
<glyph unicode="&#xe609;" glyph-name="ico_black_10" d="M256 448c0 140.8 115.2 256 256 256s256-115.2 256-256c0-140.8-115.2-256-256-256s-256 115.2-256 256v0zM723.2 448c0 115.2-93.867 211.2-211.2 211.2-115.2 0-211.2-93.867-211.2-211.2s93.867-211.2 211.2-211.2c115.2 0 211.2 96 211.2 211.2v0zM401.067 460.8c0 6.4 2.133 10.667 6.4 17.067 8.533 8.533 23.467 8.533 32 0l72.533-72.533 72.533 72.533c8.533 8.533 23.467 8.533 32 0s8.533-23.467 0-32l-87.467-87.467c-8.533-8.533-23.467-8.533-32 0l-87.467 87.467c-6.4 4.267-8.533 10.667-8.533 14.933v0zM488.533 396.8v157.867c0 12.8 10.667 23.467 23.467 23.467s23.467-10.667 23.467-23.467v-157.867c0-12.8-10.667-23.467-23.467-23.467-12.8 2.133-23.467 10.667-23.467 23.467v0z" />
<glyph unicode="&#xe60a;" glyph-name="ico_black_11" d="M514.133 471.467c-78.933 0-142.933 70.4-142.933 153.6 0 85.333 64 153.6 142.933 153.6s142.933-70.4 142.933-153.6c0-85.333-64-153.6-142.933-153.6v0zM514.133 723.2c-44.8 0-83.2-42.667-83.2-98.133s36.267-98.133 83.2-98.133 83.2 42.667 83.2 98.133-36.267 98.133-83.2 98.133v0zM729.6 115.2h-435.2c-14.933 0-27.733 10.667-29.867 27.733l-8.533 134.4c-4.267 49.067 36.267 106.667 87.467 125.867 108.8 38.4 228.267 38.4 337.067 0 51.2-19.2 91.733-76.8 87.467-125.867l-8.533-136.533c-2.133-12.8-14.933-25.6-29.867-25.6v0zM322.133 172.8h377.6l8.533 108.8c2.133 21.333-19.2 57.6-49.067 68.267-93.867 32-200.533 32-296.533 0-27.733-10.667-49.067-44.8-49.067-68.267l8.533-108.8z" />
<glyph unicode="&#xe60b;" glyph-name="ico_black_12" d="M512 471.467c-78.933 0-142.933 70.4-142.933 155.733s64 155.733 142.933 155.733c78.933 0 142.933-70.4 142.933-155.733s-64-155.733-142.933-155.733v0zM512 725.333c-44.8 0-83.2-44.8-83.2-98.133s36.267-98.133 83.2-98.133c44.8 0 83.2 44.8 83.2 98.133s-38.4 98.133-83.2 98.133v0zM505.6 113.067h-209.067c-14.933 0-27.733 12.8-29.867 27.733l-10.667 136.533c-4.267 51.2 36.267 108.8 87.467 125.867 38.4 12.8 81.067 23.467 121.6 25.6 14.933 2.133 29.867-8.533 32-25.6l36.267-258.133c2.133-8.533-2.133-17.067-6.4-23.467-4.267-4.267-12.8-8.533-21.333-8.533v0zM322.133 170.667h149.333l-27.733 198.4c-27.733-4.267-53.333-10.667-78.933-19.2-27.733-10.667-49.067-46.933-49.067-68.267l6.4-110.933zM729.6 113.067h-211.2c-8.533 0-17.067 4.267-21.333 10.667-6.4 6.4-8.533 14.933-6.4 23.467l36.267 258.133c2.133 14.933 17.067 25.6 32 25.6 42.667-4.267 83.2-12.8 121.6-25.6 51.2-19.2 91.733-76.8 87.467-125.867l-8.533-136.533c-2.133-19.2-14.933-29.867-29.867-29.867v0zM552.533 170.667h149.333l8.533 108.8c2.133 23.467-19.2 57.6-49.067 68.267-25.6 8.533-51.2 14.933-78.933 19.2l-29.867-196.267zM595.2 132.267c-2.133 0-4.267 0-4.267 0-8.533 2.133-10.667 10.667-8.533 19.2l34.133 89.6-27.733 42.667c-2.133 4.267-2.133 8.533-2.133 12.8 2.133 4.267 4.267 8.533 8.533 8.533l34.133 10.667-17.067 66.133c-2.133 8.533 2.133 14.933 10.667 17.067s14.933-2.133 17.067-10.667l19.2-78.933c2.133-6.4-2.133-14.933-10.667-17.067l-27.733-8.533 21.333-32c2.133-4.267 2.133-8.533 2.133-12.8l-36.267-96c-2.133-6.4-6.4-10.667-12.8-10.667v0zM428.8 132.267c-6.4 0-10.667 4.267-12.8 8.533l-36.267 96c-2.133 4.267-2.133 8.533 2.133 12.8l21.333 32-27.733 8.533c-6.4 2.133-12.8 10.667-10.667 17.067l19.2 78.933c2.133 8.533 10.667 12.8 17.067 10.667 8.533-2.133 12.8-10.667 10.667-17.067l-17.067-66.133 34.133-10.667c4.267-2.133 8.533-4.267 8.533-8.533 2.133-4.267 0-8.533-2.133-12.8l-27.733-42.667 34.133-89.6c2.133-8.533 0-14.933-8.533-19.2 0 2.133-2.133 2.133-4.267 2.133v0z" />
<glyph unicode="&#xe60c;" glyph-name="ico_black_13" d="M512 341.333c-12.8 0-21.333 10.667-21.333 21.333v170.667c0 12.8 10.667 21.333 21.333 21.333 12.8 0 21.333-10.667 21.333-21.333v-170.667c0-12.8-8.533-21.333-21.333-21.333v0zM597.333 426.667h-170.667c-12.8 0-21.333 10.667-21.333 21.333 0 12.8 10.667 21.333 21.333 21.333h170.667c12.8 0 21.333-10.667 21.333-21.333 0-12.8-8.533-21.333-21.333-21.333v0zM512 192c-68.267 0-132.267 25.6-181.333 74.667-100.267 100.267-100.267 262.4 0 362.667 49.067 49.067 113.067 74.667 181.333 74.667s132.267-25.6 181.333-74.667c100.267-100.267 100.267-262.4 0-362.667-49.067-49.067-113.067-74.667-181.333-74.667v0zM512 661.333c-57.6 0-110.933-21.333-149.333-61.867-83.2-83.2-83.2-217.6 0-300.8 40.533-40.533 93.867-61.867 149.333-61.867 57.6 0 110.933 21.333 151.467 61.867 83.2 83.2 83.2 217.6 0 300.8-40.533 38.4-93.867 61.867-151.467 61.867v0z" />
<glyph unicode="&#xe60d;" glyph-name="ico_black_14" d="M597.333 426.667h-170.667c-12.8 0-21.333 10.667-21.333 21.333 0 12.8 10.667 21.333 21.333 21.333h170.667c12.8 0 21.333-10.667 21.333-21.333 0-12.8-8.533-21.333-21.333-21.333v0zM512 192c-68.267 0-132.267 25.6-181.333 74.667-100.267 100.267-100.267 262.4 0 362.667 49.067 49.067 113.067 74.667 181.333 74.667s132.267-25.6 181.333-74.667c100.267-100.267 100.267-262.4 0-362.667-49.067-49.067-113.067-74.667-181.333-74.667v0zM512 661.333c-57.6 0-110.933-21.333-149.333-61.867-83.2-83.2-83.2-217.6 0-300.8 40.533-40.533 93.867-61.867 149.333-61.867 57.6 0 110.933 21.333 151.467 61.867 83.2 83.2 83.2 217.6 0 300.8-40.533 38.4-93.867 61.867-151.467 61.867v0z" />
<glyph unicode="&#xe60e;" glyph-name="ico_black_15" d="M430.933 501.333c0 10.667 4.267 21.333 10.667 32s17.067 19.2 27.733 25.6c12.8 6.4 27.733 10.667 44.8 10.667 14.933 0 29.867-2.133 40.533-8.533 12.8-6.4 21.333-12.8 27.733-23.467s10.667-21.333 10.667-32c0-8.533-2.133-17.067-6.4-23.467s-8.533-12.8-12.8-17.067c-4.267-4.267-14.933-12.8-27.733-25.6-4.267-4.267-6.4-6.4-8.533-8.533s-4.267-4.267-4.267-6.4c0-2.133-2.133-4.267-2.133-6.4s-2.133-6.4-2.133-10.667c-2.133-10.667-8.533-17.067-19.2-17.067-6.4 0-10.667 2.133-14.933 6.4s-6.4 8.533-6.4 17.067c0 8.533 2.133 17.067 4.267 23.467s6.4 12.8 10.667 17.067c4.267 4.267 10.667 10.667 19.2 17.067 6.4 6.4 12.8 10.667 14.933 12.8s6.4 6.4 8.533 10.667c2.133 4.267 2.133 8.533 2.133 12.8 0 8.533-4.267 17.067-10.667 21.333-6.4 6.4-14.933 8.533-25.6 8.533-12.8 0-21.333-2.133-25.6-8.533-6.4-6.4-10.667-14.933-14.933-25.6-4.267-12.8-10.667-19.2-21.333-19.2-6.4 0-10.667 2.133-14.933 6.4-2.133 2.133-4.267 6.4-4.267 10.667zM509.867 324.267c-6.4 0-12.8 2.133-17.067 6.4s-6.4 10.667-6.4 17.067c0 6.4 2.133 12.8 6.4 17.067s10.667 6.4 17.067 6.4c6.4 0 12.8-2.133 17.067-6.4s6.4-10.667 6.4-17.067c0-8.533-2.133-12.8-6.4-17.067-6.4-4.267-10.667-6.4-17.067-6.4zM512 189.867c-68.267 0-132.267 27.733-181.333 74.667-49.067 49.067-74.667 115.2-74.667 183.467s27.733 134.4 74.667 181.333c49.067 49.067 113.067 74.667 181.333 74.667s132.267-27.733 181.333-74.667c100.267-100.267 100.267-264.533 0-364.8-49.067-46.933-113.067-74.667-181.333-74.667v0zM512 661.333c-57.6 0-110.933-21.333-149.333-61.867-40.533-40.533-64-93.867-64-151.467s21.333-110.933 61.867-151.467c40.533-40.533 93.867-61.867 149.333-61.867s110.933 21.333 149.333 61.867c83.2 83.2 83.2 219.733 0 302.933-36.267 40.533-89.6 61.867-147.2 61.867v0z" />
<glyph unicode="&#xe60f;" glyph-name="ico_black_16" d="M512 298.667c-10.667 0-23.467 4.267-32 12.8l-211.2 211.2c-17.067 17.067-17.067 44.8 0 61.867s44.8 17.067 61.867 0l181.333-181.333 181.333 181.333c17.067 17.067 44.8 17.067 61.867 0s17.067-44.8 0-61.867l-211.2-211.2c-8.533-8.533-21.333-12.8-32-12.8v0z" />
<glyph unicode="&#xe610;" glyph-name="ico_black_17" d="M661.333 448c0-10.667-4.267-23.467-12.8-32l-211.2-211.2c-17.067-17.067-44.8-17.067-61.867 0s-17.067 44.8 0 61.867l181.333 181.333-181.333 181.333c-17.067 17.067-17.067 44.8 0 61.867s44.8 17.067 61.867 0l211.2-211.2c8.533-8.533 12.8-21.333 12.8-32v0z" />
<glyph unicode="&#xe611;" glyph-name="ico_black_18" d="M512 597.333c10.667 0 23.467-4.267 32-12.8l211.2-211.2c17.067-17.067 17.067-44.8 0-61.867s-44.8-17.067-61.867 0l-181.333 181.333-181.333-181.333c-17.067-17.067-44.8-17.067-61.867 0s-17.067 44.8 0 61.867l211.2 211.2c8.533 8.533 21.333 12.8 32 12.8v0z" />
<glyph unicode="&#xe612;" glyph-name="ico_black_19" d="M362.667 448c0 10.667 4.267 23.467 12.8 32l211.2 211.2c17.067 17.067 44.8 17.067 61.867 0s17.067-44.8 0-61.867l-181.333-181.333 181.333-181.333c17.067-17.067 17.067-44.8 0-61.867s-44.8-17.067-61.867 0l-211.2 211.2c-8.533 8.533-12.8 21.333-12.8 32v0z" />
<glyph unicode="&#xe613;" glyph-name="ico_black_20" d="M704 554.667l-117.333-106.667 117.333-106.667c17.067-17.067 17.067-42.667 0-59.733l-85.333-76.8c-17.067-17.067-46.933-17.067-64 0l-234.667 213.333c-17.067 17.067-17.067 42.667 0 59.733v0c0 0 0 0 0 0l232.533 213.333c17.067 17.067 46.933 17.067 64 0l85.333-76.8c19.2-17.067 19.2-42.667 2.133-59.733z" />
<glyph unicode="&#xe614;" glyph-name="ico_black_21" d="M345.6 256l-76.8 85.333c-17.067 17.067-17.067 46.933 0 64l213.333 232.533c0 0 0 0 0 0v0c17.067 17.067 42.667 17.067 59.733 0l213.333-232.533c17.067-17.067 17.067-46.933 0-64l-76.8-85.333c-17.067-17.067-42.667-17.067-59.733 0l-106.667 117.333-106.667-117.333c-17.067-17.067-42.667-17.067-59.733 0z" />
<glyph unicode="&#xe615;" glyph-name="ico_black_22" d="M320 281.6l85.333-76.8c17.067-17.067 46.933-17.067 64 0l232.533 213.333c17.067 17.067 17.067 42.667 0 59.733l-232.533 213.333c-17.067 17.067-46.933 17.067-64 0l-85.333-76.8c-17.067-17.067-17.067-42.667 0-59.733l117.333-106.667-117.333-106.667c-17.067-17.067-17.067-42.667 0-59.733z" />
<glyph unicode="&#xe616;" glyph-name="ico_black_23" d="M678.4 640l76.8-85.333c17.067-17.067 17.067-46.933 0-64l-213.333-232.533c0 0 0 0 0 0v0c-17.067-17.067-42.667-17.067-59.733 0l-213.333 232.533c-17.067 17.067-17.067 46.933 0 64l76.8 85.333c17.067 17.067 42.667 17.067 59.733 0l106.667-117.333 106.667 117.333c17.067 17.067 42.667 17.067 59.733 0z" />
<glyph unicode="&#xe617;" glyph-name="ico_black_24" d="M285.867 192c-8.533 0-14.933 2.133-21.333 8.533-10.667 10.667-10.667 29.867 0 40.533l454.4 452.267c10.667 10.667 29.867 10.667 40.533 0s10.667-29.867 0-40.533l-454.4-452.267c-4.267-6.4-12.8-8.533-19.2-8.533v0zM738.133 192c-8.533 0-14.933 2.133-21.333 8.533l-452.267 454.4c-10.667 10.667-10.667 29.867 0 40.533s29.867 10.667 40.533 0l454.4-452.267c10.667-10.667 10.667-29.867 0-40.533-6.4-8.533-12.8-10.667-21.333-10.667v0z" />
<glyph unicode="&#xe618;" glyph-name="ico_black_25" d="M486.4 360.533c-6.4 0-10.667 2.133-14.933 6.4l-57.6 59.733c-8.533 8.533-8.533 23.467 0 32s23.467 8.533 29.867 0l38.4-42.667 108.8 134.4c8.533 8.533 21.333 10.667 29.867 2.133s10.667-21.333 2.133-32l-123.733-153.6c0-4.267-6.4-6.4-12.8-6.4 0 0 0 0 0 0v0zM512 189.867c-68.267 0-132.267 27.733-181.333 76.8-100.267 100.267-100.267 264.533 0 366.933 49.067 49.067 113.067 76.8 181.333 76.8s132.267-27.733 181.333-76.8c100.267-100.267 100.267-264.533 0-366.933-49.067-51.2-113.067-76.8-181.333-76.8v0zM512 663.467c-57.6 0-110.933-21.333-149.333-64-83.2-83.2-83.2-219.733 0-305.067 40.533-40.533 93.867-64 149.333-64 57.6 0 110.933 21.333 151.467 64 83.2 83.2 83.2 219.733 0 305.067-40.533 40.533-93.867 64-151.467 64v0z" />
<glyph unicode="&#xe619;" glyph-name="ico_black_26" d="M467.2 648.533c68.267 0 134.4-25.6 181.333-74.667 81.067-81.067 98.133-200.533 46.933-296.533-19.2 17.067-44.8 27.733-70.4 34.133-6.4 29.867-21.333 57.6-42.667 78.933s-49.067 36.267-78.933 42.667c-6.4 29.867-21.333 57.6-42.667 78.933s-49.067 36.267-78.933 42.667c-4.267 25.6-17.067 49.067-34.133 68.267 38.4 17.067 78.933 25.6 119.467 25.6zM467.2 691.2c-68.267 0-134.4-23.467-189.867-68.267 12.8-6.4 23.467-12.8 34.133-23.467 23.467-23.467 34.133-57.6 32-87.467 2.133 0 6.4 0 8.533 0 27.733 0 57.6-10.667 78.933-32 23.467-23.467 34.133-57.6 32-87.467 2.133 0 6.4 0 8.533 0 29.867 0 57.6-10.667 78.933-32 23.467-23.467 34.133-57.6 32-87.467 2.133 0 6.4 0 8.533 0 29.867 0 57.6-10.667 78.933-32 10.667-10.667 19.2-21.333 23.467-34.133 96 117.333 89.6 290.133-19.2 398.933-53.333 55.467-130.133 85.333-206.933 85.333v0zM324.267 251.733c-19.2 0-36.267 6.4-49.067 19.2-27.733 27.733-27.733 70.4 0 98.133 8.533 8.533 21.333 8.533 29.867 0s8.533-21.333 0-29.867c-10.667-10.667-10.667-27.733 0-38.4 4.267-4.267 10.667-8.533 19.2-8.533v0c6.4 0 12.8 2.133 19.2 8.533l117.333 115.2c8.533 8.533 21.333 8.533 29.867 0s8.533-21.333 0-29.867l-117.333-115.2c-12.8-10.667-29.867-19.2-49.067-19.2v0 0zM672 576c-6.4 0-10.667 2.133-14.933 6.4-8.533 8.533-8.533 21.333 0 29.867l23.467 23.467c8.533 8.533 21.333 8.533 29.867 0s8.533-21.333 0-29.867l-23.467-23.467c-4.267-4.267-10.667-6.4-14.933-6.4v0z" />
<glyph unicode="&#xe61a;" glyph-name="ico_black_27" d="M281.6 234.667c-4.267 0-6.4 0-10.667 2.133-10.667 6.4-14.933 19.2-10.667 29.867l6.4 12.8c19.2 36.267 25.6 46.933 34.133 170.667 8.533 121.6 93.867 206.933 204.8 206.933 0 0 0 0 0 0h12.8c12.8 0 21.333-10.667 21.333-21.333 0-12.8-10.667-21.333-21.333-21.333h-12.8c-89.6 0-153.6-68.267-162.133-168.533-10.667-125.867-17.067-142.933-38.4-187.733l-6.4-10.667c-2.133-8.533-8.533-12.8-17.067-12.8v0zM742.4 234.667c-8.533 0-14.933 4.267-19.2 12.8l-6.4 10.667c-23.467 42.667-29.867 59.733-38.4 187.733-8.533 100.267-72.533 168.533-162.133 168.533 0 0 0 0 0 0h-12.8c-12.8 0-21.333 10.667-21.333 21.333 0 12.8 10.667 21.333 21.333 21.333h12.8c0 0 0 0 0 0 110.933 0 196.267-85.333 204.8-206.933 8.533-123.733 14.933-134.4 34.133-170.667l6.4-12.8c6.4-10.667 2.133-23.467-10.667-29.867-2.133-2.133-4.267-2.133-8.533-2.133v0zM746.667 232.533c-2.133 0-2.133 0-4.267 0-151.467 32-307.2 32-458.667 0-12.8-2.133-23.467 4.267-25.6 17.067s4.267 23.467 17.067 25.6c157.867 32 317.867 32 477.867 0 12.8-2.133 19.2-14.933 17.067-25.6-4.267-10.667-12.8-17.067-23.467-17.067v0zM512 616.533c-12.8 0-21.333 10.667-21.333 21.333v44.8c0 12.8 10.667 21.333 21.333 21.333 12.8 0 21.333-10.667 21.333-21.333v-44.8c0-12.8-8.533-21.333-21.333-21.333v0zM512 192c-36.267 0-66.133 29.867-66.133 66.133 0 12.8 10.667 21.333 21.333 21.333 12.8 0 21.333-10.667 21.333-21.333 0-12.8 10.667-21.333 21.333-21.333 12.8 0 21.333 10.667 21.333 21.333 0 12.8 10.667 21.333 21.333 21.333 12.8 0 21.333-10.667 21.333-21.333 4.267-36.267-25.6-66.133-61.867-66.133v0z" />
<glyph unicode="&#xe61b;" glyph-name="ico_black_28" d="M744.533 226.133h-465.067c-12.8 0-23.467 10.667-23.467 21.333v362.667c0 12.8 10.667 21.333 23.467 21.333h467.2c12.8 0 23.467-10.667 23.467-21.333v-362.667c-2.133-12.8-12.8-21.333-25.6-21.333v0zM300.8 268.8h420.267v320h-420.267v-320zM659.2 552.533c-12.8 0-23.467 10.667-23.467 21.333v74.667c0 12.8 10.667 21.333 23.467 21.333s23.467-10.667 23.467-21.333v-74.667c-2.133-12.8-12.8-21.333-23.467-21.333v0zM369.067 552.533c-12.8 0-23.467 10.667-23.467 21.333v74.667c0 12.8 10.667 21.333 23.467 21.333s23.467-10.667 23.467-21.333v-74.667c-2.133-12.8-10.667-21.333-23.467-21.333v0zM744.533 480h-462.933c-6.4 0-10.667 4.267-10.667 10.667s4.267 10.667 10.667 10.667h462.933c6.4 0 10.667-4.267 10.667-10.667s-4.267-10.667-10.667-10.667v0zM384 435.2h-42.667v-42.667h42.667v42.667zM460.8 435.2h-44.8v-42.667h44.8v42.667zM537.6 435.2h-44.8v-42.667h44.8v42.667zM614.4 435.2h-44.8v-42.667h44.8v42.667zM691.2 435.2h-44.8v-42.667h44.8v42.667zM384 364.8h-42.667v-42.667h42.667v42.667zM460.8 364.8h-44.8v-42.667h44.8v42.667zM537.6 364.8h-44.8v-42.667h44.8v42.667zM614.4 364.8h-44.8v-42.667h44.8v42.667zM691.2 364.8h-44.8v-42.667h44.8v42.667z" />
<glyph unicode="&#xe61c;" glyph-name="ico_black_29" d="M597.333 238.933h-170.667c-12.8 0-21.333 8.533-21.333 21.333 0 10.667 10.667 21.333 21.333 21.333h170.667c12.8 0 21.333-8.533 21.333-21.333s-10.667-21.333-21.333-21.333v0zM576 192h-128c-12.8 0-21.333 8.533-21.333 21.333 0 10.667 10.667 21.333 21.333 21.333h128c12.8 0 21.333-8.533 21.333-21.333s-8.533-21.333-21.333-21.333v0zM693.333 526.933c0 98.133-81.067 177.067-181.333 177.067s-181.333-78.933-181.333-177.067c0 0 0-81.067 68.267-164.267 8.533-12.8 10.667-40.533 10.667-55.467 0-6.4 2.133-19.2 6.4-23.467s10.667-12.8 14.933-12.8h162.133c6.4 0 10.667 8.533 14.933 12.8s6.4 12.8 6.4 19.2c0 12.8 0 44.8 10.667 55.467 66.133 87.467 68.267 168.533 68.267 168.533zM531.2 322.133h-38.4l-19.2 151.467c4.267 0 8.533 4.267 10.667 8.533 2.133-4.267 6.4-6.4 12.8-6.4s10.667 4.267 12.8 8.533c2.133-4.267 6.4-6.4 12.8-6.4s10.667 4.267 12.8 8.533c2.133-4.267 6.4-10.667 12.8-10.667l-17.067-153.6zM590.933 384c-12.8-17.067-17.067-36.267-19.2-61.867h-19.2l25.6 204.8-21.333 4.267-2.133-23.467c-2.133-2.133-2.133-2.133-4.267-4.267-2.133 4.267-6.4 8.533-12.8 8.533s-10.667-4.267-12.8-8.533c-2.133 4.267-6.4 8.533-12.8 8.533s-10.667-4.267-12.8-6.4c-4.267 2.133-8.533 6.4-14.933 6.4s-10.667-4.267-12.8-6.4c0 0 0 0 0 0l-4.267 27.733-21.333-4.267 25.6-204.8h-19.2c-2.133 25.6-6.4 44.8-19.2 64-57.6 70.4-59.733 140.8-59.733 140.8 0 74.667 61.867 134.4 138.667 134.4s138.667-61.867 138.667-136.533c0-2.133-4.267-70.4-59.733-142.933z" />
<glyph unicode="&#xe61d;" glyph-name="ico_black_30" d="M657.067 202.667c-4.267 0-8.533 2.133-12.8 4.267l-132.267 98.133-134.4-98.133c-6.4-4.267-17.067-4.267-23.467 0s-10.667 14.933-6.4 23.467l51.2 157.867-134.4 98.133c-6.4 4.267-10.667 14.933-6.4 23.467 2.133 8.533 10.667 14.933 19.2 14.933h166.4l51.2 157.867c2.133 8.533 10.667 14.933 19.2 14.933s17.067-6.4 19.2-14.933l51.2-157.867h162.133c8.533 0 17.067-6.4 19.2-14.933s0-17.067-6.4-23.467l-134.4-98.133 51.2-157.867c2.133-8.533 0-17.067-6.4-23.467-4.267-2.133-8.533-4.267-12.8-4.267v0zM512 349.867c4.267 0 8.533-2.133 12.8-4.267l93.867-68.267-36.267 110.933c-2.133 8.533 0 17.067 6.4 23.467l96 68.267h-117.333c-8.533 0-17.067 6.4-19.2 14.933l-36.267 110.933-36.267-110.933c-2.133-8.533-10.667-14.933-19.2-14.933h-117.333l96-68.267c6.4-4.267 10.667-14.933 6.4-23.467l-36.267-110.933 96 68.267c2.133 2.133 6.4 4.267 10.667 4.267v0z" />
<glyph unicode="&#xe61e;" glyph-name="ico_black_31" d="M739.518 465.707c0 0-0.334-27.229-54.959-26.895 0 0-46.105-141.322-158.361-160.7-136.311-23.721-232.029 48.444-242.553 96.386 0 0 90.707-83.357 162.871-0.668 0 0-12.027 0-19.879 6.348-7.016 5.68-9.856 17.707-9.856 17.707s22.384 13.197 14.032 23.22c0 0-49.613 1.002-52.453 32.741l29.233 19.879c0 0-11.526-5.847-22.718 0.167 0 0-29.4 22.384-23.721 45.103l24.556 2.673c0 0-42.597 32.073-30.737 56.629 0 0 4.176 21.215 145.164-77.844 0 0 24.89 93.546 70.828 114.093 0 0 7.684-3.842 7.684-8.018 0 0 6.515 14.867 15.034 16.204 0 0 10.357-9.689 3.675-15.201 0 0 17.54 12.696 26.059 6.181 0 0-0.668-11.192-25.892-25.224 0 0 65.148-3.842 88.034-95.718 0 0 28.231-10.691 54.792 7.35 0 0 2.172-13.531-39.089-32.741 0-0.167 3.842-6.682 38.254-1.67z" />
<glyph unicode="&#xe61f;" glyph-name="ico_black_32" d="M568.295 579.967h37.252l0.668 69.492h-58.634c0 0-91.709 9.689-91.709-86.363 0-20.547 0-39.757 0-39.757h-37.252l-0.668-75.672h37.92v-201.292h87.032v201.125h50.114l12.194 75.672h-62.476v30.737c0 0-5.346 26.059 25.558 26.059z" />
<glyph unicode="&#xe620;" glyph-name="ico_black_33" d="M512 192v0c-12.8 0-23.467 4.267-34.133 12.8l-209.067 209.067c-8.533 8.533-12.8 21.333-12.8 34.133s4.267 23.467 12.8 34.133l66.133 66.133c6.4 6.4 12.8 8.533 21.333 6.4s12.8-8.533 14.933-17.067c2.133-8.533 6.4-17.067 12.8-25.6 19.2-19.2 51.2-19.2 70.4 0s19.2 51.2 0 70.4c-6.4 6.4-14.933 10.667-25.6 12.8-8.533 2.133-14.933 8.533-17.067 14.933-2.133 8.533 0 14.933 6.4 21.333l59.733 59.733c17.067 17.067 49.067 17.067 66.133 0l42.667-42.667c4.267 10.667 10.667 19.2 19.2 27.733 17.067 17.067 40.533 27.733 66.133 27.733s49.067-10.667 66.133-27.733c36.267-36.267 36.267-96 0-132.267-8.533-8.533-17.067-14.933-27.733-19.2l42.667-42.667c8.533-8.533 12.8-21.333 12.8-34.133s-4.267-23.467-12.8-34.133l-59.733-59.733c-6.4-6.4-14.933-8.533-21.333-6.4-8.533 2.133-12.8 8.533-14.933 17.067s-6.4 17.067-12.8 25.6c-19.2 19.2-51.2 19.2-70.4 0s-19.2-51.2 0-70.4c6.4-6.4 14.933-10.667 25.6-12.8 8.533-2.133 14.933-8.533 17.067-14.933 2.133-8.533 0-17.067-6.4-21.333l-66.133-66.133c-8.533-8.533-19.2-12.8-32-12.8v0zM343.467 492.8l-42.667-42.667c0 0 0-2.133 0-2.133s0-2.133 0-2.133l209.067-209.067c2.133-2.133 2.133-2.133 4.267 0l42.667 42.667c-4.267 2.133-8.533 6.4-12.8 10.667-36.267 36.267-36.267 96 0 132.267 17.067 17.067 40.533 27.733 66.133 27.733s49.067-10.667 66.133-27.733c4.267-4.267 8.533-8.533 10.667-12.8l36.267 36.267c0 0 0 2.133 0 2.133s0 2.133 0 2.133l-72.533 72.533c-6.4 6.4-8.533 17.067-4.267 25.6s12.8 12.8 21.333 12.8c14.933-2.133 27.733 4.267 38.4 14.933 19.2 19.2 19.2 51.2 0 70.4s-51.2 19.2-70.4 0c-10.667-10.667-14.933-23.467-14.933-38.4 0-8.533-4.267-17.067-12.8-21.333s-17.067-2.133-23.467 4.267l-72.533 72.533c0-2.133 0-2.133-2.133-4.267l-36.267-36.267c4.267-2.133 8.533-6.4 12.8-10.667 36.267-36.267 36.267-96 0-132.267-17.067-17.067-40.533-27.733-66.133-27.733s-49.067 10.667-66.133 27.733c-2.133 4.267-6.4 8.533-10.667 12.8v0z" />
<glyph unicode="&#xe621;" glyph-name="ico_black_34" d="M512 236.8c-55.467 0-108.8 21.333-149.333 61.867s-61.867 93.867-61.867 149.333c0 55.467 21.333 108.8 61.867 149.333s93.867 61.867 149.333 61.867c55.467 0 108.8-21.333 149.333-61.867s61.867-93.867 61.867-149.333c0-55.467-21.333-108.8-61.867-149.333s-93.867-61.867-149.333-61.867v0zM512 618.667c-44.8 0-89.6-17.067-121.6-49.067s-49.067-76.8-49.067-121.6c0-44.8 17.067-89.6 49.067-121.6s74.667-49.067 121.6-49.067c44.8 0 89.6 17.067 121.6 49.067s49.067 74.667 49.067 121.6-17.067 89.6-49.067 121.6c-34.133 32-76.8 49.067-121.6 49.067v0zM512 192c-6.4 0-10.667 4.267-10.667 10.667v490.667c0 6.4 4.267 10.667 10.667 10.667s10.667-4.267 10.667-10.667v-488.533c0-8.533-4.267-12.8-10.667-12.8v0zM757.333 437.333h-490.667c-6.4 0-10.667 4.267-10.667 10.667s4.267 10.667 10.667 10.667h490.667c6.4 0 10.667-4.267 10.667-10.667s-4.267-10.667-10.667-10.667v0z" />
<glyph unicode="&#xe622;" glyph-name="ico_black_35" d="M622.933 394.667c0-6.4-2.133-10.667-6.4-14.933l-89.6-89.6c-8.533-8.533-21.333-8.533-29.867 0l-89.6 89.6c-8.533 8.533-8.533 21.333 0 29.867s21.333 8.533 29.867 0l74.667-74.667 74.667 74.667c8.533 8.533 21.333 8.533 29.867 0 4.267-2.133 6.4-8.533 6.4-14.933v0zM533.333 590.933v-260.267c0-12.8-10.667-21.333-21.333-21.333s-21.333 10.667-21.333 21.333v260.267c0 12.8 10.667 21.333 21.333 21.333s21.333-10.667 21.333-21.333v0zM768 682.667v-469.333c0-12.8-10.667-21.333-21.333-21.333h-469.333c-12.8 0-21.333 10.667-21.333 21.333v469.333c0 12.8 10.667 21.333 21.333 21.333h469.333c10.667 0 21.333-10.667 21.333-21.333v0zM725.333 234.667v426.667h-426.667v-426.667h426.667z" />
<glyph unicode="&#xe623;" glyph-name="ico_black_36" d="M541.867 480v0 0c0 0 0 0 0 0zM384 183.467h-128v341.333h128v-341.333zM317.867 588.8v0 0c-36.267 0-59.733 23.467-61.867 53.333 0 32 25.6 55.467 61.867 55.467 38.4 0 61.867-23.467 61.867-55.467 0-29.867-23.467-53.333-61.867-53.333zM426.667 183.467v341.333h128v-42.667h-12.8c14.933 42.667 40.533 59.733 100.267 59.733 70.4 0 125.867-40.533 125.867-138.667v-221.867h-106.667v209.067c0 42.667-14.933 72.533-53.333 72.533-29.867 0-46.933-19.2-55.467-38.4-4.267-6.4 2.133-14.933 2.133-25.6v-215.467h-128z" />
<glyph unicode="&#xe624;" glyph-name="ico_black_37" d="M512 704c-140.8 0-256-115.2-256-256s115.2-256 256-256c140.8 0 256 115.2 256 256s-115.2 256-256 256zM512 226.133c-121.6 0-221.867 100.267-221.867 221.867s100.267 221.867 221.867 221.867c121.6 0 221.867-100.267 221.867-221.867s-100.267-221.867-221.867-221.867zM584.533 328.533c-42.667 0-87.467 19.2-121.6 53.333v0 0c-36.267 36.267-55.467 81.067-53.333 123.733v2.133l2.133 2.133c2.133 4.267 6.4 6.4 8.533 10.667 10.667 10.667 25.6 21.333 40.533 25.6 2.133 0 4.267 2.133 6.4 2.133 4.267 0 17.067-2.133 19.2-10.667 4.267-14.933 12.8-34.133 17.067-51.2 2.133-4.267 0-17.067-6.4-21.333l-17.067-10.667c0 0 0-2.133 2.133-6.4 6.4-8.533 14.933-17.067 23.467-25.6s17.067-14.933 25.6-21.333c2.133-2.133 4.267-2.133 4.267-2.133l12.8 17.067c4.267 6.4 17.067 8.533 17.067 8.533 2.133 0 2.133 0 4.267 0 21.333-4.267 36.267-8.533 53.333-17.067 8.533-4.267 12.8-17.067 8.533-25.6-6.4-14.933-14.933-29.867-25.6-40.533-4.267-4.267-6.4-6.4-10.667-8.533l-2.133-2.133-8.533-2.133zM428.8 503.467c0-36.267 17.067-76.8 49.067-106.667v0c29.867-29.867 68.267-46.933 106.667-46.933 2.133 2.133 4.267 4.267 6.4 6.4 10.667 10.667 17.067 21.333 21.333 34.133 0 0 0 2.133 0 2.133-14.933 6.4-27.733 10.667-46.933 14.933 0 0-2.133 0-2.133 0l-10.667-14.933c-6.4-10.667-21.333-10.667-34.133-2.133-10.667 6.4-19.2 14.933-27.733 23.467s-17.067 19.2-23.467 27.733c-4.267 6.4-6.4 14.933-4.267 21.333 0 4.267 4.267 10.667 8.533 12.8l14.933 8.533c0 0 0 2.133 0 2.133-4.267 14.933-10.667 32-14.933 46.933 0 0-2.133 0-2.133 0-12.8-4.267-23.467-12.8-34.133-21.333-2.133-4.267-4.267-6.4-6.4-8.533v0z" />
<glyph unicode="&#xe625;" glyph-name="ico_black_38" d="M512 704c-140.8 0-256-115.2-256-256s115.2-256 256-256 256 115.2 256 256c0 140.8-115.2 256-256 256zM512 226.133c-121.6 0-221.867 100.267-221.867 221.867s100.267 221.867 221.867 221.867 221.867-100.267 221.867-221.867c0-121.6-100.267-221.867-221.867-221.867zM629.333 334.933h-238.933c-17.067 0-32 14.933-32 32v157.867c0 17.067 14.933 32 32 32h238.933c17.067 0 32-14.933 32-32v-157.867c0-19.2-14.933-32-32-32v0zM390.4 526.933c-2.133 0-4.267-2.133-4.267-4.267v-157.867c0-2.133 2.133-4.267 4.267-4.267h238.933c2.133 0 4.267 2.133 4.267 4.267v157.867c0 2.133-2.133 4.267-4.267 4.267h-238.933zM629.333 341.333h-238.933c-10.667 0-19.2 6.4-23.467 14.933 0 2.133 0 6.4 2.133 6.4l93.867 83.2c2.133 2.133 6.4 2.133 8.533 0s2.133-6.4 0-8.533l-89.6-78.933c2.133-2.133 4.267-4.267 8.533-4.267h238.933c2.133 0 6.4 2.133 8.533 4.267l-89.6 81.067c-2.133 2.133-2.133 6.4 0 8.533s6.4 2.133 8.533 0l93.867-85.333c2.133-2.133 2.133-4.267 2.133-6.4-4.267-8.533-12.8-14.933-23.467-14.933v0zM509.867 401.067c-2.133 0-2.133 0-4.267 2.133l-136.533 121.6c-2.133 2.133-2.133 4.267-2.133 6.4 4.267 8.533 12.8 14.933 23.467 14.933h238.933c10.667 0 19.2-6.4 23.467-14.933 0-2.133 0-6.4-2.133-6.4l-136.533-121.6c0-2.133-2.133-2.133-4.267-2.133v0zM381.867 529.067l128-115.2 128 115.2c-2.133 2.133-4.267 4.267-8.533 4.267h-238.933c-4.267 0-6.4-2.133-8.533-4.267v0z" />
<glyph unicode="&#xe626;" glyph-name="ico_black_39" d="M512 704c-140.8 0-256-115.2-256-256s115.2-256 256-256c140.8 0 256 115.2 256 256s-115.2 256-256 256zM512 226.133c-121.6 0-221.867 100.267-221.867 221.867s100.267 221.867 221.867 221.867c121.6 0 221.867-100.267 221.867-221.867s-100.267-221.867-221.867-221.867zM563.2 341.333v0h-140.8zM531.2 341.333h-115.2c-6.4 0-10.667 4.267-10.667 10.667v192c0 6.4 4.267 10.667 10.667 10.667h115.2c6.4 0 10.667-4.267 10.667-10.667v-192c0-6.4-4.267-10.667-10.667-10.667zM422.4 358.4h102.4v177.067h-102.4v-177.067zM507.733 512c0-2.133-2.133-4.267-4.267-4.267h-59.733c-2.133 0-4.267 2.133-4.267 4.267v8.533c0 2.133 2.133 4.267 4.267 4.267h59.733c2.133 0 4.267-2.133 4.267-4.267v-8.533zM507.733 486.4c0-2.133-2.133-4.267-4.267-4.267h-59.733c-2.133 0-4.267 2.133-4.267 4.267v8.533c0 2.133 2.133 4.267 4.267 4.267h59.733c2.133 0 4.267-2.133 4.267-4.267v-8.533zM507.733 458.667c0-2.133-2.133-4.267-4.267-4.267h-59.733c-2.133 0-4.267 2.133-4.267 4.267v8.533c0 2.133 2.133 4.267 4.267 4.267h59.733c2.133 0 4.267-2.133 4.267-4.267v-8.533zM507.733 430.933c0-2.133-2.133-4.267-4.267-4.267h-59.733c-2.133 0-4.267 2.133-4.267 4.267v8.533c0 2.133 2.133 4.267 4.267 4.267h59.733c2.133 0 4.267-2.133 4.267-4.267v-8.533zM490.667 386.133c0 0 2.133-2.133 0 0l2.133-32c0 0 0-2.133-2.133-2.133h-29.867c0 0-2.133 0-2.133 2.133v29.867c0 0 0 2.133 2.133 2.133h29.867zM571.733 386.133h-19.2c0 0-2.133 0-2.133-2.133v-23.467h21.333v25.6c0-2.133 0 0 0 0zM608 462.933h-61.867v-17.067h53.333v-85.333h-53.333v-19.2h61.867c6.4 0 10.667 4.267 10.667 10.667v100.267c0 4.267-4.267 10.667-10.667 10.667zM556.8 418.133h10.667c2.133 0 4.267 2.133 4.267 4.267v8.533c0 2.133-2.133 4.267-4.267 4.267h-10.667c-2.133 0-4.267-2.133-4.267-4.267v-8.533c0-4.267 2.133-4.267 4.267-4.267zM582.4 418.133h10.667c2.133 0 4.267 2.133 4.267 4.267v8.533c0 2.133-2.133 4.267-4.267 4.267h-10.667c-2.133 0-4.267-2.133-4.267-4.267v-8.533c0-4.267 0-4.267 4.267-4.267zM556.8 394.667h10.667c2.133 0 4.267 2.133 4.267 4.267v8.533c0 2.133-2.133 4.267-4.267 4.267h-10.667c-2.133 0-4.267-2.133-4.267-4.267v-8.533c0-2.133 2.133-4.267 4.267-4.267zM582.4 394.667h10.667c2.133 0 4.267 2.133 4.267 4.267v8.533c0 2.133-2.133 4.267-4.267 4.267h-10.667c-2.133 0-4.267-2.133-4.267-4.267v-8.533c0-2.133 0-4.267 4.267-4.267z" />
<glyph unicode="&#xe627;" glyph-name="ico_black_40" d="M635.733 192v0h-339.2zM558.933 192h-277.333c-12.8 0-25.6 10.667-25.6 25.6v460.8c0 14.933 10.667 25.6 25.6 25.6h277.333c12.8 0 25.6-10.667 25.6-25.6v-460.8c-2.133-12.8-12.8-25.6-25.6-25.6zM296.533 234.667h245.333v426.667h-245.333v-426.667zM501.333 601.6c0-6.4-4.267-10.667-10.667-10.667h-140.8c-6.4 0-10.667 4.267-10.667 10.667v21.333c0 6.4 4.267 10.667 10.667 10.667h140.8c6.4 0 10.667-4.267 10.667-10.667v-21.333zM501.333 537.6c0-6.4-4.267-10.667-10.667-10.667h-140.8c-6.4 0-10.667 4.267-10.667 10.667v21.333c0 6.4 4.267 10.667 10.667 10.667h140.8c6.4 0 10.667-4.267 10.667-10.667v-21.333zM501.333 473.6c0-6.4-4.267-10.667-10.667-10.667h-140.8c-6.4 0-10.667 4.267-10.667 10.667v21.333c0 6.4 4.267 10.667 10.667 10.667h140.8c6.4 0 10.667-4.267 10.667-10.667v-21.333zM501.333 407.467c0-6.4-4.267-10.667-10.667-10.667h-140.8c-6.4 0-10.667 4.267-10.667 10.667v21.333c0 6.4 4.267 10.667 10.667 10.667h140.8c6.4 0 10.667-4.267 10.667-10.667v-21.333zM460.8 298.667c2.133 0 4.267-2.133 4.267-4.267v-74.667c0-2.133-2.133-4.267-4.267-4.267h-72.533c-2.133 0-4.267 2.133-4.267 4.267v74.667c0 2.133 2.133 4.267 4.267 4.267h72.533zM652.8 298.667h-46.933c-2.133 0-2.133-2.133-2.133-4.267v-59.733h53.333v57.6c0 4.267-2.133 6.4-4.267 6.4zM742.4 482.133h-145.067v-42.667h130.133v-204.8h-130.133v-42.667h147.2c12.8 0 25.6 10.667 25.6 25.6v238.933c-2.133 12.8-12.8 25.6-27.733 25.6zM667.733 407.467c0 6.4 4.267 10.667 10.667 10.667h23.467c6.4 0 10.667-4.267 10.667-10.667v-21.333c0-6.4-4.267-10.667-10.667-10.667h-23.467c-6.4 0-10.667 4.267-10.667 10.667v21.333zM667.733 352c0 6.4 4.267 10.667 10.667 10.667h23.467c6.4 0 10.667-4.267 10.667-10.667v-21.333c0-6.4-4.267-10.667-10.667-10.667h-23.467c-6.4 0-10.667 4.267-10.667 10.667v21.333zM610.133 407.467c0 6.4 4.267 10.667 10.667 10.667h23.467c6.4 0 10.667-4.267 10.667-10.667v-21.333c0-6.4-4.267-10.667-10.667-10.667h-23.467c-6.4 0-10.667 4.267-10.667 10.667v21.333zM610.133 352c0 6.4 4.267 10.667 10.667 10.667h23.467c6.4 0 10.667-4.267 10.667-10.667v-21.333c0-6.4-4.267-10.667-10.667-10.667h-23.467c-6.4 0-10.667 4.267-10.667 10.667v21.333z" />
<glyph unicode="&#xe628;" glyph-name="ico_black_41" d="M277.333 168.533c-4.267 0-8.533 2.133-12.8 4.267-6.4 4.267-8.533 10.667-8.533 17.067v426.667c0 8.533 6.4 17.067 12.8 19.2l234.667 91.733c6.4 2.133 12.8 2.133 19.2-2.133s8.533-10.667 8.533-17.067v-426.667c0-8.533-6.4-17.067-12.8-19.2l-234.667-91.733c-2.133-2.133-4.267-2.133-6.4-2.133v0zM298.667 601.6v-379.733l192 74.667v379.733l-192-74.667zM326.4 512c-4.267 0-8.533 2.133-10.667 6.4-2.133 6.4 0 12.8 6.4 14.933l140.8 53.333c6.4 2.133 10.667 0 12.8-6.4s0-12.8-6.4-14.933l-140.8-53.333c0 0-2.133 0-2.133 0v0zM326.4 373.333c-4.267 0-8.533 2.133-10.667 6.4-2.133 6.4 0 12.8 6.4 14.933l140.8 53.333c6.4 2.133 10.667 0 12.8-6.4s0-12.8-6.4-14.933l-140.8-53.333c0 0-2.133 0-2.133 0v0zM326.4 305.067c-4.267 0-8.533 2.133-10.667 6.4-2.133 6.4 0 12.8 6.4 14.933l140.8 53.333c6.4 2.133 10.667 0 12.8-6.4s0-12.8-6.4-14.933l-140.8-53.333c0 0-2.133 0-2.133 0v0zM326.4 443.733c-4.267 0-8.533 2.133-10.667 6.4-2.133 6.4 0 12.8 6.4 14.933l140.8 53.333c6.4 2.133 10.667 0 12.8-6.4s0-12.8-6.4-14.933l-140.8-53.333c0 0-2.133 0-2.133 0v0zM661.333 211.2c-6.4 0-10.667 4.267-10.667 10.667v123.733c0 4.267 2.133 6.4 4.267 8.533s6.4 2.133 10.667 2.133l85.333-34.133c6.4-2.133 8.533-8.533 6.4-14.933s-8.533-8.533-12.8-6.4l-72.533 27.733v-108.8c0-2.133-6.4-8.533-10.667-8.533v0zM661.333 200.533c-2.133 0-4.267 0-6.4 2.133l-149.333 57.6c-8.533 2.133-12.8 10.667-12.8 19.2v426.667c0 6.4 4.267 12.8 8.533 17.067 6.4 4.267 12.8 4.267 19.2 2.133l234.667-91.733c8.533-2.133 12.8-10.667 12.8-19.2v-302.933c0-6.4-2.133-10.667-6.4-14.933l-85.333-91.733c-4.267-2.133-10.667-4.267-14.933-4.267v0zM533.333 294.4l121.6-46.933 70.4 74.667v277.333l-192 74.667v-379.733zM704 509.867c-2.133 0-2.133 0-4.267 0l-140.8 53.333c-6.4 2.133-8.533 8.533-6.4 14.933s8.533 8.533 12.8 6.4l140.8-53.333c6.4-2.133 8.533-8.533 6.4-14.933-2.133-4.267-4.267-6.4-8.533-6.4v0zM704 371.2c-2.133 0-2.133 0-4.267 0l-140.8 55.467c-6.4 2.133-8.533 8.533-6.4 14.933s8.533 8.533 12.8 6.4l140.8-53.333c6.4-2.133 8.533-8.533 6.4-14.933s-4.267-8.533-8.533-8.533v0zM704 441.6c-2.133 0-2.133 0-4.267 0l-140.8 53.333c-6.4 2.133-8.533 8.533-6.4 14.933s8.533 8.533 12.8 6.4l140.8-53.333c6.4-2.133 8.533-8.533 6.4-14.933-2.133-4.267-4.267-6.4-8.533-6.4v0z" />
<glyph unicode="&#xe629;" glyph-name="ico_black_42" d="M714.667 264.533h-405.333c-29.867 0-53.333 23.467-53.333 51.2v262.4c0 27.733 23.467 51.2 53.333 51.2h407.467c29.867 0 53.333-23.467 53.333-51.2v-262.4c-2.133-27.733-25.6-51.2-55.467-51.2v0zM309.333 586.667c-4.267 0-8.533-4.267-8.533-8.533v-262.4c0-4.267 4.267-8.533 8.533-8.533h407.467c4.267 0 8.533 4.267 8.533 8.533v262.4c0 4.267-4.267 8.533-8.533 8.533h-407.467zM714.667 275.2h-405.333c-17.067 0-32 10.667-38.4 25.6-2.133 4.267 0 8.533 2.133 12.8l157.867 138.667c4.267 4.267 10.667 4.267 14.933 0s4.267-10.667 0-14.933l-151.467-132.267c4.267-4.267 8.533-6.4 14.933-6.4h407.467c6.4 0 10.667 2.133 14.933 6.4l-155.733 134.4c-4.267 4.267-4.267 10.667 0 14.933s10.667 4.267 14.933 0l160-140.8c4.267-2.133 4.267-8.533 2.133-12.8-4.267-14.933-21.333-25.6-38.4-25.6v0zM512 375.467c-2.133 0-4.267 0-8.533 2.133l-232.533 202.667c-4.267 2.133-4.267 8.533-2.133 12.8 6.4 14.933 21.333 25.6 38.4 25.6h407.467c17.067 0 32-10.667 38.4-25.6 2.133-4.267 0-8.533-2.133-12.8l-232.533-202.667c0-2.133-4.267-2.133-6.4-2.133v0zM294.4 590.933l217.6-189.867 217.6 189.867c-4.267 4.267-8.533 6.4-14.933 6.4h-405.333c-6.4 0-10.667-2.133-14.933-6.4v0z" />
<glyph unicode="&#xe62a;" glyph-name="ico_black_43" d="M441.6 196.267c-19.2 0-38.4 8.533-51.2 23.467l-115.2 134.4c-27.733 32-25.6 81.067 2.133 110.933s72.533 27.733 100.267-2.133l59.733-70.4 204.8 277.333c25.6 34.133 68.267 38.4 100.267 10.667 29.867-27.733 34.133-76.8 10.667-110.933l-256-345.6c-12.8-17.067-32-27.733-51.2-27.733-2.133 0-2.133 0-4.267 0v0z" />
<glyph unicode="&#xe62b;" glyph-name="ico_black_44" d="M416 309.333c-6.4 0-10.667 2.133-14.933 6.4-8.533 8.533-8.533 21.333 0 29.867l185.6 187.733c8.533 8.533 21.333 8.533 29.867 0s8.533-21.333 0-29.867l-185.6-187.733c-4.267-4.267-10.667-6.4-14.933-6.4v0zM599.467 392.533c-4.267 0-6.4 0-10.667 0-12.8 2.133-21.333 10.667-19.2 23.467s10.667 21.333 23.467 19.2c21.333-2.133 42.667 6.4 57.6 21.333l53.333 53.333c27.733 27.733 27.733 74.667 0 102.4l-6.4 6.4c-27.733 27.733-74.667 27.733-102.4 0l-53.333-53.333c-14.933-14.933-21.333-36.267-21.333-57.6 2.133-12.8-8.533-21.333-19.2-23.467-10.667 0-21.333 8.533-23.467 19.2-2.133 34.133 8.533 68.267 32 91.733l53.333 53.333c44.8 44.8 117.333 44.8 162.133 0l6.4-6.4c44.8-44.8 44.8-117.333 0-162.133l-51.2-53.333c-21.333-21.333-51.2-34.133-81.067-34.133v0zM377.6 170.667c-29.867 0-59.733 10.667-81.067 34.133l-6.4 6.4c-21.333 21.333-34.133 51.2-34.133 81.067s12.8 59.733 34.133 81.067l53.333 53.333c23.467 23.467 57.6 36.267 91.733 32 12.8 0 21.333-10.667 19.2-23.467 0-12.8-10.667-21.333-23.467-19.2-21.333 2.133-42.667-6.4-57.6-21.333l-53.333-51.2c-12.8-12.8-21.333-32-21.333-51.2s8.533-38.4 21.333-51.2l6.4-6.4c27.733-27.733 74.667-27.733 102.4 0l53.333 53.333c14.933 14.933 21.333 36.267 21.333 57.6 0 12.8 8.533 21.333 19.2 23.467 10.667 0 21.333-8.533 23.467-19.2 2.133-34.133-8.533-68.267-32-91.733l-53.333-53.333c-23.467-23.467-53.333-34.133-83.2-34.133v0z" />
<glyph unicode="&#xe62c;" glyph-name="ico_black_45" d="M659.2 192c-98.133 0-198.4 44.8-277.333 123.733l-2.133 2.133c-81.067 83.2-125.867 185.6-123.733 285.867v6.4l4.267 6.4c6.4 8.533 14.933 17.067 21.333 23.467 27.733 27.733 57.6 46.933 93.867 61.867 4.267 2.133 8.533 2.133 14.933 2.133 12.8 0 38.4-6.4 44.8-25.6 12.8-34.133 27.733-76.8 38.4-119.467 2.133-10.667 0-40.533-17.067-51.2l-38.4-25.6c0 0 0-6.4 4.267-12.8 14.933-21.333 32-40.533 51.2-61.867 19.2-19.2 40.533-36.267 59.733-51.2 4.267-2.133 8.533-4.267 12.8-4.267l25.6 38.4c10.667 17.067 38.4 17.067 40.533 17.067s6.4 0 8.533 0c51.2-10.667 81.067-21.333 121.6-38.4 17.067-8.533 27.733-38.4 21.333-59.733-12.8-34.133-34.133-66.133-59.733-93.867-8.533-8.533-14.933-14.933-23.467-21.333l-6.4-2.133h-14.933zM300.8 595.2c0-85.333 40.533-177.067 110.933-245.333l2.133-2.133c70.4-70.4 160-110.933 245.333-110.933 4.267 4.267 10.667 8.533 14.933 12.8 21.333 21.333 38.4 49.067 51.2 78.933 0 0-2.133 2.133-2.133 4.267-34.133 14.933-61.867 23.467-108.8 34.133-2.133 0-4.267 0-4.267-2.133l-21.333-34.133c-12.8-21.333-51.2-25.6-76.8-6.4-21.333 17.067-44.8 34.133-66.133 55.467s-40.533 42.667-55.467 66.133c-10.667 14.933-14.933 32-12.8 49.067 2.133 12.8 8.533 21.333 19.2 27.733l34.133 21.333c0 2.133 0 4.267 0 6.4-10.667 36.267-23.467 76.8-34.133 106.667-2.133 0-4.267 2.133-6.4 2.133-27.733-10.667-53.333-27.733-76.8-51.2-4.267-2.133-8.533-8.533-12.8-12.8v0z" />
<glyph unicode="&#xe62d;" glyph-name="ico_black_46" d="M424.533 330.667c-6.4 0-10.667 2.133-14.933 6.4s-6.4 10.667-6.4 17.067l4.267 83.2c0 4.267 2.133 10.667 6.4 12.8l241.067 247.467c4.267 4.267 8.533 6.4 14.933 6.4v0c6.4 0 10.667-2.133 14.933-6.4l76.8-78.933c4.267-4.267 6.4-8.533 6.4-14.933s-2.133-10.667-6.4-14.933l-241.067-247.467c-4.267-4.267-8.533-6.4-12.8-6.4l-83.2-4.267c0 0 0 0 0 0v0zM450.133 426.667l-2.133-51.2 49.067 2.133 221.867 226.133-46.933 46.933-221.867-224zM704 556.8c-2.133 0-6.4 0-6.4 2.133l-68.267 70.4c-4.267 4.267-4.267 10.667 0 14.933s10.667 4.267 14.933 0l68.267-70.4c4.267-4.267 4.267-10.667 0-14.933-2.133 0-6.4-2.133-8.533-2.133v0zM480 398.933c-2.133 0-6.4 0-6.4 2.133-4.267 4.267-4.267 10.667 0 14.933l189.867 192c4.267 4.267 10.667 4.267 14.933 0s4.267-10.667 0-14.933l-189.867-192c-4.267-2.133-6.4-2.133-8.533-2.133v0zM424.533 341.333c-2.133 0-6.4 2.133-6.4 2.133-2.133 2.133-4.267 4.267-2.133 8.533l2.133 40.533c0 4.267 4.267 8.533 8.533 10.667 2.133 0 2.133 0 4.267 0s2.133 0 4.267 0c12.8 0 23.467-4.267 29.867-12.8 8.533-8.533 10.667-19.2 10.667-32 0-2.133 0-4.267 0-4.267 0-4.267-4.267-8.533-10.667-8.533l-40.533-4.267c0 0 0 0 0 0v0zM437.333 381.867l-2.133-19.2h17.067c0 4.267-2.133 8.533-4.267 10.667-2.133 6.4-6.4 8.533-10.667 8.533v0zM657.067 192h-401.067v352l125.867 128h253.867c10.667 0 21.333-8.533 21.333-21.333s-8.533-21.333-21.333-21.333h-236.8l-100.267-102.4v-292.267h317.867v251.733c0 12.8 8.533 21.333 21.333 21.333 10.667 0 21.333-8.533 21.333-21.333v-294.4h-2.133zM401.067 524.8h-123.733c-6.4 0-10.667 4.267-10.667 10.667s4.267 10.667 10.667 10.667h102.4v104.533c0 6.4 4.267 10.667 10.667 10.667s10.667-4.267 10.667-10.667v-125.867z" />
<glyph unicode="&#xe62e;" glyph-name="ico_black_47" d="M755.2 445.867c0 0 8.533-117.333-64-185.6 0 0 6.4 17.067 8.533 34.133 0 0 23.467 17.067 23.467 78.933 0 29.867-6.4 57.6-27.733 34.133s-46.933-6.4-57.6 10.667c-10.667 17.067-4.267 74.667-4.267 74.667s2.133 44.8 36.267 55.467c0 0 19.2 0 25.6-10.667 0 0 12.8 27.733 25.6 19.2l-12.8 21.333c0 0-12.8-29.867-49.067-6.4 0 0-8.533 4.267-8.533-8.533-2.133-12.8-4.267-32-21.333-21.333-17.067 12.8-4.267 19.2 0 25.6s0 10.667-8.533 17.067c-10.667 6.4-27.733 8.533-27.733 8.533s-19.2 21.333 0 14.933c19.2-6.4 34.133-14.933 25.6 2.133-10.667 14.933-34.133 23.467-34.133 23.467s-12.8 12.8-8.533 25.6c4.267 12.8-29.867 29.867-29.867 29.867s209.067-49.067 209.067-243.2zM475.733 697.6c10.667 0 14.933 10.667 21.333 6.4 0 0 34.133-8.533 34.133-29.867s-12.8-14.933-12.8-14.933-10.667-2.133-8.533-14.933c0-12.8-17.067-4.267-19.2 0s-4.267 23.467-4.267 23.467-4.267 10.667-10.667 10.667c-8.533 2.133-10.667 17.067 0 19.2zM300.8 597.333c14.933 12.8 36.267 40.533 38.4 44.8s17.067 27.733 34.133 25.6c17.067 0 17.067-8.533 17.067-8.533 0-12.8 21.333-25.6 27.733-21.333s14.933 8.533 23.467 6.4c8.533-2.133 2.133-14.933-8.533-14.933-10.667-2.133-23.467-6.4-32-10.667s-10.667-6.4 0-21.333c10.667-17.067 17.067-2.133 19.2 2.133s4.267 19.2 21.333 14.933c14.933-4.267 21.333-12.8 29.867-21.333 8.533-10.667 0-17.067-17.067-17.067s-21.333-14.933-8.533-14.933c12.8 0 17.067-10.667 8.533-10.667s-25.6-4.267-25.6-4.267c-34.133-29.867-44.8-36.267-49.067-40.533s2.133-21.333 6.4-29.867c2.133-8.533-6.4-17.067-14.933-14.933s-8.533 17.067-8.533 27.733c0 8.533-14.933 14.933-25.6 14.933-12.8 0-25.6-17.067-27.733-27.733s0-21.333 17.067-10.667c14.933 10.667 17.067-2.133 17.067-2.133s-10.667-17.067-2.133-21.333c8.533-4.267 10.667-12.8 14.933-19.2s17.067-19.2 23.467-10.667c6.4 6.4 25.6 10.667 27.733 8.533 2.133 0 59.733-10.667 87.467-42.667s51.2-27.733 51.2-27.733c32-10.667 14.933-27.733 12.8-32s-14.933-19.2-12.8-25.6c2.133-6.4-12.8-25.6-12.8-25.6s-19.2 2.133-21.333-4.267c0-4.267-27.733-34.133-38.4-34.133-8.533 0-25.6-8.533-29.867-19.2s-12.8-21.333-17.067-17.067c-4.267 4.267-10.667 10.667-14.933 27.733-4.267 19.2-2.133 36.267 0 49.067s-17.067 23.467-17.067 23.467c-29.867 25.6-36.267 49.067-36.267 53.333s2.133 27.733 10.667 34.133c8.533 6.4 8.533 12.8 0 17.067-6.4 4.267-17.067 10.667-38.4 25.6s-49.067 40.533-57.6 66.133c-2.133 2.133 0 36.267 4.267 49.067 0 6.4 8.533 46.933 23.467 59.733z" />
<glyph unicode="&#xe62f;" glyph-name="ico_black_48" d="M356.267 315.733c4.267 10.667 6.4 19.2 10.667 27.733 0 2.133 2.133 2.133 0 4.267-4.267 10.667-6.4 25.6-19.2 32-2.133 0-4.267 2.133-6.4 2.133 2.133 2.133 0 6.4 0 8.533s4.267 4.267 6.4 4.267c4.267 0 10.667 2.133 14.933-4.267 0-2.133 4.267-2.133 6.4-2.133s2.133 2.133 2.133 4.267c0 2.133 2.133 6.4 2.133 10.667 4.267-2.133 6.4-4.267 10.667-8.533 8.533 4.267 17.067 8.533 25.6 14.933 10.667 8.533 21.333 19.2 32 29.867 2.133 2.133 4.267 4.267 8.533 4.267 6.4 2.133 12.8 2.133 17.067 2.133 6.4 0 10.667 4.267 8.533 10.667 0 2.133 0 4.267-2.133 6.4-4.267 6.4-2.133 10.667 0 17.067 2.133 8.533 2.133 14.933 12.8 14.933 2.133 0 6.4 4.267 8.533 6.4 2.133-4.267 4.267-6.4 6.4-10.667-2.133-2.133-4.267-4.267-6.4-6.4 2.133-2.133 2.133-4.267 4.267-8.533 12.8 2.133 14.933 4.267 8.533 14.933-2.133 8.533-6.4 14.933-10.667 25.6-6.4-4.267-10.667-6.4-14.933-10.667s-10.667-8.533-14.933-4.267c-4.267 4.267-10.667 10.667-10.667 17.067-2.133 10.667 0 23.467 2.133 34.133 0 10.667 8.533 14.933 17.067 21.333 2.133 2.133 6.4 2.133 8.533 4.267 12.8 17.067 25.6 36.267 38.4 55.467 2.133 4.267 2.133 10.667 4.267 14.933 2.133 6.4 2.133 10.667 10.667 10.667 2.133 0 4.267 0 6.4 2.133 10.667 8.533 21.333 19.2 32 27.733 10.667 10.667 19.2 10.667 29.867 4.267 6.4-4.267 8.533-14.933 4.267-21.333-6.4-10.667-6.4-10.667 2.133-19.2 2.133-2.133 2.133-4.267 2.133-8.533-2.133-6.4 0-10.667 4.267-14.933 0 0 2.133-2.133 2.133-2.133 2.133-10.667 4.267-19.2 10.667-27.733 2.133-2.133 2.133-6.4 6.4-8.533 4.267-4.267 6.4-8.533 4.267-12.8-4.267-10.667-8.533-21.333-14.933-29.867 0-2.133-4.267-4.267-6.4-4.267-4.267-2.133-10.667-2.133-14.933-6.4-10.667-6.4-19.2-2.133-27.733 6.4-2.133 2.133-4.267 4.267-2.133 4.267 2.133 6.4-2.133 12.8-2.133 19.2 0 4.267 0 6.4 0 10.667 2.133 8.533 17.067 25.6 23.467 29.867-2.133 6.4-4.267 8.533-14.933 6.4-6.4 0-10.667-4.267-8.533-10.667s-2.133-10.667-6.4-12.8c-8.533-8.533-14.933-19.2-14.933-32 0-8.533 0-14.933 6.4-21.333 8.533-10.667 8.533-14.933-2.133-25.6-4.267-6.4-8.533-10.667-4.267-19.2 4.267-6.4-4.267-17.067-12.8-21.333-6.4-2.133-12.8-6.4-19.2-10.667-2.133 0-2.133-4.267-2.133-6.4 4.267-2.133 6.4-4.267 8.533-6.4 6.4-4.267 12.8-4.267 19.2 2.133 12.8 8.533 14.933 8.533 25.6-2.133 4.267 4.267 8.533 8.533 12.8 12.8 0 4.267 0 8.533-2.133 12.8 0 4.267 0 6.4 0 10.667 2.133 8.533 8.533 12.8 17.067 8.533 2.133 0 4.267-2.133 6.4-2.133 4.267 12.8 2.133 14.933-10.667 14.933-2.133 0-6.4 0-8.533 0-2.133 12.8-2.133 12.8 8.533 14.933 2.133 0 4.267 2.133 6.4 2.133 8.533 6.4 19.2 6.4 27.733 6.4 2.133-8.533 2.133-14.933 4.267-23.467 2.133-19.2 10.667-25.6 29.867-25.6 2.133-10.667 8.533-19.2 19.2-23.467 6.4-2.133 6.4-8.533 0-14.933-2.133-2.133 0-4.267 0-8.533 4.267 2.133 6.4 2.133 8.533 4.267 6.4 4.267 12.8 2.133 17.067-6.4s12.8-8.533 17.067-14.933c0 0 4.267 0 4.267 0 10.667 8.533 19.2-2.133 29.867 0 2.133 0 4.267 0 4.267-2.133 2.133-6.4 4.267-10.667 6.4-17.067s-2.133-10.667-6.4-14.933c0 0-2.133-2.133-2.133-2.133-2.133-14.933-17.067-19.2-25.6-29.867 2.133-2.133 4.267-4.267 6.4-4.267 6.4-4.267 6.4-6.4 2.133-8.533-6.4-4.267-12.8-12.8-23.467-14.933 0 6.4-4.267 10.667-12.8 8.533 2.133 4.267 4.267 6.4 4.267 10.667-4.267 0-6.4 0-8.533 2.133-12.8 2.133-21.333-4.267-23.467-19.2 0-4.267-2.133-8.533-4.267-12.8 0-2.133-2.133-4.267-2.133-8.533-2.133-4.267-2.133-8.533-4.267-14.933 0-4.267 0-6.4 0-10.667 0-2.133 2.133-6.4 2.133-10.667-4.267 0-6.4 0-8.533 0-6.4 2.133-8.533 0-8.533-6.4 0-8.533-2.133-10.667-10.667-12.8-4.267 0-8.533 0-12.8-2.133 0-4.267 0-8.533 2.133-10.667-6.4 0-10.667 0-17.067 0 4.267-6.4 6.4-10.667 12.8-14.933s12.8-10.667 17.067-19.2c-6.4 4.267-10.667-14.933-19.2 0 0 0-2.133-2.133-2.133-2.133 0-4.267 0-8.533-2.133-12.8 0-2.133-2.133-4.267-2.133-8.533-2.133 2.133-4.267 2.133-6.4 4.267 0 0 0 0 0 0-14.933-2.133-14.933 12.8-25.6 19.2-8.533 4.267-8.533 6.4-2.133 14.933 0 0 0 2.133 2.133 2.133-12.8 8.533-12.8 8.533-14.933 25.6-2.133 8.533-4.267 14.933-12.8 19.2-19.2 8.533-34.133 23.467-46.933 40.533 0 17.067-2.133 21.333-8.533 17.067-4.267-4.267-4.267-12.8 0-14.933 8.533-6.4 12.8-14.933 17.067-23.467 2.133-4.267 4.267-8.533 10.667-8.533 4.267 0 6.4-2.133 8.533-6.4 4.267-6.4 10.667-8.533 17.067-12.8s8.533-8.533 6.4-17.067c-4.267 2.133-8.533 4.267-14.933 8.533 0-2.133-2.133-4.267 0-6.4 4.267-10.667 2.133-19.2-6.4-23.467-4.267-2.133-6.4-4.267-6.4-10.667 0-4.267-8.533-12.8-12.8-12.8 0 0 0 0 0 0-2.133 2.133-4.267 2.133-4.267 4.267-4.267 8.533-21.333 4.267-17.067 21.333 4.267 0 10.667 0 14.933 0s17.067 6.4 19.2 10.667c2.133 6.4 0 10.667-4.267 17.067-8.533 6.4-14.933 14.933-25.6 17.067-2.133 0-2.133 2.133-4.267 2.133-8.533 10.667-19.2 19.2-21.333 34.133-2.133 10.667-8.533 12.8-19.2 8.533-8.533-4.267-17.067-8.533-27.733-12.8-4.267 2.133-8.533 4.267-12.8 6.4-8.533 4.267-14.933 0-14.933-10.667 0-6.4-2.133-10.667-8.533-10.667-4.267 0-6.4-2.133-10.667-4.267-10.667-2.133-14.933-10.667-21.333-17.067-2.133-4.267-2.133-10.667-2.133-17.067 0 0 0 0-2.133-2.133-8.533-4.267-10.667-17.067-23.467-14.933-4.267-8.533-12.8-8.533-19.2-4.267-8.533 4.267-17.067 6.4-27.733 0-4.267-2.133-8.533 2.133-8.533 6.4-2.133 10.667-8.533 12.8-17.067 14.933-12.8 2.133-12.8 2.133-8.533 14.933 0 4.267 0 8.533 0 12.8-2.133 0-2.133 4.267 2.133 8.533 14.933 12.8 14.933 29.867 17.067 46.933 2.133 10.667 0 8.533 10.667 10.667 6.4 2.133 12.8 0 19.2-2.133 14.933-8.533 32-12.8 49.067-17.067zM349.867 450.133c-8.533 0-17.067 0-25.6 0-4.267 0-10.667 2.133-14.933 2.133-6.4 2.133-6.4 10.667-2.133 14.933 2.133 2.133 4.267 6.4 4.267 8.533 4.267 8.533 6.4 17.067 19.2 17.067 10.667 2.133 21.333 8.533 32 14.933-2.133 4.267-4.267 8.533-8.533 14.933 8.533 19.2 12.8 23.467 25.6 12.8 4.267 2.133 10.667 6.4 14.933 8.533 2.133 2.133 6.4 2.133 8.533 2.133 0 0 2.133-2.133 2.133-2.133-4.267-6.4-8.533-12.8-12.8-21.333 2.133-2.133 4.267-2.133 8.533-4.267 0-2.133 0-2.133 0-4.267-10.667-17.067-6.4-32 2.133-49.067 0-2.133 2.133-2.133 2.133-4.267-2.133-10.667 2.133-17.067 12.8-21.333-4.267-8.533-6.4-14.933-10.667-21.333-2.133-2.133-4.267-4.267-6.4-4.267-6.4-2.133-12.8-4.267-19.2-4.267-12.8 2.133-23.467-2.133-36.267 0-2.133 0-4.267 4.267-6.4 6.4 0 2.133 2.133 4.267 2.133 6.4 4.267 4.267 8.533 6.4 10.667 8.533-2.133 8.533-2.133 14.933-2.133 19.2 2.133 0 4.267 0 4.267 2.133 2.133 6.4 2.133 10.667 4.267 14.933 2.133 2.133 8.533 4.267 10.667 4.267-4.267 2.133-8.533 2.133-14.933 4.267 0-10.667-2.133-19.2-4.267-25.6zM471.467 296.533c6.4-6.4 8.533-12.8 4.267-19.2-2.133-4.267-2.133-6.4 0-10.667 2.133-6.4 0-25.6-4.267-29.867-4.267-2.133-8.533-6.4-12.8-2.133-4.267 2.133-6.4 6.4-2.133 10.667 6.4 4.267 2.133 8.533 0 10.667-4.267 4.267-6.4 8.533 2.133 12.8 2.133 0 2.133 4.267 2.133 6.4-4.267 12.8-2.133 17.067 10.667 21.333zM411.733 548.267c-6.4 10.667-4.267 14.933 8.533 17.067 2.133-8.533-2.133-12.8-8.533-17.067zM405.333 251.733c-4.267-6.4-8.533-8.533-14.933-4.267-2.133 0-2.133 6.4 0 6.4 4.267 4.267 10.667 4.267 14.933-2.133z" />
<glyph unicode="&#xe630;" glyph-name="ico_black_49" d="M693.333 192h-362.667c-25.6 0-46.933 21.333-46.933 46.933v266.667c0 6.4 2.133 10.667 6.4 14.933l209.067 179.2c6.4 6.4 19.2 6.4 25.6 0l206.933-179.2c4.267-4.267 6.4-8.533 6.4-14.933v-266.667c2.133-25.6-19.2-46.933-44.8-46.933v0zM324.267 494.933v-256c0-4.267 2.133-6.4 6.4-6.4h360.533c4.267 0 6.4 4.267 6.4 6.4v256l-185.6 162.133-187.733-162.133zM693.333 202.667h-362.667c-14.933 0-29.867 10.667-34.133 23.467-2.133 4.267 0 8.533 2.133 10.667l206.933 185.6c4.267 4.267 8.533 4.267 12.8 0l206.933-185.6c2.133-2.133 4.267-6.4 2.133-10.667-6.4-14.933-19.2-23.467-34.133-23.467v0zM317.867 228.267c2.133-4.267 8.533-6.4 12.8-6.4h360.533c4.267 0 8.533 2.133 12.8 6.4l-192 172.8-194.133-172.8zM576 349.867c-2.133 0-6.4 2.133-6.4 4.267-4.267 4.267-4.267 10.667 0 14.933l142.933 128c4.267 4.267 10.667 4.267 14.933 0s4.267-10.667 0-14.933l-142.933-128c-4.267-4.267-6.4-4.267-8.533-4.267v0zM450.133 347.733c-2.133 0-4.267 0-6.4 2.133l-145.067 130.133c-4.267 4.267-4.267 10.667 0 14.933s10.667 4.267 14.933 0l142.933-130.133c4.267-4.267 4.267-10.667 0-14.933-2.133 0-4.267-2.133-6.4-2.133v0z" />
<glyph unicode="&#xe631;" glyph-name="ico_black_50" d="M512 704c-140.8 0-256-115.2-256-256s115.2-256 256-256c140.8 0 256 115.2 256 256s-115.2 256-256 256zM648.533 458.667c0 0 0-17.067-32-17.067 0 0-27.733-85.333-93.867-96-81.067-14.933-138.667 29.867-145.067 57.6 0 0 53.333-49.067 98.133 0 0 0-6.4 0-12.8 4.267-4.267 4.267-6.4 10.667-6.4 10.667s12.8 8.533 8.533 14.933c0 0-29.867 0-32 19.2l17.067 12.8c0 0-6.4-4.267-12.8 0 0 0-17.067 12.8-14.933 27.733l14.933 2.133c0 0-25.6 19.2-19.2 34.133 0 0 2.133 12.8 87.467-46.933 0 0 14.933 55.467 42.667 68.267 0 0 4.267-2.133 4.267-4.267 0 0 4.267 8.533 8.533 10.667 0 0 6.4-6.4 2.133-8.533 0 0 10.667 8.533 14.933 4.267 0 0 0-6.4-14.933-14.933 0 0 38.4-2.133 53.333-57.6 0 0 17.067-6.4 32 4.267 0 0 2.133-8.533-23.467-19.2 0-6.4 2.133-8.533 23.467-6.4z" />
<glyph unicode="&#xe632;" glyph-name="ico_black_51" d="M512 704c-140.8 0-256-115.2-256-256s115.2-256 256-256c140.8 0 256 115.2 256 256s-115.2 256-256 256zM452.267 349.867h-40.533v132.267h40.533v-132.267zM430.933 499.2v0c-14.933 0-25.6 10.667-25.6 23.467s10.667 23.467 25.6 23.467c14.933 0 25.6-10.667 25.6-23.467s-10.667-23.467-25.6-23.467zM618.667 349.867h-46.933v68.267c0 17.067-6.4 29.867-23.467 29.867-12.8 0-19.2-8.533-23.467-17.067-2.133-2.133 0-6.4 0-10.667v-72.533h-46.933c0 0 0 121.6 0 132.267h46.933v-21.333c2.133 8.533 17.067 21.333 40.533 21.333 29.867 0 53.333-19.2 53.333-59.733v-70.4z" />
<glyph unicode="&#xe633;" glyph-name="ico_black_52" d="M509.867 682.667c142.933 0 258.133-113.067 258.133-253.867 2.133-142.933-113.067-258.133-253.867-258.133-142.933-2.133-258.133 113.067-258.133 253.867-2.133 142.933 113.067 258.133 253.867 258.133zM552.533 524.8h27.733v51.2h-42.667c0 0-68.267 6.4-68.267-64 0-14.933 0-29.867 0-29.867h-27.733v-55.467h27.733v-149.333h64v149.333h38.4l8.533 55.467h-46.933v23.467c2.133 0-2.133 19.2 19.2 19.2z" />
<glyph unicode="&#xe634;" glyph-name="ico_black_53" d="M505.6 377.6c-2.133 0-6.4 0-8.533 2.133l-230.4 98.133c-8.533 2.133-12.8 10.667-12.8 19.2s4.267 14.933 12.8 19.2l230.4 98.133c4.267 2.133 10.667 2.133 17.067 0l230.4-102.4c8.533-2.133 12.8-10.667 12.8-19.2s-4.267-14.933-12.8-19.2l-230.4-98.133c-2.133 2.133-4.267 2.133-8.533 2.133v0zM328.533 494.933l179.2-76.8 179.2 76.8-179.2 76.8-179.2-76.8zM505.6 283.733c-61.867 0-123.733 19.2-179.2 55.467-6.4 4.267-8.533 10.667-8.533 17.067v106.667c0 10.667 8.533 19.2 21.333 19.2s21.333-8.533 21.333-19.2v-96c91.733-55.467 202.667-55.467 296.533 0v96c0 10.667 8.533 19.2 21.333 19.2 10.667 0 21.333-8.533 21.333-19.2v-106.667c0-6.4-4.267-12.8-8.533-17.067-59.733-36.267-121.6-55.467-185.6-55.467v0zM746.667 339.2c-6.4 0-10.667 4.267-10.667 10.667v147.2c0 6.4 4.267 10.667 10.667 10.667s10.667-4.267 10.667-10.667v-147.2c0-6.4-4.267-10.667-10.667-10.667v0zM746.667 328.533c-10.667 0-21.333 8.533-21.333 19.2v70.4c0 10.667 8.533 19.2 21.333 19.2 10.667 0 21.333-8.533 21.333-19.2v-70.4c0-10.667-8.533-19.2-21.333-19.2v0z" />
<glyph unicode="&#xe635;" glyph-name="ico_black_54" d="M714.667 215.467h-405.333c-17.067 0-32 10.667-38.4 27.733-2.133 4.267 0 8.533 2.133 12.8l157.867 140.8c4.267 4.267 10.667 4.267 14.933 0s4.267-10.667 0-14.933l-151.467-134.4c4.267-4.267 8.533-6.4 14.933-6.4h407.467c6.4 0 10.667 2.133 14.933 6.4l-155.733 132.267c-4.267 4.267-4.267 10.667 0 14.933s10.667 4.267 14.933 0l160-142.933c4.267-2.133 4.267-8.533 2.133-12.8-4.267-12.8-21.333-23.467-38.4-23.467v0zM578.133 590.933c-4.267 0-8.533 2.133-12.8 4.267l-53.333 55.467-55.467-55.467c-6.4-6.4-17.067-6.4-23.467 0s-6.4 17.067 0 23.467l66.133 66.133c6.4 6.4 17.067 6.4 23.467 0l66.133-66.133c6.4-6.4 6.4-17.067 0-23.467 0-2.133-4.267-4.267-10.667-4.267v0zM512 426.667c-8.533 0-17.067 8.533-17.067 17.067v213.333c0 8.533 8.533 17.067 17.067 17.067s17.067-8.533 17.067-17.067v-213.333c0-10.667-8.533-17.067-17.067-17.067v0zM714.667 204.8h-405.333c-29.867 0-53.333 23.467-53.333 53.333v262.4c0 29.867 23.467 53.333 53.333 53.333h142.933c12.8 0 21.333-10.667 21.333-21.333 0-12.8-10.667-21.333-21.333-21.333h-142.933c-4.267 0-8.533-4.267-8.533-8.533v-266.667c0-4.267 4.267-8.533 8.533-8.533h407.467c4.267 0 8.533 4.267 8.533 8.533v264.533c0 4.267-4.267 8.533-8.533 8.533h-142.933c-12.8 0-21.333 10.667-21.333 21.333 0 12.8 10.667 21.333 21.333 21.333h142.933c29.867 0 53.333-23.467 53.333-53.333v-262.4c-2.133-27.733-25.6-51.2-55.467-51.2v0zM512 315.733c-2.133 0-4.267 0-8.533 2.133l-232.533 204.8c-4.267 4.267-4.267 10.667 0 14.933s10.667 4.267 14.933 0l226.133-196.267 224 198.4c4.267 4.267 10.667 4.267 14.933 0s4.267-10.667 0-14.933l-232.533-204.8c0-4.267-4.267-4.267-6.4-4.267v0z" />
<glyph unicode="&#xe636;" glyph-name="ico_black_55" d="M460.8 384c8.533-81.067 32-121.6 76.8-121.6 14.933 0 29.867 4.267 44.8 12.8 12.8 8.533 25.6 27.733 38.4 55.467 8.533 19.2 14.933 32 21.333 36.267s12.8 6.4 19.2 6.4c12.8 0 23.467-4.267 29.867-10.667 6.4-8.533 10.667-19.2 10.667-32 0-34.133-14.933-64-46.933-91.733s-70.4-42.667-115.2-42.667c-42.667 0-78.933 14.933-110.933 46.933s-51.2 78.933-57.6 145.067h-42.667c-4.267 0-6.4 2.133-6.4 8.533s2.133 12.8 6.4 21.333c4.267 8.533 8.533 12.8 10.667 12.8h27.733v12.8c0 10.667 0 23.467 2.133 42.667h-40.533c-4.267 0-6.4 2.133-6.4 8.533s2.133 12.8 6.4 21.333c4.267 8.533 8.533 12.8 10.667 12.8h32c14.933 119.467 68.267 177.067 162.133 177.067 40.533 0 76.8-10.667 106.667-34.133 29.867-21.333 44.8-49.067 44.8-83.2 0-10.667-4.267-21.333-10.667-27.733-6.4-8.533-14.933-10.667-25.6-10.667s-19.2 2.133-25.6 8.533c-4.267 6.4-10.667 14.933-14.933 27.733-6.4 17.067-14.933 27.733-23.467 36.267s-23.467 12.8-44.8 12.8c-23.467 0-42.667-8.533-55.467-25.6s-21.333-44.8-25.6-83.2h106.667c4.267 0 6.4-2.133 6.4-8.533s-2.133-12.8-6.4-21.333c-4.267-8.533-8.533-12.8-10.667-12.8h-98.133v-34.133c0-10.667 0-17.067 0-21.333h108.8c4.267 0 6.4-2.133 6.4-8.533s-2.133-14.933-6.4-21.333c-4.267-8.533-8.533-12.8-10.667-12.8h-93.867z" />
<glyph unicode="&#xe637;" glyph-name="ico_black_56" d="M693.333 192h-362.667c-25.6 0-46.933 21.333-46.933 46.933v266.667c0 4.267 2.133 8.533 4.267 12.8v0l12.8 14.933c-6.4 14.933-8.533 29.867-8.533 44.8 0 68.267 55.467 123.733 123.733 123.733 25.6 0 49.067-8.533 68.267-21.333l10.667 12.8c0 0 0 0 0 0 6.4 8.533 19.2 8.533 27.733 2.133l209.067-179.2c4.267-4.267 6.4-8.533 6.4-14.933v-266.667c2.133-21.333-19.2-42.667-44.8-42.667zM330.667 232.533h362.667c2.133 0 4.267 0 4.267 2.133l-128 115.2c-2.133 0-2.133 2.133-4.267 2.133 0 0 0 0 0 2.133l-53.333 46.933-187.733-166.4c2.133-2.133 4.267-2.133 6.4-2.133zM322.133 260.267l110.933 98.133-110.933 98.133v-196.267zM416 682.667c-57.6 0-104.533-46.933-104.533-104.533s46.933-104.533 104.533-104.533c57.6 0 104.533 46.933 104.533 104.533s-46.933 104.533-104.533 104.533zM701.867 494.933l-185.6 160c17.067-21.333 25.6-46.933 25.6-76.8 0-68.267-55.467-123.733-123.733-123.733-36.267 0-70.4 17.067-93.867 42.667v-12.8l125.867-113.067 55.467 51.2c4.267 4.267 8.533 4.267 12.8 0l55.467-51.2 125.867 113.067v10.667zM701.867 458.667l-110.933-98.133 110.933-98.133v196.267zM471.467 558.933h-36.267v-36.267c0-10.667-8.533-19.2-19.2-19.2s-19.2 8.533-19.2 19.2v36.267h-36.267c-10.667 0-19.2 8.533-19.2 19.2s8.533 19.2 19.2 19.2h36.267v36.267c0 10.667 8.533 19.2 19.2 19.2s19.2-8.533 19.2-19.2v-36.267h36.267c10.667 0 19.2-8.533 19.2-19.2s-8.533-19.2-19.2-19.2z" />
<glyph unicode="&#xe638;" glyph-name="ico_black_57" d="M740.267 362.667c-38.4 17.067-68.267 25.6-119.467 36.267-2.133 0-4.267 0-8.533 0-2.133 0-29.867 0-40.533-17.067l-12.8-19.2-12.8-17.067c-4.267 0-8.533 2.133-12.8 4.267-21.333 14.933-40.533 29.867-59.733 49.067s-36.267 38.4-51.2 57.6c-4.267 6.4-4.267 12.8-4.267 12.8l38.4 23.467c17.067 10.667 19.2 36.267 17.067 46.933-10.667 40.533-25.6 81.067-38.4 113.067-6.4 17.067-34.133 23.467-44.8 23.467-4.267 0-10.667 0-14.933-2.133-34.133-12.8-66.133-32-91.733-57.6-6.4-6.4-14.933-14.933-21.333-23.467l-6.4-2.133v-6.4c-2.133-96 42.667-194.133 121.6-270.933v0l2.133-2.133c78.933-76.8 179.2-119.467 275.2-119.467h14.933l6.4 4.267c8.533 6.4 17.067 12.8 23.467 21.333 25.6 25.6 46.933 55.467 59.733 89.6 8.533 17.067-2.133 46.933-19.2 55.467zM669.867 247.467c-4.267-4.267-8.533-8.533-14.933-12.8-85.333 0-174.933 38.4-243.2 104.533l-2.133 2.133c-68.267 66.133-108.8 153.6-108.8 234.667 4.267 4.267 8.533 10.667 12.8 14.933 21.333 21.333 49.067 38.4 76.8 49.067 2.133 0 4.267 0 6.4-2.133 10.667-29.867 25.6-68.267 34.133-102.4 0-2.133 0-4.267 0-6.4l-34.133-21.333c-10.667-6.4-17.067-14.933-19.2-27.733-2.133-14.933 2.133-32 12.8-46.933 17.067-21.333 34.133-42.667 55.467-64 21.333-19.2 42.667-38.4 64-53.333 25.6-19.2 61.867-14.933 74.667 6.4l21.333 34.133c2.133 0 4.267 0 4.267 0 44.8-10.667 72.533-19.2 106.667-32 0-2.133 2.133-4.267 2.133-4.267-10.667-27.733-27.733-51.2-49.067-72.533zM633.6 443.733c74.667 0 134.4 57.6 134.4 130.133s-59.733 130.133-134.4 130.133c-74.667 0-134.4-57.6-134.4-130.133-2.133-72.533 59.733-130.133 134.4-130.133zM633.6 682.667c61.867 0 113.067-49.067 113.067-108.8s-51.2-108.8-113.067-108.8c-61.867 0-113.067 49.067-113.067 108.8-2.133 59.733 49.067 108.8 113.067 108.8zM629.333 518.4c-4.267 0-8.533-2.133-12.8-4.267s-4.267-6.4-4.267-10.667c0-4.267 2.133-8.533 4.267-12.8 4.267-2.133 8.533-4.267 12.8-4.267s8.533 2.133 12.8 4.267c4.267 2.133 4.267 6.4 4.267 12.8 0 4.267-2.133 8.533-4.267 10.667-4.267 2.133-8.533 4.267-12.8 4.267zM588.8 593.067c6.4 0 12.8 4.267 14.933 12.8s6.4 14.933 10.667 17.067c4.267 4.267 10.667 6.4 19.2 6.4 6.4 0 12.8-2.133 17.067-6.4s6.4-8.533 6.4-14.933c0-2.133 0-6.4-2.133-8.533s-4.267-4.267-6.4-6.4c-2.133-2.133-6.4-4.267-10.667-8.533-6.4-4.267-10.667-8.533-12.8-12.8-4.267-4.267-6.4-6.4-8.533-12.8-2.133-4.267-2.133-10.667-2.133-17.067 0-4.267 2.133-8.533 4.267-10.667s6.4-4.267 10.667-4.267c8.533 0 12.8 4.267 12.8 10.667 0 4.267 2.133 6.4 2.133 8.533s0 2.133 2.133 4.267c0 2.133 2.133 2.133 4.267 4.267s4.267 4.267 6.4 6.4c8.533 8.533 14.933 14.933 19.2 17.067 4.267 4.267 6.4 8.533 8.533 12.8s4.267 10.667 4.267 17.067c0 8.533-2.133 14.933-6.4 21.333s-10.667 12.8-19.2 17.067c-8.533 4.267-19.2 6.4-29.867 6.4-12.8 0-21.333-2.133-32-6.4-8.533-4.267-14.933-10.667-21.333-17.067-4.267-6.4-6.4-14.933-6.4-21.333 0-4.267 2.133-6.4 4.267-8.533 2.133-6.4 6.4-6.4 10.667-6.4z" />
<glyph unicode="&#xe639;" glyph-name="ico_black_58" d="M608 448l140.8 140.8c25.6 25.6 25.6 68.267 0 96-25.6 25.6-68.267 25.6-96 0l-140.8-140.8-140.8 138.667c-25.6 25.6-68.267 25.6-96 0-25.6-25.6-25.6-68.267 0-96l140.8-140.8-140.8-140.8c-25.6-25.6-25.6-68.267 0-96 12.8-12.8 29.867-19.2 46.933-19.2s34.133 6.4 46.933 19.2l140.8 140.8 140.8-140.8c12.8-12.8 29.867-19.2 46.933-19.2s34.133 6.4 46.933 19.2c25.6 25.6 25.6 68.267 0 96l-136.533 142.933z" />
<glyph unicode="&#xe63a;" glyph-name="ico_black_59" d="M512 337.067c-102.4 0-185.6 83.2-185.6 185.6s83.2 185.6 185.6 185.6c102.4 0 185.6-83.2 185.6-185.6s-83.2-185.6-185.6-185.6v0zM512 663.467c-78.933 0-142.933-64-142.933-142.933s64-142.933 142.933-142.933c78.933 0 142.933 64 142.933 142.933 0 81.067-64 142.933-142.933 142.933v0zM512 416c-59.733 0-106.667 46.933-106.667 106.667s46.933 106.667 106.667 106.667 106.667-46.933 106.667-106.667c0-59.733-46.933-106.667-106.667-106.667v0zM512 608c-46.933 0-85.333-38.4-85.333-85.333s38.4-85.333 85.333-85.333 85.333 38.4 85.333 85.333c0 46.933-38.4 85.333-85.333 85.333v0zM420.267 189.867c-6.4 0-14.933 4.267-17.067 10.667l-32 51.2-59.733 2.133c-8.533 0-14.933 4.267-17.067 10.667-4.267 6.4-4.267 14.933 0 21.333l78.933 140.8c6.4 10.667 19.2 14.933 29.867 8.533s14.933-19.2 8.533-29.867l-61.867-110.933h36.267c6.4 0 12.8-4.267 17.067-10.667l19.2-29.867 61.867 110.933c6.4 10.667 19.2 14.933 29.867 8.533s14.933-19.2 8.533-29.867l-78.933-140.8c-8.533-8.533-14.933-12.8-23.467-12.8 2.133 0 2.133 0 0 0v0zM603.733 189.867c-2.133 0-2.133 0 0 0-8.533 0-14.933 4.267-19.2 10.667l-78.933 140.8c-6.4 10.667-2.133 23.467 8.533 29.867s23.467 2.133 29.867-8.533l61.867-110.933 19.2 29.867c4.267 6.4 10.667 8.533 17.067 10.667h36.267l-61.867 110.933c-6.4 10.667-2.133 23.467 8.533 29.867s23.467 2.133 29.867-8.533l78.933-140.8c4.267-6.4 4.267-14.933 0-21.333s-10.667-10.667-17.067-10.667l-59.733-2.133-34.133-51.2c-6.4-6.4-12.8-8.533-19.2-8.533v0z" />
<glyph unicode="&#xe63b;" glyph-name="ico_black_60" d="M746.667 563.2c0 6.4-2.133 10.667-6.4 14.933l-106.667 104.533c-4.267 4.267-10.667 6.4-14.933 6.4s-10.667-2.133-14.933-6.4l-334.933-328.533c-4.267-4.267-6.4-8.533-6.4-14.933l-6.4-110.933c0-6.4 2.133-12.8 6.4-17.067s10.667-6.4 14.933-6.4c0 0 0 0 2.133 0l110.933 6.4c6.4 0 10.667 2.133 14.933 6.4l334.933 330.667c4.267 4.267 6.4 10.667 6.4 14.933zM379.733 256l-49.067-2.133c-4.267 12.8-12.8 23.467-27.733 27.733l2.133 49.067 258.133 256 21.333-21.333-245.333-245.333c-8.533-8.533-8.533-21.333 0-29.867 4.267-4.267 10.667-6.4 14.933-6.4 6.4 0 10.667 2.133 14.933 6.4l247.467 243.2 21.333-21.333-258.133-256zM669.867 541.867l-74.667 72.533 23.467 23.467 74.667-72.533-23.467-23.467zM746.667 253.867h-247.467c-12.8 0-21.333-10.667-21.333-21.333s10.667-21.333 21.333-21.333h247.467c12.8 0 21.333 10.667 21.333 21.333s-10.667 21.333-21.333 21.333z" />
<glyph unicode="&#xe63c;" glyph-name="ico_black_70" d="M558.933 217.6c-6.4 0-10.667 4.267-10.667 10.667v128c0 6.4 4.267 10.667 10.667 10.667h128c6.4 0 10.667-4.267 10.667-10.667s-4.267-10.667-10.667-10.667h-117.333v-117.333c0-4.267-6.4-10.667-10.667-10.667v0zM558.933 206.933h-221.867c-12.8 0-21.333 8.533-21.333 21.333v128c0 12.8 8.533 21.333 21.333 21.333s21.333-8.533 21.333-21.333v-106.667h189.867l115.2 115.2v281.6h-326.4c-12.8 0-21.333 8.533-21.333 21.333s8.533 21.333 21.333 21.333h347.733c12.8 0 21.333-8.533 21.333-21.333v-309.333c0-6.4-2.133-10.667-6.4-14.933l-128-128c-2.133-6.4-8.533-8.533-12.8-8.533v0z" />
<glyph unicode="&#xe63d;" glyph-name="ico_black_64" d="M330.667 597.333c8.533 2.133 21.333 4.267 34.133 4.267 21.333 0 36.267-4.267 46.933-14.933 14.933-12.8 23.467-36.267 23.467-70.4s-8.533-59.733-23.467-72.533c-12.8-10.667-27.733-17.067-53.333-17.067-10.667 0-21.333 0-27.733 2.133v168.533zM364.8 454.4c2.133 0 4.267 0 6.4 0 17.067 0 29.867 14.933 29.867 64 0 36.267-8.533 57.6-29.867 57.6-2.133 0-4.267 0-6.4 0v-121.6zM490.667 426.667c-38.4 0-55.467 40.533-55.467 89.6 0 46.933 19.2 87.467 57.6 87.467 40.533 0 53.333-44.8 53.333-85.333 0-66.133-23.467-91.733-55.467-91.733v0zM490.667 454.4c14.933 0 19.2 25.6 19.2 59.733 0 29.867-4.267 57.6-19.2 57.6s-21.333-27.733-21.333-57.6c0-34.133 6.4-59.733 21.333-59.733v0zM637.867 430.933c-4.267-2.133-14.933-4.267-25.6-4.267-44.8 0-66.133 36.267-66.133 85.333 0 64 36.267 89.6 70.4 89.6 12.8 0 19.2-2.133 23.467-4.267l-6.4-27.733c-4.267 2.133-8.533 4.267-14.933 4.267-19.2 0-36.267-17.067-36.267-59.733 0-40.533 14.933-57.6 36.267-57.6 6.4 0 12.8 2.133 17.067 2.133l2.133-27.733zM558.933 217.6c-6.4 0-10.667 4.267-10.667 10.667v128c0 6.4 4.267 10.667 10.667 10.667h128c6.4 0 10.667-4.267 10.667-10.667s-4.267-10.667-10.667-10.667h-117.333v-117.333c0-4.267-6.4-10.667-10.667-10.667v0zM558.933 206.933h-221.867c-12.8 0-21.333 8.533-21.333 21.333v128c0 12.8 8.533 21.333 21.333 21.333s21.333-8.533 21.333-21.333v-106.667h189.867l115.2 115.2v281.6h-326.4c-12.8 0-21.333 8.533-21.333 21.333s8.533 21.333 21.333 21.333h347.733c12.8 0 21.333-8.533 21.333-21.333v-309.333c0-6.4-2.133-10.667-6.4-14.933l-128-128c-2.133-6.4-8.533-8.533-12.8-8.533v0z" />
<glyph unicode="&#xe63e;" glyph-name="ico_black_65" d="M386.133 428.8l-10.667 32c-4.267 10.667-6.4 19.2-8.533 29.867v0c-2.133-10.667-6.4-21.333-8.533-32l-8.533-32h-34.133l32 87.467-32 83.2h34.133l10.667-32c2.133-8.533 4.267-17.067 8.533-27.733v0c2.133 10.667 4.267 19.2 6.4 27.733l8.533 32h34.133l-32-85.333 34.133-87.467h-34.133zM422.4 601.6h34.133v-145.067h44.8v-27.733h-76.8v172.8zM503.467 462.933c6.4-4.267 19.2-6.4 27.733-6.4 14.933 0 23.467 8.533 23.467 19.2 0 12.8-8.533 19.2-21.333 27.733-23.467 14.933-32 32-32 49.067 0 27.733 19.2 51.2 53.333 51.2 10.667 0 21.333-4.267 27.733-6.4l-6.4-29.867c-4.267 2.133-12.8 6.4-21.333 6.4-14.933 0-21.333-8.533-21.333-17.067 0-10.667 4.267-14.933 23.467-27.733 23.467-12.8 32-32 32-49.067 0-32-23.467-51.2-57.6-51.2-12.8 0-27.733 4.267-32 6.4l4.267 27.733zM558.933 217.6c-6.4 0-10.667 4.267-10.667 10.667v128c0 6.4 4.267 10.667 10.667 10.667h128c6.4 0 10.667-4.267 10.667-10.667s-4.267-10.667-10.667-10.667h-117.333v-117.333c0-4.267-6.4-10.667-10.667-10.667v0zM558.933 206.933h-221.867c-12.8 0-21.333 8.533-21.333 21.333v128c0 12.8 8.533 21.333 21.333 21.333s21.333-8.533 21.333-21.333v-106.667h189.867l115.2 115.2v281.6h-326.4c-12.8 0-21.333 8.533-21.333 21.333s8.533 21.333 21.333 21.333h347.733c12.8 0 21.333-8.533 21.333-21.333v-309.333c0-6.4-2.133-10.667-6.4-14.933l-128-128c-2.133-6.4-8.533-8.533-12.8-8.533v0z" />
<glyph unicode="&#xe63f;" glyph-name="ico_black_63" d="M330.667 597.333c10.667 2.133 23.467 4.267 36.267 4.267 19.2 0 34.133-2.133 46.933-12.8 10.667-8.533 12.8-21.333 12.8-36.267 0-19.2-8.533-34.133-25.6-42.667v0c12.8-4.267 17.067-14.933 21.333-34.133s8.533-40.533 10.667-46.933h-34.133c-2.133 4.267-6.4 21.333-8.533 40.533-2.133 21.333-8.533 27.733-19.2 27.733h-4.267v-68.267h-34.133v168.533zM364.8 522.667h6.4c14.933 0 23.467 12.8 23.467 27.733s-6.4 25.6-21.333 25.6c-2.133 0-6.4 0-8.533 0v-53.333zM467.2 467.2l-8.533-38.4h-32l38.4 172.8h40.533l34.133-172.8h-32l-6.4 38.4h-34.133zM494.933 492.8l-6.4 36.267c-2.133 10.667-4.267 27.733-6.4 38.4v0c-2.133-10.667-4.267-29.867-6.4-38.4l-6.4-36.267h25.6zM544 597.333c10.667 2.133 23.467 4.267 36.267 4.267 19.2 0 34.133-2.133 46.933-12.8 10.667-8.533 12.8-21.333 12.8-36.267 0-19.2-8.533-34.133-25.6-42.667v0c12.8-4.267 17.067-14.933 21.333-34.133s8.533-40.533 10.667-46.933h-34.133c-2.133 4.267-6.4 21.333-8.533 40.533-2.133 21.333-8.533 27.733-19.2 27.733h-8.533v-68.267h-34.133v168.533zM576 522.667h6.4c14.933 0 23.467 12.8 23.467 27.733s-6.4 25.6-21.333 25.6c-2.133 0-6.4 0-8.533 0v-53.333zM558.933 217.6c-6.4 0-10.667 4.267-10.667 10.667v128c0 6.4 4.267 10.667 10.667 10.667h128c6.4 0 10.667-4.267 10.667-10.667s-4.267-10.667-10.667-10.667h-117.333v-117.333c0-4.267-6.4-10.667-10.667-10.667v0zM558.933 206.933h-221.867c-12.8 0-21.333 8.533-21.333 21.333v128c0 12.8 8.533 21.333 21.333 21.333s21.333-8.533 21.333-21.333v-106.667h189.867l115.2 115.2v281.6h-326.4c-12.8 0-21.333 8.533-21.333 21.333s8.533 21.333 21.333 21.333h347.733c12.8 0 21.333-8.533 21.333-21.333v-309.333c0-6.4-2.133-10.667-6.4-14.933l-128-128c-2.133-6.4-8.533-8.533-12.8-8.533v0z" />
<glyph unicode="&#xe640;" glyph-name="ico_black_62" d="M320 448l55.467 123.733h-49.067v29.867h87.467v-25.6l-51.2-117.333h51.2v-29.867h-93.867v19.2zM450.133 601.6v-172.8h-34.133v172.8h34.133zM467.2 597.333c8.533 2.133 21.333 4.267 34.133 4.267 19.2 0 36.267-2.133 46.933-12.8 10.667-8.533 14.933-23.467 14.933-38.4 0-19.2-6.4-32-14.933-40.533-10.667-10.667-27.733-17.067-42.667-17.067-2.133 0-4.267 0-6.4 0v-64h-34.133v168.533zM501.333 520.533c2.133 0 4.267 0 6.4 0 17.067 0 23.467 12.8 23.467 27.733s-6.4 27.733-21.333 27.733c-2.133 0-6.4 0-8.533-2.133v-53.333zM558.933 217.6c-6.4 0-10.667 4.267-10.667 10.667v128c0 6.4 4.267 10.667 10.667 10.667h128c6.4 0 10.667-4.267 10.667-10.667s-4.267-10.667-10.667-10.667h-117.333v-117.333c0-4.267-6.4-10.667-10.667-10.667v0zM558.933 206.933h-221.867c-12.8 0-21.333 8.533-21.333 21.333v128c0 12.8 8.533 21.333 21.333 21.333s21.333-8.533 21.333-21.333v-106.667h189.867l115.2 115.2v281.6h-326.4c-12.8 0-21.333 8.533-21.333 21.333s8.533 21.333 21.333 21.333h347.733c12.8 0 21.333-8.533 21.333-21.333v-309.333c0-6.4-2.133-10.667-6.4-14.933l-128-128c-2.133-6.4-8.533-8.533-12.8-8.533v0z" />
<glyph unicode="&#xe641;" glyph-name="ico_black_66" d="M330.667 576c8.533 2.133 21.333 4.267 34.133 4.267 19.2 0 36.267-2.133 46.933-12.8 10.667-8.533 14.933-23.467 14.933-38.4 0-19.2-6.4-32-14.933-40.533-10.667-10.667-27.733-17.067-42.667-17.067-2.133 0-4.267 0-6.4 0v-64h-34.133v168.533zM364.8 499.2c2.133 0 4.267 0 6.4 0 17.067 0 23.467 12.8 23.467 27.733s-6.4 27.733-21.333 27.733c-2.133 0-6.4 0-8.533-2.133v-53.333zM435.2 576c8.533 2.133 21.333 4.267 34.133 4.267 21.333 0 36.267-4.267 46.933-14.933 14.933-12.8 23.467-36.267 23.467-70.4s-8.533-59.733-23.467-72.533c-12.8-10.667-27.733-17.067-53.333-17.067-10.667 0-21.333 0-27.733 2.133v168.533zM469.333 433.067c2.133 0 4.267 0 6.4 0 17.067 0 29.867 14.933 29.867 64 0 36.267-8.533 57.6-29.867 57.6-2.133 0-4.267 0-6.4 0v-121.6zM548.267 580.267h74.667v-29.867h-40.533v-44.8h38.4v-27.733h-38.4v-70.4h-34.133v172.8zM558.933 217.6c-6.4 0-10.667 4.267-10.667 10.667v128c0 6.4 4.267 10.667 10.667 10.667h128c6.4 0 10.667-4.267 10.667-10.667s-4.267-10.667-10.667-10.667h-117.333v-117.333c0-4.267-6.4-10.667-10.667-10.667v0zM558.933 206.933h-221.867c-12.8 0-21.333 8.533-21.333 21.333v128c0 12.8 8.533 21.333 21.333 21.333s21.333-8.533 21.333-21.333v-106.667h189.867l115.2 115.2v281.6h-326.4c-12.8 0-21.333 8.533-21.333 21.333s8.533 21.333 21.333 21.333h347.733c12.8 0 21.333-8.533 21.333-21.333v-309.333c0-6.4-2.133-10.667-6.4-14.933l-128-128c-2.133-6.4-8.533-8.533-12.8-8.533v0z" />
<glyph unicode="&#xe642;" glyph-name="ico_black_68" d="M330.667 597.333c8.533 2.133 21.333 4.267 34.133 4.267 19.2 0 36.267-2.133 46.933-12.8 10.667-8.533 14.933-23.467 14.933-38.4 0-19.2-6.4-32-14.933-40.533-10.667-10.667-27.733-17.067-42.667-17.067-2.133 0-4.267 0-6.4 0v-64h-34.133v168.533zM364.8 520.533c2.133 0 4.267 0 6.4 0 17.067 0 23.467 12.8 23.467 27.733s-6.4 27.733-21.333 27.733c-2.133 0-6.4 0-8.533-2.133v-53.333zM435.2 428.8v172.8h29.867l25.6-68.267c6.4-12.8 12.8-36.267 19.2-51.2v0c0 17.067-4.267 49.067-4.267 78.933v38.4h29.867v-172.8h-29.867l-25.6 66.133c-6.4 14.933-12.8 36.267-17.067 51.2v0c0-17.067 2.133-44.8 2.133-78.933v-38.4h-29.867zM650.667 433.067c-6.4-2.133-23.467-6.4-36.267-6.4-19.2 0-34.133 6.4-46.933 17.067-14.933 14.933-23.467 40.533-21.333 70.4 0 61.867 36.267 89.6 72.533 89.6 12.8 0 23.467-2.133 27.733-4.267l-6.4-29.867c-4.267 2.133-10.667 4.267-19.2 4.267-23.467 0-40.533-14.933-40.533-59.733 0-42.667 17.067-57.6 32-57.6 2.133 0 6.4 0 6.4 0v40.533h-14.933v27.733h46.933v-91.733zM558.933 217.6c-6.4 0-10.667 4.267-10.667 10.667v128c0 6.4 4.267 10.667 10.667 10.667h128c6.4 0 10.667-4.267 10.667-10.667s-4.267-10.667-10.667-10.667h-117.333v-117.333c0-4.267-6.4-10.667-10.667-10.667v0zM558.933 206.933h-221.867c-12.8 0-21.333 8.533-21.333 21.333v128c0 12.8 8.533 21.333 21.333 21.333s21.333-8.533 21.333-21.333v-106.667h189.867l115.2 115.2v281.6h-326.4c-12.8 0-21.333 8.533-21.333 21.333s8.533 21.333 21.333 21.333h347.733c12.8 0 21.333-8.533 21.333-21.333v-309.333c0-6.4-2.133-10.667-6.4-14.933l-128-128c-2.133-6.4-8.533-8.533-12.8-8.533v0z" />
<glyph unicode="&#xe643;" glyph-name="ico_black_69" d="M558.933 217.6c-6.4 0-10.667 4.267-10.667 10.667v128c0 6.4 4.267 10.667 10.667 10.667h128c6.4 0 10.667-4.267 10.667-10.667s-4.267-10.667-10.667-10.667h-117.333v-117.333c0-4.267-6.4-10.667-10.667-10.667v0zM558.933 206.933h-221.867c-12.8 0-21.333 8.533-21.333 21.333v128c0 12.8 8.533 21.333 21.333 21.333s21.333-8.533 21.333-21.333v-106.667h189.867l115.2 115.2v281.6h-326.4c-12.8 0-21.333 8.533-21.333 21.333s8.533 21.333 21.333 21.333h347.733c12.8 0 21.333-8.533 21.333-21.333v-309.333c0-6.4-2.133-10.667-6.4-14.933l-128-128c-2.133-6.4-8.533-8.533-12.8-8.533v0zM403.2 503.467h-38.4v-46.933h44.8v-29.867h-76.8v172.8h72.533v-29.867h-40.533v-40.533h38.4v-25.6zM488.533 428.8l-10.667 32c-4.267 10.667-6.4 19.2-8.533 29.867v0c-2.133-10.667-6.4-21.333-8.533-32l-8.533-32h-34.133l32 87.467-32 83.2h34.133l10.667-32c2.133-8.533 4.267-17.067 8.533-27.733v0c2.133 10.667 4.267 19.2 6.4 27.733l8.533 32h34.133l-32-85.333 34.133-87.467h-34.133zM608 503.467h-38.4v-46.933h44.8v-29.867h-76.8v172.8h74.667v-29.867h-40.533v-40.533h38.4v-25.6z" />
<glyph unicode="&#xe644;" glyph-name="ico_black_67" d="M345.6 601.6h34.133v-117.333c0-49.067-23.467-57.6-49.067-57.6-6.4 0-12.8 0-17.067 2.133l2.133 27.733c2.133 0 6.4-2.133 10.667-2.133 10.667 0 17.067 4.267 17.067 25.6v121.6zM394.667 597.333c8.533 2.133 21.333 4.267 34.133 4.267 19.2 0 36.267-2.133 46.933-12.8 10.667-8.533 14.933-23.467 14.933-38.4 0-19.2-6.4-32-14.933-40.533-10.667-10.667-27.733-17.067-42.667-17.067-2.133 0-4.267 0-6.4 0v-64h-34.133v168.533zM428.8 520.533c2.133 0 4.267 0 6.4 0 17.067 0 23.467 12.8 23.467 27.733s-6.4 27.733-21.333 27.733c-2.133 0-6.4 0-8.533-2.133v-53.333zM595.2 433.067c-6.4-2.133-23.467-6.4-36.267-6.4-19.2 0-34.133 6.4-46.933 17.067-14.933 14.933-23.467 40.533-21.333 70.4 0 61.867 36.267 89.6 72.533 89.6 12.8 0 23.467-2.133 27.733-4.267l-6.4-29.867c-4.267 2.133-10.667 4.267-19.2 4.267-23.467 0-40.533-14.933-40.533-59.733 0-42.667 17.067-57.6 32-57.6 2.133 0 6.4 0 6.4 0v40.533h-14.933v27.733h46.933v-91.733zM558.933 217.6c-6.4 0-10.667 4.267-10.667 10.667v128c0 6.4 4.267 10.667 10.667 10.667h128c6.4 0 10.667-4.267 10.667-10.667s-4.267-10.667-10.667-10.667h-117.333v-117.333c0-4.267-6.4-10.667-10.667-10.667v0zM558.933 206.933h-221.867c-12.8 0-21.333 8.533-21.333 21.333v128c0 12.8 8.533 21.333 21.333 21.333s21.333-8.533 21.333-21.333v-106.667h189.867l115.2 115.2v281.6h-326.4c-12.8 0-21.333 8.533-21.333 21.333s8.533 21.333 21.333 21.333h347.733c12.8 0 21.333-8.533 21.333-21.333v-309.333c0-6.4-2.133-10.667-6.4-14.933l-128-128c-2.133-6.4-8.533-8.533-12.8-8.533v0z" />
<glyph unicode="&#xe645;" glyph-name="ico_black_71" d="M512 614.4c-12.8 0-21.333 8.533-21.333 21.333 0 32 27.733 59.733 59.733 59.733h140.8c12.8 0 21.333-8.533 21.333-21.333s-8.533-21.333-21.333-21.333h-140.8c-8.533 0-17.067-8.533-17.067-17.067 0-12.8-8.533-21.333-21.333-21.333v0zM512 219.733c-12.8 0-21.333 8.533-21.333 21.333 0 32 27.733 59.733 59.733 59.733h140.8c12.8 0 21.333-8.533 21.333-21.333s-8.533-21.333-21.333-21.333h-140.8c-8.533 0-17.067-8.533-17.067-17.067 0-10.667-8.533-21.333-21.333-21.333v0zM514.133 614.4c-12.8 0-21.333 8.533-21.333 21.333 0 8.533-8.533 17.067-17.067 17.067h-142.933c-12.8 0-21.333 8.533-21.333 21.333s8.533 21.333 21.333 21.333h142.933c32 0 59.733-27.733 59.733-59.733 0-12.8-10.667-21.333-21.333-21.333v0zM514.133 219.733c-12.8 0-21.333 8.533-21.333 21.333 0 8.533-8.533 17.067-17.067 17.067h-142.933c-12.8 0-21.333 8.533-21.333 21.333s8.533 21.333 21.333 21.333h142.933c32 0 59.733-27.733 59.733-59.733 0-10.667-10.667-21.333-21.333-21.333v0zM330.667 258.133c-12.8 0-21.333 8.533-21.333 21.333v394.667c0 12.8 8.533 21.333 21.333 21.333s21.333-8.533 21.333-21.333v-392.533c0-12.8-8.533-23.467-21.333-23.467v0zM693.333 258.133c-12.8 0-21.333 8.533-21.333 21.333v394.667c0 12.8 8.533 21.333 21.333 21.333s21.333-8.533 21.333-21.333v-392.533c0-12.8-10.667-23.467-21.333-23.467v0zM512 228.267c-12.8 0-21.333 8.533-21.333 21.333v392.533c0 12.8 8.533 21.333 21.333 21.333s21.333-8.533 21.333-21.333v-392.533c0-12.8-8.533-21.333-21.333-21.333v0zM746.667 200.533h-409.6c-12.8 0-21.333 8.533-21.333 21.333s8.533 21.333 21.333 21.333h392.533v409.6c0 12.8 8.533 21.333 21.333 21.333s21.333-8.533 21.333-21.333v-426.667c0-12.8-10.667-25.6-25.6-25.6v0zM686.933 200.533h-409.6c-14.933 0-25.6 12.8-25.6 25.6v426.667c0 12.8 8.533 21.333 21.333 21.333s21.333-8.533 21.333-21.333v-409.6h392.533c12.8 0 21.333-8.533 21.333-21.333 0-10.667-10.667-21.333-21.333-21.333v0z" />
<glyph unicode="&#xe646;" glyph-name="ico_black_61" d="M512 524.8c-6.4 0-10.667 2.133-14.933 6.4s-6.4 8.533-6.4 17.067c0 6.4 2.133 10.667 6.4 14.933s10.667 6.4 14.933 6.4c6.4 0 10.667-2.133 14.933-6.4s6.4-8.533 6.4-17.067c0-6.4-2.133-12.8-6.4-14.933-4.267-4.267-8.533-6.4-14.933-6.4zM533.333 477.867v-128c0-8.533-2.133-14.933-6.4-19.2s-8.533-6.4-17.067-6.4c-6.4 0-10.667 2.133-14.933 6.4s-6.4 10.667-6.4 19.2v125.867c0 8.533 2.133 14.933 6.4 19.2s8.533 6.4 14.933 6.4c6.4 0 12.8-2.133 17.067-6.4 4.267-2.133 6.4-8.533 6.4-17.067zM512 192c-68.267 0-132.267 25.6-181.333 74.667s-74.667 113.067-74.667 181.333 27.733 132.267 74.667 181.333c49.067 49.067 113.067 74.667 181.333 74.667s132.267-25.6 181.333-74.667c100.267-100.267 100.267-262.4 0-362.667-49.067-49.067-113.067-74.667-181.333-74.667v0zM512 661.333c-57.6 0-110.933-21.333-149.333-61.867-40.533-40.533-61.867-93.867-61.867-149.333 0-57.6 21.333-110.933 61.867-149.333 40.533-40.533 93.867-61.867 149.333-61.867 57.6 0 110.933 21.333 151.467 61.867 83.2 83.2 83.2 217.6 0 300.8-40.533 36.267-93.867 59.733-151.467 59.733v0z" />
<glyph unicode="&#xe647;" glyph-name="ico_black_75" d="M768 420.267c0 44.8-36.267 81.067-81.067 87.467-17.067 76.8-89.6 136.533-174.933 136.533s-155.733-57.6-174.933-136.533c-46.933-6.4-81.067-42.667-81.067-87.467 0-49.067 42.667-87.467 96-87.467 0 0 2.133 0 2.133 0s4.267 0 6.4 0c12.8 0 25.6 8.533 25.6 21.333v115.2c0 72.533 53.333 132.267 128 132.267s128-59.733 128-132.267v-115.2c0-2.133 4.267-2.133 4.267-2.133 0-2.133 2.133-2.133 2.133-4.267 0 0 0-14.933-10.667-27.733-8.533-8.533-21.333-14.933-40.533-14.933-6.4 8.533-17.067 14.933-27.733 14.933-19.2 0-34.133-14.933-34.133-34.133s14.933-34.133 34.133-34.133c10.667 0 19.2 4.267 25.6 10.667 32 2.133 55.467 10.667 72.533 27.733 14.933 14.933 21.333 32 23.467 44.8 42.667 6.4 76.8 42.667 76.8 85.333zM307.2 420.267c0 19.2 12.8 36.267 34.133 42.667v-85.333c-21.333 6.4-34.133 23.467-34.133 42.667zM682.667 377.6v85.333c21.333-6.4 34.133-23.467 34.133-42.667s-12.8-36.267-34.133-42.667z" />
<glyph unicode="&#xe648;" glyph-name="ico_black_76" d="M699.733 409.6h-221.867v4.267c0 17.067-8.533 29.867-21.333 38.4-6.4 2.133-12.8 4.267-17.067 4.267-8.533 0-17.067-2.133-23.467-8.533l-113.067-89.6c-10.667-8.533-17.067-21.333-17.067-34.133s6.4-25.6 17.067-34.133l113.067-89.6c6.4-6.4 14.933-8.533 23.467-8.533 6.4 0 12.8 2.133 17.067 4.267 12.8 6.4 21.333 21.333 21.333 38.4v4.267h221.867c21.333 0 40.533 19.2 40.533 42.667v85.333c0 23.467-19.2 42.667-40.533 42.667zM699.733 281.6h-262.4v-46.933l-113.067 89.6 113.067 89.6v-46.933h262.4v-85.333zM324.267 486.4h221.867v-4.267c0-17.067 8.533-29.867 21.333-38.4 6.4-2.133 12.8-4.267 17.067-4.267 8.533 0 17.067 2.133 23.467 8.533l113.067 89.6c10.667 8.533 17.067 21.333 17.067 34.133s-6.4 25.6-17.067 34.133l-113.067 89.6c-6.4 6.4-14.933 8.533-23.467 8.533-6.4 0-12.8-2.133-17.067-4.267-12.8-6.4-21.333-21.333-21.333-38.4v-4.267h-221.867c-21.333 0-40.533-19.2-40.533-42.667v-85.333c0-23.467 19.2-42.667 40.533-42.667zM324.267 614.4h262.4v46.933l113.067-89.6-113.067-89.6v46.933h-262.4v85.333z" />
<glyph unicode="&#xe649;" glyph-name="ico_black_77" d="M652.8 204.8c-72.533 0-132.267 59.733-132.267 132.267s59.733 132.267 132.267 132.267c72.533 0 132.267-59.733 132.267-132.267s-59.733-132.267-132.267-132.267v0zM652.8 450.133c-61.867 0-110.933-49.067-110.933-110.933s49.067-110.933 110.933-110.933c61.867 0 110.933 49.067 110.933 110.933 0 59.733-49.067 110.933-110.933 110.933v0zM631.467 262.4c-6.4 0-10.667 2.133-14.933 6.4l-34.133 36.267c-8.533 8.533-8.533 21.333 0 29.867s21.333 8.533 29.867 0l19.2-19.2 61.867 74.667c8.533 8.533 21.333 10.667 29.867 2.133s10.667-21.333 2.133-29.867l-76.8-93.867c-4.267-4.267-10.667-6.4-17.067-6.4 0 0 0 0 0 0v0zM616.533 576c-12.8 0-21.333 8.533-21.333 21.333v70.4c0 12.8 8.533 21.333 21.333 21.333s21.333-8.533 21.333-21.333v-70.4c0-10.667-8.533-21.333-21.333-21.333v0zM345.6 576c-12.8 0-21.333 8.533-21.333 21.333v70.4c0 12.8 8.533 21.333 21.333 21.333s21.333-8.533 21.333-21.333v-70.4c0-10.667-10.667-21.333-21.333-21.333v0zM697.6 507.733h-435.2c-6.4 0-10.667 4.267-10.667 10.667s4.267 10.667 10.667 10.667h433.067c6.4 0 10.667-4.267 10.667-10.667 2.133-6.4-2.133-10.667-8.533-10.667v0zM360.533 465.067h-42.667v-42.667h42.667v42.667zM430.933 465.067h-40.533v-42.667h40.533v42.667zM503.467 465.067h-40.533v-42.667h40.533v42.667zM576 465.067h-42.667v-42.667h42.667v42.667zM360.533 396.8h-42.667v-40.533h42.667v40.533zM430.933 396.8h-40.533v-40.533h40.533v40.533zM503.467 396.8h-40.533v-40.533h40.533v40.533zM541.867 264.533h-281.6c-12.8 0-21.333 8.533-21.333 21.333v347.733c0 12.8 8.533 21.333 21.333 21.333h437.333c12.8 0 21.333-8.533 21.333-21.333v-181.333h-42.667v160h-394.667v-305.067h260.267v-42.667z" />
<glyph unicode="&#xe64a;" glyph-name="ico_black_78" d="M520.533 672h34.133l-27.733-21.333 10.667-34.133-27.733 21.333-27.733-21.333 10.667 34.133-27.733 21.333h34.133l10.667 32 10.667-32zM522.667 243.2h36.267l-27.733-19.2 10.667-32-29.867 19.2-27.733-19.2 10.667 32-27.733 19.2h34.133l10.667 32 10.667-32zM633.6 273.067h36.267l-29.867-21.333 10.667-32-27.733 19.2-27.733-19.2 10.667 32-27.733 19.2h34.133l10.667 32 10.667-29.867zM633.6 642.133h36.267l-29.867-19.2 10.667-32-27.733 19.2-27.733-19.2 10.667 32-27.733 19.2h34.133l10.667 32 10.667-32zM716.8 565.333h36.267l-27.733-19.2 10.667-32-27.733 19.2-29.867-21.333 10.667 32-27.733 21.333h34.133l10.667 32 10.667-32zM716.8 349.867h36.267l-27.733-19.2 10.667-32-27.733 19.2-29.867-19.2 10.667 32-27.733 19.2h34.133l10.667 32 10.667-32zM748.8 458.667h36.267l-27.733-19.2 10.667-32-29.867 19.2-27.733-19.2 10.667 32-27.733 19.2h34.133l10.667 32 10.667-32zM407.467 642.133h34.133l-27.733-19.2 10.667-32-27.733 19.2-27.733-19.2 10.667 32-27.733 19.2h34.133l10.667 32 10.667-32zM326.4 565.333h36.267l-27.733-19.2 10.667-32-27.733 19.2-29.867-21.333 10.667 32-27.733 19.2h34.133l10.667 32 10.667-29.867zM296.533 458.667h36.267l-27.733-19.2 10.667-32-29.867 19.2-27.733-19.2 10.667 32-27.733 19.2h34.133l10.667 32 10.667-32zM326.4 349.867h36.267l-27.733-19.2 10.667-32-27.733 19.2-27.733-19.2 10.667 32-27.733 19.2h34.133l10.667 32 8.533-32zM409.6 273.067h34.133l-27.733-19.2 10.667-32-27.733 19.2-27.733-19.2 10.667 32-27.733 19.2h34.133l10.667 32 10.667-32z" />
<glyph unicode="&#xe64b;" glyph-name="ico_black_73" d="M635.733 198.4h-302.933c-46.933 0-85.333 38.4-85.333 85.333v25.6c0 46.933 38.4 85.333 85.333 85.333h302.933c12.8 0 21.333-8.533 21.333-21.333s-8.533-21.333-21.333-21.333h-302.933c-23.467 0-42.667-19.2-42.667-42.667v-25.6c0-23.467 19.2-42.667 42.667-42.667h302.933c12.8 0 21.333-8.533 21.333-21.333 0-10.667-10.667-21.333-21.333-21.333v0zM277.333 320c-4.267 0-8.533 2.133-12.8 4.267-8.533 6.4-10.667 21.333-4.267 29.867l34.133 42.667c6.4 8.533 21.333 10.667 29.867 4.267s10.667-21.333 4.267-29.867l-34.133-42.667c-4.267-6.4-10.667-8.533-17.067-8.533v0zM640 198.4c-4.267 0-8.533 2.133-12.8 4.267-8.533 6.4-10.667 21.333-4.267 29.867l113.067 140.8c6.4 8.533 21.333 10.667 29.867 4.267s10.667-21.333 4.267-29.867l-113.067-140.8c-4.267-4.267-10.667-8.533-17.067-8.533v0zM635.733 352c-4.267 0-10.667 2.133-12.8 4.267-8.533 8.533-10.667 21.333-2.133 29.867l119.467 142.933c8.533 8.533 21.333 10.667 29.867 2.133s10.667-21.333 2.133-29.867l-119.467-142.933c-4.267-4.267-10.667-6.4-17.067-6.4v0zM620.8 307.2h-290.133c-6.4 0-10.667 4.267-10.667 10.667s4.267 10.667 10.667 10.667h290.133c6.4 0 10.667-4.267 10.667-10.667s-4.267-10.667-10.667-10.667v0zM620.8 266.667h-290.133c-6.4 0-10.667 4.267-10.667 10.667s4.267 10.667 10.667 10.667h290.133c6.4 0 10.667-4.267 10.667-10.667s-4.267-10.667-10.667-10.667v0zM635.733 358.4h-302.933c-46.933 0-85.333 38.4-85.333 85.333v25.6c0 46.933 38.4 85.333 85.333 85.333h302.933c12.8 0 21.333-8.533 21.333-21.333s-8.533-21.333-21.333-21.333h-302.933c-23.467 0-42.667-19.2-42.667-42.667v-25.6c0-23.467 19.2-42.667 42.667-42.667h302.933c12.8 0 21.333-8.533 21.333-21.333 0-10.667-10.667-21.333-21.333-21.333v0zM390.4 618.667c-4.267 0-8.533 2.133-12.8 4.267-8.533 6.4-10.667 21.333-4.267 29.867 14.933 21.333 36.267 46.933 74.667 44.8h307.2c12.8 0 21.333-8.533 21.333-21.333s-8.533-21.333-21.333-21.333h-307.2c-17.067 0-23.467-6.4-40.533-27.733-4.267-6.4-10.667-8.533-17.067-8.533v0zM277.333 480c-4.267 0-8.533 2.133-12.8 4.267-8.533 6.4-10.667 21.333-4.267 29.867l113.067 140.8c6.4 8.533 21.333 10.667 29.867 4.267s10.667-21.333 4.267-29.867l-113.067-140.8c-4.267-6.4-10.667-8.533-17.067-8.533v0zM640 358.4c-4.267 0-8.533 2.133-12.8 4.267-8.533 6.4-10.667 21.333-4.267 29.867l113.067 140.8c6.4 8.533 21.333 10.667 29.867 4.267s10.667-21.333 4.267-29.867l-113.067-140.8c-4.267-4.267-10.667-8.533-17.067-8.533v0zM635.733 512c-4.267 0-10.667 2.133-12.8 4.267-8.533 8.533-10.667 21.333-2.133 29.867l119.467 142.933c8.533 8.533 21.333 10.667 29.867 2.133s10.667-21.333 2.133-29.867l-119.467-142.933c-4.267-4.267-10.667-6.4-17.067-6.4v0zM620.8 467.2h-290.133c-6.4 0-10.667 4.267-10.667 10.667s4.267 10.667 10.667 10.667h290.133c6.4 0 10.667-4.267 10.667-10.667s-4.267-10.667-10.667-10.667v0zM620.8 426.667h-290.133c-6.4 0-10.667 4.267-10.667 10.667s4.267 10.667 10.667 10.667h290.133c6.4 0 10.667-4.267 10.667-10.667s-4.267-10.667-10.667-10.667v0z" />
<glyph unicode="&#xe64c;" glyph-name="ico_black_72" d="M661.333 185.6h-298.667c-27.733 0-49.067 21.333-49.067 49.067v398.933c0 12.8 8.533 21.333 21.333 21.333s21.333-8.533 21.333-21.333v-398.933c0-4.267 2.133-6.4 6.4-6.4h298.667c4.267 0 6.4 2.133 6.4 6.4v337.067c0 4.267-2.133 6.4-6.4 6.4-12.8 0-21.333 8.533-21.333 21.333s8.533 21.333 21.333 21.333c27.733 0 49.067-21.333 49.067-49.067v-337.067c-2.133-25.6-23.467-49.067-49.067-49.067v0zM657.067 578.133h-277.333c-36.267 0-66.133 29.867-66.133 66.133s29.867 66.133 66.133 66.133h307.2c12.8 0 21.333-8.533 21.333-21.333s-8.533-21.333-21.333-21.333h-307.2c-12.8 0-23.467-10.667-23.467-23.467s10.667-23.467 23.467-23.467h275.2c12.8 0 21.333-8.533 21.333-21.333s-8.533-21.333-19.2-21.333v0zM512 347.733c-2.133 0-6.4 0-8.533 2.133l-38.4 17.067-38.4-17.067c-6.4-2.133-14.933-2.133-19.2 2.133-6.4 4.267-10.667 10.667-10.667 17.067v209.067c0 12.8 8.533 21.333 21.333 21.333s21.333-8.533 21.333-21.333v-177.067l17.067 8.533c6.4 2.133 10.667 2.133 17.067 0l17.067-8.533v177.067c0 12.8 8.533 21.333 21.333 21.333s21.333-8.533 21.333-21.333v-209.067c0-6.4-4.267-14.933-10.667-17.067-4.267-4.267-8.533-4.267-10.667-4.267v0z" />
<glyph unicode="&#xe64d;" glyph-name="ico_black_74" d="M661.333 192c-2.133 0-6.4 0-8.533 2.133l-140.8 61.867-140.8-61.867c-6.4-2.133-14.933-2.133-21.333 2.133-4.267 4.267-8.533 10.667-8.533 17.067v424.533c0 36.267 29.867 66.133 66.133 66.133h209.067c36.267 0 66.133-29.867 66.133-66.133v-424.533c0-6.4-4.267-14.933-10.667-17.067-2.133-2.133-6.4-4.267-10.667-4.267v0zM512 300.8c2.133 0 6.4 0 8.533-2.133l119.467-51.2v390.4c0 12.8-10.667 23.467-23.467 23.467h-209.067c-12.8 0-23.467-10.667-23.467-23.467v-390.4l119.467 51.2c2.133 2.133 6.4 2.133 8.533 2.133v0z" />
<glyph unicode="&#xe64e;" glyph-name="ico_black_79" d="M703.957 239.381h-136.448c-11.797 0-21.333 9.557-21.333 21.333v134.485h-68.373v-134.485c0-11.776-9.536-21.333-21.333-21.333h-136.469c-11.797 0-21.333 9.557-21.333 21.333v221.589c0 11.776 9.536 21.333 21.333 21.333s21.333-9.557 21.333-21.333v-200.256h93.781v134.485c0 11.776 9.536 21.333 21.333 21.333h111.040c11.797 0 21.333-9.557 21.333-21.333v-134.485h93.781v200.256c0 11.776 9.536 21.333 21.333 21.333s21.333-9.557 21.333-21.333v-221.589c0.021-11.776-9.515-21.333-21.312-21.333v0zM768.256 430.4c-4.288 0-8.619 1.301-12.373 3.989l-243.883 174.656-243.883-174.656c-9.536-6.869-22.912-4.651-29.781 4.928-6.827 9.579-4.629 22.912 4.949 29.76l256.299 183.531c7.424 5.312 17.408 5.312 24.832 0l256.299-183.531c9.579-6.848 11.797-20.181 4.907-29.76-4.16-5.824-10.709-8.917-17.365-8.917v0z" />
<glyph unicode="&#xe64f;" glyph-name="ico_black_80" d="M512.021 501.611c-11.797 0-21.333 9.557-21.333 21.333v155.2c0 11.776 9.536 21.333 21.333 21.333s21.333-9.557 21.333-21.333v-155.2c0-11.776-9.536-21.333-21.333-21.333v0zM512.021 196.523c-123.584 0-224.085 100.501-224.085 224.064 0 95.104 60.459 180.075 150.421 211.413 11.157 3.904 23.296-2.005 27.157-13.12 3.883-11.136-2.005-23.296-13.12-27.157-72.832-25.365-121.792-94.144-121.792-171.115 0-100.032 81.365-181.397 181.419-181.397 100.011 0 181.376 81.365 181.376 181.397 0 76.971-48.917 145.749-121.792 171.115-11.115 3.883-17.003 16.043-13.12 27.157s16 17.003 27.157 13.12c89.963-31.339 150.421-116.309 150.421-211.413 0-123.563-100.501-224.064-224.043-224.064v0z" />
<glyph unicode="&#xe650;" glyph-name="ico_black_81" d="M403.584 286.208c-89.216 0-161.792 72.576-161.792 161.792s72.576 161.792 161.792 161.792c57.216 0 110.549-30.997 139.413-80h157.461c45.077 0 81.749-36.693 81.749-81.792 0-40.64-30.507-75.349-70.869-80.768l-10.453-1.387-7.467 7.445-14.208 16.128-28.373-32.363-28.373 32.341-19.584-22.251-10.411-0.917h-49.451c-28.885-49.024-82.219-80.021-139.435-80.021v0zM403.584 567.125c-65.707 0-119.125-53.44-119.125-119.125s53.419-119.125 119.125-119.125c45.504 0 87.616 26.645 107.371 67.883l5.781 12.117h66.048l39.659 45.163 28.373-32.32 28.373 32.32 36.629-41.707c14.037 6.016 23.701 19.925 23.701 35.669 0 21.568-17.536 39.125-39.083 39.125h-183.701l-5.781 12.117c-19.755 41.237-61.867 67.883-107.371 67.883v0zM363.541 478.208c-16.704 0-30.208-13.525-30.208-30.208s13.504-30.208 30.208-30.208 30.208 13.525 30.208 30.208-13.504 30.208-30.208 30.208v0z" />
<glyph unicode="&#xe651;" glyph-name="ico_black_82" d="M704 191.125h-384c-23.552 0-42.667 19.136-42.667 42.667v227.563c0 23.531 19.115 42.667 42.667 42.667h384c23.509 0 42.667-19.136 42.667-42.667v-227.563c0-23.531-19.157-42.667-42.667-42.667v0zM320 461.355v-227.563h384v227.563h-384zM648.875 466.603c-11.797 0-21.333 9.557-21.333 21.333v58.731c0 63.723-51.84 115.563-115.541 115.563-63.744 0-115.584-51.84-115.584-115.563v-58.731c0-11.776-9.536-21.333-21.333-21.333s-21.333 9.557-21.333 21.333v58.731c0 87.253 70.997 158.229 158.251 158.229 87.211 0 158.208-70.976 158.208-158.229v-58.731c0-11.776-9.536-21.333-21.333-21.333v0zM512 420.352c-24.576 0-44.459-19.904-44.459-44.437 0-16.768 9.365-31.211 23.083-38.763v-50.048h42.667v50.027c13.739 7.552 23.125 21.995 23.125 38.784 0 24.533-19.883 44.437-44.416 44.437v0z" />
<glyph unicode="&#xe652;" glyph-name="ico_black_83" d="M704 191.125h-384c-23.509 0-42.667 19.136-42.667 42.667v227.563c0 23.531 19.157 42.667 42.667 42.667h384c23.552 0 42.667-19.136 42.667-42.667v-227.563c0-23.531-19.115-42.667-42.667-42.667v0zM320 461.355v-227.563h384.043l-0.043 227.563h-384zM512 420.352c-24.533 0-44.459-19.904-44.459-44.437 0-16.768 9.408-31.211 23.125-38.763v-50.048h42.667v50.027c13.696 7.552 23.125 21.995 23.125 38.784 0 24.533-19.925 44.437-44.459 44.437v0zM622.571 580.117h44.011c-15.403 71.232-78.805 124.779-154.581 124.779-87.253 0-158.208-70.976-158.208-158.229v-58.731h42.667v58.731c0 63.723 51.84 115.563 115.541 115.563 52.075 0 96.192-34.667 110.571-82.112z" />
<glyph unicode="&#xe653;" glyph-name="ico_black_84" d="M480.939 270.507c-117.205 0-212.587 95.36-212.629 212.565 0.043 117.291 95.424 212.715 212.672 212.736 117.205 0 212.629-95.403 212.672-212.672 0-117.248-95.424-212.629-212.715-212.629v0zM480.981 653.141c-93.717-0.021-169.963-76.309-170.005-170.069 0.043-93.675 76.245-169.899 169.963-169.899 93.76 0 170.048 76.245 170.048 169.963-0.043 93.739-76.309 170.005-170.005 170.005v0zM361.344 483.2h-21.333c0.043 77.717 63.253 140.928 140.949 140.928v-21.333c-65.941 0-119.573-53.653-119.616-119.595v0zM734.357 200.192c-5.461 0-10.923 2.091-15.083 6.251l-118.784 118.763c-8.341 8.32-8.341 21.824 0 30.165s21.824 8.341 30.165 0l118.784-118.763c8.341-8.32 8.341-21.824 0-30.165-4.16-4.16-9.621-6.251-15.083-6.251v0z" />
</font>
</defs>
</svg>
