<svg version="1.1" id="Layer_1" xmlns="http://www.w3.org/2000/svg" xmlns:xlink="http://www.w3.org/1999/xlink" x="0" y="0" style="enable-background:new 0 0 2481 1063" xml:space="preserve" viewBox="255.3 356.2 1970.13 385.32"><style>.st0{clip-path:url(#SVGID_2_);fill:#fff}</style><defs><path id="SVGID_1_" d="M251.8 344.3h1977.8v397.2H251.8z"></path></defs><clipPath id="SVGID_2_"><use xlink:href="#SVGID_1_" style="overflow:visible"></use></clipPath><path class="st0" d="M1616.9 741.5c-2.9 0-5.4-1-7.4-3s-3-4.5-3-7.4v-78.3c0-2.9 1-5.3 3-7.4 2-2.1 4.5-3.1 7.4-3.1h65.2c2.9 0 5.3 1 7.4 3.1 2 2 3 4.5 3 7.4 0 2.9-1 5.3-3 7.4-2.1 2-4.6 3-7.4 3h-54.8v18.3h41.8c2.9 0 5.3 1 7.4 3 2 2 3.1 4.5 3.1 7.4 0 2.9-1 5.3-3.1 7.4-2.1 2-4.6 3-7.4 3h-41.8v18.3h54.8c2.9 0 5.3 1 7.4 3.1 2 2 3 4.5 3 7.4 0 2.9-1 5.4-3 7.4-2.1 2-4.6 3-7.4 3h-65.2zM1720.9 728.8c-8.4-8.4-12.7-18.5-12.7-30.4v-45.7c0-2.9 1-5.3 3-7.4 2-2.1 4.5-3.1 7.4-3.1 2.9 0 5.3 1 7.4 3.1 2 2 3 4.5 3 7.4v45.7c0 6.1 2.2 11.4 6.5 15.7 4.3 4.3 9.6 6.5 15.7 6.5s11.3-2.2 15.6-6.5c4.4-4.3 6.6-9.6 6.6-15.7v-45.7c0-2.9 1-5.3 3-7.4 2-2.1 4.5-3.1 7.4-3.1 2.9 0 5.3 1 7.4 3.1 2 2 3 4.5 3 7.4v45.7c0 11.9-4.2 22-12.7 30.4-8.4 8.4-18.5 12.7-30.4 12.7-11.7 0-21.8-4.3-30.2-12.7M1880.6 678.8c0-4.3-1.5-8-4.6-11.1-3.1-3.1-6.7-4.6-11.1-4.6h-28.7v31.4h28.7c4.3 0 8-1.5 11.1-4.6 3-3.1 4.6-6.8 4.6-11.1m-44.4 36.5V731c0 2.9-1 5.4-3 7.4s-4.5 3-7.4 3c-2.9 0-5.4-1-7.4-3s-3.1-4.5-3.1-7.4v-78.3c0-2.9 1-5.3 3.1-7.4 2-2.1 4.5-3.1 7.4-3.1h39.1c10.1 0 18.7 3.6 25.9 10.7 7.2 7.2 10.7 15.8 10.7 25.9 0 6.4-1.6 12.3-4.7 17.8-3 5.3-7.1 9.7-12.3 13l14 14c2 2 3 4.5 3 7.4 0 2.9-1 5.4-3 7.4-2.1 2-4.6 3-7.4 3-2.9 0-5.3-1-7.4-3l-23.1-23.1h-24.4zM1990.2 691.9c0-7.9-2.8-14.7-8.4-20.3-5.7-5.7-12.4-8.5-20.4-8.5s-14.7 2.8-20.3 8.5c-5.6 5.6-8.4 12.4-8.4 20.3s2.8 14.7 8.4 20.3c5.6 5.6 12.4 8.4 20.3 8.4s14.7-2.8 20.4-8.4c5.6-5.7 8.4-12.4 8.4-20.3m-78.3 0c0-13.7 4.8-25.4 14.5-35.1 9.7-9.7 21.4-14.6 35.1-14.6 13.7 0 25.4 4.9 35.1 14.6 9.7 9.7 14.6 21.4 14.6 35.1 0 13.7-4.9 25.3-14.6 35.1-9.7 9.7-21.4 14.5-35.1 14.5-13.7 0-25.3-4.8-35.1-14.5-9.7-9.8-14.5-21.5-14.5-35.1M2092 678.8c0-4.3-1.5-8-4.6-11.1-3-3.1-6.7-4.6-11.1-4.6h-28.7v31.4h28.7c4.3 0 8-1.5 11.1-4.6 3.1-3.1 4.6-6.8 4.6-11.1m-54.8 62.7c-2.9 0-5.4-1-7.4-3s-3-4.5-3-7.4v-78.3c0-2.9 1-5.3 3-7.4 2-2.1 4.5-3.1 7.4-3.1h39.1c10.1 0 18.7 3.6 25.9 10.7 7.2 7.2 10.7 15.8 10.7 25.9s-3.6 18.7-10.7 25.8c-7.2 7.2-15.8 10.7-25.9 10.7h-28.7V731c0 2.9-1 5.4-3 7.4-2.1 2-4.5 3.1-7.4 3.1M2139 741.5c-2.9 0-5.4-1-7.4-3s-3-4.5-3-7.4v-78.3c0-2.9 1-5.3 3-7.4 2-2.1 4.5-3.1 7.4-3.1h65.2c2.9 0 5.3 1 7.4 3.1 2 2 3.1 4.5 3.1 7.4 0 2.9-1 5.3-3.1 7.4-2.1 2-4.6 3-7.4 3h-54.8v18.3h41.8c2.9 0 5.3 1 7.4 3 2 2 3 4.5 3 7.4 0 2.9-1 5.3-3 7.4-2.1 2-4.6 3-7.4 3h-41.8v18.3h54.8c2.9 0 5.3 1 7.4 3.1 2 2 3.1 4.5 3.1 7.4 0 2.9-1 5.4-3.1 7.4s-4.6 3-7.4 3H2139z"></path><g><defs><path id="SVGID_3_" d="M1102.9 591.9c-.2 3.9 0 6.8 0 6.8 0 5.1 4.7 16.8 17.4 16.8 10.8 0 18.1-8.9 18.1-15.8v-7.4c0-3.6-.5-4.1-.5-4.1s-3.4 12.4-17.9 12.4c-12.1 0-16.2-12.4-16.2-12.4-.3 0-.7.2-.9 3.7M261.6 424.7c-3.5 3.6-5.3 8.1-5.3 13.5v128.6c0 5.4 1.8 9.9 5.3 13.5 3.5 3.6 8 5.4 13.4 5.4s9.9-1.8 13.4-5.4c3.5-3.6 5.3-8.1 5.3-13.5V438.3c0-5.4-1.8-9.9-5.3-13.5-3.5-3.6-8-5.4-13.4-5.4-5.4-.1-9.9 1.7-13.4 5.3m129.7-.4c-9 5.4-16.3 11.8-21.9 19.3v-5.3c0-5.4-1.8-9.9-5.3-13.5-3.5-3.6-8-5.4-13.4-5.4s-9.9 1.8-13.4 5.4c-3.5 3.6-5.3 8.1-5.3 13.5v128.6c0 5.4 1.8 9.9 5.3 13.5 3.5 3.6 8 5.4 13.4 5.4s9.9-1.8 13.4-5.4c3.5-3.6 5.3-8.1 5.3-13.5v-79.7c0-10.6 3.4-19.3 10.3-26.3s16.3-10.4 28.3-10.4c11.6 0 19.8 3.3 24.6 9.8 4.8 6.5 7.2 15.5 7.2 26.9v79.7c0 5.4 1.8 9.9 5.3 13.5 3.5 3.6 8 5.4 13.4 5.4s9.8-1.8 13.4-5.4c3.5-3.6 5.3-8.1 5.3-13.5v-79.7c0-22.2-4-39.6-12.1-52.1-8.1-12.6-22.7-18.8-43.9-18.8-11-.1-20.9 2.6-29.9 8m322.6 26.1c9.8 0 18.5 3.1 26.1 9.3 7.7 6.2 11.9 13.7 12.8 22.4v2.2h-81.6c4.4-22.6 18.7-33.9 42.7-33.9m-39.2-23.5c-12.2 7.2-22.1 17.5-29.6 31s-11.2 29.2-11.2 47c0 16 3.5 30.4 10.6 43.1 7.1 12.8 17.1 22.8 30 30 13 7.3 28.2 10.9 45.6 10.9 10 0 19.8-1.7 29.6-5 9.7-3.3 17.5-7.4 23.3-12.1 5.8-4.6 8.7-9.7 8.7-15.3 0-4.2-1.6-7.8-4.7-10.9-3.1-3.1-6.8-4.7-11.2-4.7-3.3 0-6.9.9-10.6 2.8-1 .6-3 1.8-5.8 3.6s-6.6 3.4-11.4 5c-4.8 1.6-11.4 2.3-19.9 2.3-11.2 0-21.3-3.5-30.2-10.4-8.9-6.9-14.6-16.5-17.1-28.8h102.7c5 0 9.3-1.6 13.1-4.7 3.7-3.1 5.7-7.2 5.9-12.1 0-14.7-3.6-28.4-10.9-41.1-7.3-12.7-17-22.7-29.1-30.2-12.1-7.5-25.1-11.2-38.8-11.2-13.7.1-26.7 3.7-39 10.8m207-4c-8.9 4.5-15.8 11-20.5 19.5v-4.1c0-5.4-1.8-9.9-5.3-13.5-3.5-3.6-8-5.4-13.4-5.4s-9.9 1.8-13.4 5.4c-3.5 3.6-5.3 8.1-5.3 13.5v128.6c0 5.4 1.8 9.9 5.3 13.5 3.5 3.6 8 5.4 13.4 5.4s9.9-1.8 13.4-5.4c3.5-3.6 5.3-8.1 5.3-13.5v-73.8c0-9.3 1.6-17.4 4.8-24.1 3.2-6.7 7.3-11.8 12.3-15.1 5-3.3 10.2-5 15.6-5 2.5 0 4.8.3 7 .9 2.2.6 3.6 1 4.2 1.2 3.9 1.5 7.5 2.2 10.6 2.2 4.6 0 8.5-1.6 11.8-4.8 3.3-3.2 5-8 5-14.5 0-4.8-2.1-8.9-6.4-12.4-4.3-3.5-9.5-5.3-15.7-5.3-10.2 0-19.7 2.2-28.7 6.7m484.3 27.5c9.8 0 18.5 3.1 26.2 9.3 7.7 6.2 11.9 13.7 12.8 22.4v2.2h-81.6c4.4-22.6 18.6-33.9 42.6-33.9m-39.2-23.5c-12.2 7.2-22.1 17.5-29.6 31s-11.2 29.2-11.2 47c0 16 3.5 30.4 10.6 43.1 7.1 12.8 17.1 22.8 30 30 13 7.3 28.2 10.9 45.6 10.9 10 0 19.8-1.7 29.6-5s17.5-7.4 23.4-12.1c5.8-4.6 8.7-9.7 8.7-15.3 0-4.2-1.6-7.8-4.7-10.9-3.1-3.1-6.8-4.7-11.2-4.7-3.3 0-6.8.9-10.6 2.8-1 .6-3 1.8-5.8 3.6s-6.6 3.4-11.4 5c-4.8 1.6-11.4 2.3-19.9 2.3-11.2 0-21.3-3.5-30.2-10.4-8.9-6.9-14.6-16.5-17.1-28.8h102.7c5 0 9.3-1.6 13.1-4.7 3.7-3.1 5.7-7.2 5.9-12.1 0-14.7-3.6-28.4-10.9-41.1-7.3-12.7-17-22.7-29.1-30.2-12.1-7.5-25.1-11.2-38.8-11.2-13.8.1-26.8 3.7-39.1 10.8m207-4c-8.9 4.5-15.8 11-20.5 19.5v-4.1c0-5.4-1.8-9.9-5.3-13.5-3.5-3.6-8-5.4-13.4-5.4s-9.9 1.8-13.4 5.4c-3.5 3.6-5.3 8.1-5.3 13.5v128.6c0 5.4 1.8 9.9 5.3 13.5 3.5 3.6 8 5.4 13.4 5.4s9.9-1.8 13.4-5.4c3.5-3.6 5.3-8.1 5.3-13.5v-73.8c0-9.3 1.6-17.4 4.8-24.1 3.2-6.7 7.3-11.8 12.3-15.1 5-3.3 10.2-5 15.6-5 2.5 0 4.8.3 7 .9 2.2.6 3.6 1 4.2 1.2 3.9 1.5 7.5 2.2 10.6 2.2 4.6 0 8.5-1.6 11.8-4.8 3.3-3.2 5-8 5-14.5 0-4.8-2.1-8.9-6.4-12.4-4.3-3.5-9.5-5.3-15.7-5.3-10.2 0-19.7 2.2-28.7 6.7m112.6 117c-8.4-9.9-12.6-22.3-12.6-37.2 0-14.9 4.3-27.4 12.8-37.4s19.4-14.9 32.7-14.9c13.5 0 24.5 5 33 14.9 8.5 10 12.8 22.4 12.8 37.4 0 14.9-4.3 27.3-12.8 37.2-8.5 9.9-19.5 14.8-33 14.8-13.6 0-24.5-4.9-32.9-14.8m82.3-118.3c-3.5 3.6-5.3 8.2-5.3 13.5v.3c-6-5.6-13.4-10.2-22.1-13.9-8.7-3.6-18.1-5.4-28-5.4-13.9 0-26.6 3.7-38.1 11-11.5 7.4-20.6 17.6-27.2 30.8-6.6 13.2-10 28.1-10 44.7s3.4 31.4 10.1 44.5c6.7 13.1 15.9 23.3 27.6 30.7 11.6 7.4 24.6 11 38.9 11 9.8 0 19-2.1 27.9-6.4 8.8-4.2 15.8-9.4 21-15.4.2 5.4 2 9.9 5.4 13.4 3.4 3.5 7.8 5.3 13.2 5.3 5.4 0 9.9-1.8 13.4-5.4 3.5-3.6 5.3-8.1 5.3-13.5V435.2c0-5.6-1.8-10.2-5.3-13.7s-8-5.3-13.4-5.3-9.8 1.8-13.4 5.4m418.1 28.8c9.8 0 18.5 3.1 26.2 9.3 7.7 6.2 11.9 13.7 12.8 22.4v2.2h-81.6c4.3-22.6 18.5-33.9 42.6-33.9m-39.2-23.5c-12.2 7.2-22.1 17.5-29.6 31s-11.2 29.2-11.2 47c0 16 3.5 30.4 10.6 43.1 7 12.8 17.1 22.8 30 30 13 7.3 28.2 10.9 45.6 10.9 10 0 19.8-1.7 29.6-5s17.5-7.4 23.3-12.1c5.8-4.6 8.7-9.7 8.7-15.3 0-4.2-1.6-7.8-4.7-10.9-3.1-3.1-6.9-4.7-11.2-4.7-3.3 0-6.9.9-10.6 2.8-1 .6-3 1.8-5.8 3.6s-6.6 3.4-11.4 5c-4.8 1.6-11.4 2.3-19.9 2.3-11.2 0-21.3-3.5-30.2-10.4-8.9-6.9-14.6-16.5-17.1-28.8h102.7c5 0 9.3-1.6 13.1-4.7 3.7-3.1 5.7-7.2 5.9-12.1 0-14.7-3.6-28.4-10.9-41.1-7.3-12.7-17-22.7-29.1-30.2-12.1-7.5-25.1-11.2-38.8-11.2-13.7.1-26.8 3.7-39 10.8M1121 441s12-4.9 19.6 2.9c0 0 10.7 11.8 2.6 22.8-1.7 2.3 14.6-19.7 41-19.7 29.7 0 53.8 25.5 53.8 53 0 30.7-24.8 55.3-54.5 55.3-18 0-31.9-7.3-43.2-22.8-2.6-3.6-5.5-8.5-9.6-16.5l-1.1-2c-2.8-5.3-5.9-10.8-8.9-16.6-7-13.8-13.8-27.7-20-38-15.6-28.4-44.9-45.9-77-45.9-48.2 0-88 38.6-88 86.7s39.7 89 87.9 89c17.7 0 40-5.2 62.1-25.5 0 0-7.6 4.6-15.8 1.3-2.6-1-5.5-2.7-7.8-6-6.5-9.4-1.5-18.8-1.5-18.8-10.5 11.4-27 15.2-37.5 15.2-29.7 0-53.6-24.3-53.2-55 .4-28.6 24.1-53.2 53.8-53.2 19.5 0 38.8 12 46.1 26l3.1 5.4c5.7 9.2 10.7 19 17.5 32.4 1.9 3.7 3.7 7.3 5.5 10.8 0 0 12 24.5 20.3 34.6 4.9 5.9 13.2 13.4 13.2 13.4 15.2 12.2 33.6 19.3 54.2 19.3 26.8 0 51.4-12.1 67.6-31.5 12.9-15.5 20.4-35.8 20.4-57.2 0-48.1-39.2-86.7-87.4-86.7-33.1-.4-53.8 17.6-63.2 27.3m-581.9-52.1c-3.6 3.6-5.4 8.1-5.4 13.5v19.9h-14.3c-5 0-9.1 1.6-12.5 4.8-3.3 3.2-5 7.2-5 12 0 5 1.7 9.1 5 12.4 3.3 3.3 7.5 5 12.5 5h14.3v85.9c0 17.8 4.4 29.5 13.2 35 8.8 5.5 19.7 8.3 32.5 8.3 7.7 0 14.6-1.9 20.7-5.8 6.1-3.8 9.2-8.6 9.2-14.2 0-4.6-1.2-8.3-3.6-11.1-2.4-2.8-5-4.2-7.9-4.2-2.3 0-4.7.5-7.2 1.6-2.9.8-5.2 1.2-6.8 1.2-3.9 0-7.1-1-9.3-3-2.3-2-3.4-5.1-3.4-9.5v-84.4h22.1c5 0 9.1-1.6 12.5-4.8 3.3-3.2 5-7.2 5-12 0-5-1.7-9.1-5-12.5-3.3-3.3-7.5-5-12.5-5H571v-19.9c0-5.4-1.8-9.9-5.3-13.5-3.5-3.6-7.9-5.4-13.1-5.4-5.3.3-9.8 2.1-13.5 5.7M260 365.4c-3.1 2.3-4.7 6.3-4.7 12.1v5.9c0 5.8 1.5 9.9 4.4 12.1 2.9 2.3 7.9 3.4 14.9 3.4 7.3 0 12.4-1.1 15.4-3.3 3-2.2 4.5-6.3 4.5-12.3v-5.9c0-5.8-1.5-9.9-4.4-12.1-2.9-2.3-8-3.4-15.3-3.4-6.7.1-11.7 1.3-14.8 3.5m1589.8 174.4c-8.5-10-12.8-22.4-12.8-37.4 0-14.9 4.3-27.3 12.8-37.2 8.5-9.9 19.5-14.8 33-14.8s24.4 4.9 32.8 14.8c8.4 9.9 12.6 22.3 12.6 37.2 0 14.9-4.3 27.4-12.8 37.4s-19.4 14.9-32.7 14.9c-13.4 0-24.4-5-32.9-14.9m-35.5-183.6c-3 .8-5.6 2.4-7.8 4.7-3.5 3.6-5.3 8.1-5.3 13.5V570c0 5.6 1.8 10.2 5.3 13.7s8 5.3 13.4 5.3 9.9-1.8 13.4-5.4c3.5-3.6 5.3-8.1 5.3-13.5v-1.9c5.8 5.8 13.1 10.7 22 14.8 8.8 4 18.2 6.1 28.2 6.1 13.9 0 26.6-3.7 38.1-11 11.5-7.4 20.6-17.6 27.2-30.8 6.6-13.2 10-28.1 10-44.7s-3.4-31.4-10.1-44.5c-6.8-13.1-15.9-23.3-27.6-30.7-11.6-7.4-24.6-11-38.9-11-9.8 0-19.1 2.3-28 7-8.9 4.7-15.9 10.1-20.9 16.3v-65.1c0-5.4-1.8-9.9-5.3-13.5-2.2-2.3-4.8-3.9-7.8-4.7h-11.2zm197.4 0c-3 .8-5.6 2.4-7.9 4.7-3.6 3.6-5.4 8.1-5.4 13.5v192.4c0 5.4 1.8 9.9 5.3 13.5 3.5 3.6 7.9 5.4 13.1 5.4 5.4 0 9.9-1.8 13.5-5.4 3.6-3.6 5.4-8.1 5.4-13.5V374.5c0-5.4-1.8-9.9-5.3-13.5-2.2-2.3-4.8-3.9-7.7-4.7h-11z"></path></defs><linearGradient id="SVGID_4_" gradientUnits="userSpaceOnUse" x1="255.365" y1="485.887" x2="2225.581" y2="485.887"><stop offset="0" style="stop-color:#278ebf"></stop><stop offset=".324" style="stop-color:#44bfb8"></stop><stop offset=".37" style="stop-color:#50c1b0"></stop><stop offset=".454" style="stop-color:#70c89a"></stop><stop offset=".565" style="stop-color:#a4d377"></stop><stop offset=".624" style="stop-color:#c2d962"></stop><stop offset="1" style="stop-color:#f6921e"></stop></linearGradient><use xlink:href="#SVGID_3_" style="overflow:visible;fill:url(#SVGID_4_)"></use><clipPath id="SVGID_5_"><use xlink:href="#SVGID_3_" style="overflow:visible"></use></clipPath></g></svg>
