<svg version="1.1" id="Layer_1" xmlns="http://www.w3.org/2000/svg" x="0" y="0" viewBox="5 11.5 112 28.5" style="enable-background:new 0 0 120 50" xml:space="preserve"><style>.st2{fill:none;stroke:#fff;stroke-width:.6615;stroke-miterlimit:10}.st3{fill:#fff}</style><path class="st2" d="M16.97 17.92c0 3.1-2.51 5.61-5.61 5.61s-5.61-2.51-5.61-5.61 2.51-5.61 5.61-5.61 5.61 2.51 5.61 5.61zM14.7 34.18l4.28-1.16M20.22 26.44l-4.58-4.98M30.88 28.57l2.22-1.3M26.61 19.6h4.22v-4.27M25.49 24.56v-3.84M28.99 35.36h5.49M14.7 34.18c0 2.46-1.99 4.45-4.45 4.45S5.8 36.64 5.8 34.18s1.99-4.45 4.45-4.45 4.45 1.99 4.45 4.45zM31.06 30.71c0 3.46-2.8 6.26-6.26 6.26s-6.26-2.8-6.26-6.26 2.8-6.26 6.26-6.26a6.27 6.27 0 0 1 6.26 6.26z"/><circle class="st2" cx="25.49" cy="19.6" r="1.12"/><circle class="st2" cx="30.83" cy="14.21" r="1.12"/><path class="st2" d="M32.69 25.32c-.35 1.82.85 3.58 2.68 3.93 1.82.35 3.59-.85 3.93-2.68.35-1.82-.85-3.58-2.68-3.93-1.82-.34-3.58.86-3.93 2.68z"/><circle class="st2" cx="35.6" cy="35.35" r="1.12"/><path class="st3" d="M14.83 21.03c.02 0 .03-.01.03-.03v-.11c0-.02-.01-.03-.03-.03h-.22v-.96c0-.02-.01-.04-.04-.04h-.1c-.03 0-.06 0-.09.02l-.16.06c-.02.01-.02.03-.02.04v.06c0 .02.01.03.03.03h.18v.79h-.2c-.02 0-.03.01-.03.03V21c0 .02.01.03.03.03h.62zm-1.35-1.01c.22 0 .25.16.25.43 0 .25-.04.43-.25.43-.2 0-.23-.18-.23-.43 0-.24.03-.43.23-.43m0 1.03c.42 0 .45-.4.45-.62 0-.26-.04-.58-.45-.58-.41 0-.44.41-.44.58.01.25.03.62.44.62m-1.01-1.03c.22 0 .25.16.25.43 0 .25-.04.43-.25.43-.2 0-.23-.18-.23-.43 0-.24.03-.43.23-.43m0 1.03c.42 0 .45-.4.45-.62 0-.26-.04-.58-.45-.58-.41 0-.44.41-.44.58 0 .25.02.62.44.62m-1.01-1.03c.22 0 .25.16.25.43 0 .25-.04.43-.25.43s-.23-.18-.23-.43c-.01-.24.03-.43.23-.43m0 1.03c.42 0 .45-.4.45-.62 0-.26-.04-.58-.45-.58-.41 0-.44.41-.44.58 0 .25.02.62.44.62m-.68-.6c0 .27-.04.51-.31.51s-.3-.23-.3-.51c0-.26.03-.51.3-.51.28 0 .31.21.31.51m.1-.02c0-.28-.04-.58-.41-.58-.38 0-.4.39-.4.58 0 .27.02.62.4.62.39 0 .41-.38.41-.62m-1.05.6c.02 0 .03-.01.03-.03v-.11c0-.02-.01-.03-.03-.03h-.22v-.96c0-.02-.01-.04-.04-.04h-.1c-.03 0-.06 0-.09.02l-.16.06c-.02.01-.02.03-.02.04v.06c0 .02.01.03.03.03h.18v.79h-.2c-.02 0-.03.01-.03.03V21c0 .02.01.03.03.03h.62zm-1.35-1.01c.22 0 .25.16.25.43 0 .25-.04.43-.25.43-.2 0-.23-.18-.23-.43 0-.24.03-.43.23-.43m0 1.03c.42 0 .45-.4.45-.62 0-.26-.04-.58-.45-.58-.41 0-.44.41-.44.58 0 .25.02.62.44.62M14.72 19.25c0-.01-.01-.02-.02-.02h-.25v-1.06c0-.01 0-.02-.02-.02h-.06c-.02 0-.04 0-.05.01l-.18.05c-.01 0-.01.01-.01.02v.03c0 .01.01.02.02.02h.21v.95h-.24c-.01 0-.02 0-.02.02v.06c0 .01.01.02.02.02h.59c.01 0 .02-.01.02-.02v-.06zm-.96.08c.02 0 .03-.01.03-.03v-.11c0-.02-.01-.03-.03-.03h-.22v-.96c0-.02-.01-.04-.04-.04h-.1c-.03 0-.06 0-.09.02l-.16.06c-.02.01-.02.03-.02.04v.06c0 .02.01.03.03.03h.18v.79h-.2c-.02 0-.03.01-.03.03v.11c0 .02.01.03.03.03h.62zm-1.35-1.01c.22 0 .25.16.25.43 0 .25-.04.43-.25.43s-.23-.18-.23-.43c0-.24.03-.43.23-.43m0 1.03c.42 0 .45-.4.45-.62 0-.26-.04-.58-.45-.58-.41 0-.44.41-.44.58 0 .25.02.62.44.62m-1.01-1.03c.22 0 .25.16.25.43 0 .25-.04.43-.25.43-.2 0-.23-.18-.23-.43-.01-.24.03-.43.23-.43m0 1.03c.42 0 .45-.4.45-.62 0-.26-.04-.58-.45-.58-.41 0-.44.41-.44.58 0 .25.02.62.44.62m-.67-.1c0-.01-.01-.02-.02-.02h-.25v-1.06c0-.01 0-.02-.02-.02h-.06c-.02 0-.04 0-.05.01l-.18.05c-.01 0-.01.01-.01.02v.03c0 .01.01.02.02.02h.21v.95h-.24c-.01 0-.02 0-.02.02v.06c0 .01.01.02.02.02h.59c.01 0 .02-.01.02-.02v-.06zm-1.3-.93c.22 0 .25.16.25.43 0 .25-.04.43-.25.43-.2 0-.23-.18-.23-.43 0-.24.03-.43.23-.43m0 1.03c.42 0 .45-.4.45-.62 0-.26-.04-.58-.45-.58-.41 0-.43.41-.43.58 0 .25.02.62.43.62m-.67-.1c0-.01-.01-.02-.02-.02H8.5v-1.06c0-.01 0-.02-.02-.02h-.06c-.02 0-.04 0-.05.01l-.18.05c-.01 0-.01.01-.01.02v.03c0 .01.01.02.02.02h.2v.95h-.24c-.01 0-.02 0-.02.02v.06c0 .01.01.02.02.02h.59c.01 0 .02-.01.02-.02v-.06zM14.71 17.04c0 .27-.04.51-.31.51s-.3-.23-.3-.51c0-.26.03-.51.3-.51.28 0 .31.21.31.51m.1-.01c0-.28-.04-.58-.41-.58-.38 0-.4.39-.4.58 0 .27.02.62.4.62.39-.01.41-.38.41-.62m-1.05.6c.02 0 .03-.01.03-.03v-.11c0-.02-.01-.03-.03-.03h-.22v-.96c0-.02-.01-.04-.04-.04h-.1c-.03 0-.06 0-.09.02l-.16.06c-.02.01-.02.03-.02.04v.06c0 .02.01.03.03.03h.18v.79h-.2c-.02 0-.03.01-.03.03v.11c0 .02.01.03.03.03h.62zm-1.01-.59c0 .27-.04.51-.31.51s-.3-.23-.3-.51c0-.26.03-.51.3-.51.28 0 .31.21.31.51m.1-.01c0-.28-.04-.58-.41-.58-.38 0-.4.39-.4.58 0 .27.02.62.4.62.38-.01.41-.38.41-.62m-1.39-.41c.22 0 .25.16.25.43 0 .25-.04.43-.25.43-.2 0-.23-.18-.23-.43-.01-.24.03-.43.23-.43m0 1.02c.42 0 .45-.4.45-.62 0-.26-.04-.58-.45-.58-.41 0-.44.41-.44.58 0 .26.02.62.44.62m-.68-.01c.02 0 .03-.01.03-.03v-.11c0-.02-.01-.03-.03-.03h-.22v-.96c0-.02-.01-.04-.04-.04h-.1c-.03 0-.06 0-.09.02l-.16.06c-.02.01-.02.03-.02.04v.06c0 .02.01.03.03.03h.18v.79h-.2c-.02 0-.03.01-.03.03v.11c0 .02.01.03.03.03h.62zm-1.01-.08c0-.01-.01-.02-.02-.02h-.24v-1.06c0-.01 0-.02-.02-.02h-.06c-.02 0-.04 0-.05.01l-.18.05c-.01 0-.01.01-.01.02v.03c0 .01.01.02.02.02h.21v.95h-.25c-.01 0-.02 0-.02.02v.06c0 .01.01.02.02.02h.59c.01 0 .02-.01.02-.02v-.06zm-.96.08c.02 0 .03-.01.03-.03v-.11c0-.02-.01-.03-.03-.03H8.6v-.96c0-.02-.01-.04-.04-.04h-.1c-.03 0-.06 0-.09.02l-.16.06c-.02.01-.02.03-.02.04v.06c0 .02.01.03.03.03h.18v.79h-.2c-.02 0-.03.01-.03.03v.11c0 .02.01.03.03.03h.61zM14.83 15.93c.02 0 .03-.01.03-.03v-.11c0-.02-.01-.03-.03-.03h-.22v-.96c0-.02-.01-.04-.04-.04h-.1c-.03 0-.06 0-.09.02l-.16.06c-.02.01-.02.03-.02.04v.06c0 .02.01.03.03.03h.18v.79h-.2c-.02 0-.03.01-.03.03v.11c0 .02.01.03.03.03h.62zm-1.35-1.02c.22 0 .25.16.25.43 0 .25-.04.43-.25.43-.2 0-.23-.18-.23-.43 0-.23.03-.43.23-.43m0 1.03c.42 0 .45-.4.45-.62 0-.26-.04-.58-.45-.58-.41 0-.44.41-.44.58.01.25.03.62.44.62m-1.01-1.03c.22 0 .25.16.25.43 0 .25-.04.43-.25.43-.2 0-.23-.18-.23-.43 0-.23.03-.43.23-.43m0 1.03c.42 0 .45-.4.45-.62 0-.26-.04-.58-.45-.58-.41 0-.44.41-.44.58 0 .25.02.62.44.62m-1.01-1.03c.22 0 .25.16.25.43 0 .25-.04.43-.25.43s-.23-.18-.23-.43c-.01-.23.03-.43.23-.43m0 1.03c.42 0 .45-.4.45-.62 0-.26-.04-.58-.45-.58-.41 0-.44.41-.44.58 0 .25.02.62.44.62m-.68-.6c0 .27-.04.51-.31.51s-.3-.23-.3-.51c0-.26.03-.51.3-.51.28 0 .31.21.31.51m.1-.01c0-.28-.04-.58-.41-.58-.38 0-.4.39-.4.58 0 .27.02.62.4.62.39-.01.41-.38.41-.62m-1.05.6c.02 0 .03-.01.03-.03v-.11c0-.02-.01-.03-.03-.03h-.22v-.96c0-.02-.01-.04-.04-.04h-.1c-.03 0-.06 0-.09.02l-.16.06c-.02 0-.02.02-.02.04v.06c0 .02.01.03.03.03h.18v.79h-.2c-.02 0-.03.01-.03.03v.11c0 .02.01.03.03.03h.62zm-1.35-1.02c.22 0 .25.16.25.43 0 .25-.04.43-.25.43-.2 0-.23-.18-.23-.43 0-.23.03-.43.23-.43m0 1.03c.42 0 .45-.4.45-.62 0-.26-.04-.58-.45-.58-.41 0-.44.41-.44.58 0 .25.02.62.44.62M10.23 31.66a2.46 2.46 0 0 0-2.44 2.46 2.445 2.445 0 0 0 2.46 2.43 2.46 2.46 0 0 0 2.44-2.46 2.445 2.445 0 0 0-2.46-2.43m.03 5.23a2.789 2.789 0 0 1-2.8-2.77 2.789 2.789 0 0 1 2.77-2.8 2.789 2.789 0 0 1 2.8 2.77c0 1.53-1.24 2.79-2.77 2.8"/><path class="st3" d="M10.23 31.66c-.85 0-1.54 1.11-1.54 2.46.01 1.35.71 2.44 1.56 2.44.85 0 1.54-1.11 1.54-2.46-.01-1.35-.71-2.45-1.56-2.44m.03 5.23c-1.04.01-1.89-1.24-1.9-2.77-.01-1.53.83-2.79 1.87-2.79 1.04-.01 1.89 1.24 1.9 2.77 0 1.53-.83 2.78-1.87 2.79"/><path class="st3" d="M10.23 31.66c-.15 0-.51.84-.5 2.45.01 1.61.37 2.45.53 2.45.15 0 .51-.84.5-2.45-.01-1.62-.38-2.45-.53-2.45m.03 5.23c-.58 0-.86-1.44-.86-2.78-.01-1.34.25-2.78.83-2.79.58 0 .86 1.44.86 2.78.01 1.34-.25 2.78-.83 2.79"/><path transform="matrix(1 -.00563 .00563 1 -.192 .058)" class="st3" d="M7.49 33.9h5.38v.33H7.49z"/><path transform="matrix(1 -.00563 .00563 1 -.184 .058)" class="st3" d="M8.01 32.62h4.45v.33H8.01z"/><path class="st3" d="M7.9 35.19v.34l4.56-.03v-.33z"/><path class="st2" d="M27.12 33.02h-2.48l-1.94-.01c-1-.08-1.8-.93-1.8-1.98 0-1.1.87-1.99 1.94-1.99.16 0 .31.02.46.05.33-.62.97-1.05 1.72-1.05.98 0 1.78.73 1.92 1.69.04-.01.09-.01.14-.01.89 0 1.61.74 1.61 1.65-.01.9-.71 1.63-1.57 1.65z"/><path class="st3" d="M35.26 27.47c.1.1.27.1.38 0 .1-.1.1-.27 0-.38l-.87-.88h3.09c.15 0 .27-.13.27-.28 0-.15-.12-.25-.27-.25h-3.09l.87-.88c.1-.1.1-.27 0-.38-.1-.1-.27-.1-.38 0l-1.41 1.52 1.41 1.53z"/><g><circle class="st3" cx="47.62" cy="13.2" r="1.2"/><circle class="st3" cx="68.96" cy="13.2" r="1.2"/><path class="st3" d="M68.92 18.27c-.58 0-1.05.47-1.05 1.05v12.92a1.05 1.05 0 1 0 2.1 0V19.32c0-.58-.47-1.05-1.05-1.05zM65.77 25.46v-.11c0-.04-.01-.08-.01-.12-.02-.35-.08-.87-.25-1.5-.17-.63-.46-1.39-.96-2.16-.25-.39-.54-.78-.9-1.15-.35-.37-.76-.73-1.23-1.05-.47-.32-.99-.6-1.56-.82-.07-.03-.14-.05-.22-.08-.07-.02-.15-.05-.22-.08-.07-.02-.15-.04-.22-.07l-.23-.06c-.08-.02-.15-.04-.23-.05-.08-.02-.16-.03-.23-.05-.08-.01-.16-.03-.24-.04l-.24-.03c-.04 0-.08-.01-.12-.01-.04 0-.09-.01-.13-.01-.09-.01-.18-.01-.26-.02-.07 0-.14 0-.22-.01h-.26c-.08 0-.17 0-.25.01-.08 0-.17.01-.25.02-.17.01-.34.04-.51.06-.34.05-.68.12-1.01.22l-.13.04c-.04.01-.08.03-.12.04-.08.03-.17.06-.25.09-.16.07-.33.13-.49.2a7.566 7.566 0 0 0-1.81 1.16c-.55.47-1.04 1.03-1.44 1.65-.4.62-.72 1.31-.93 2.02l-.08.27-.06.27-.03.14-.02.14c-.02.09-.03.18-.05.28l-.03.28c-.01.05-.01.1-.01.15l-.01.15-.01.15v.13l-.01.27c0 .37.03.75.08 1.12.01.09.03.19.05.28l.02.14.03.14.06.27.08.27a7.728 7.728 0 0 0 2.37 3.67c.28.23.56.46.87.65.3.19.62.37.94.51.16.08.33.14.49.2.08.03.17.06.25.09.04.01.08.03.12.04l.13.04c.33.1.67.17 1.01.22.17.02.33.05.52.06l.13.01h.13c.07 0 .15 0 .22.01h.25c.08 0 .16 0 .25-.01.08-.01.16-.01.25-.02.08-.01.16-.01.24-.02l.24-.03c.08-.01.16-.03.24-.04.08-.02.16-.03.23-.05.08-.02.15-.04.23-.05l.23-.06c.08-.02.15-.04.22-.07.07-.03.15-.05.22-.08s.15-.05.22-.08c.57-.22 1.09-.5 1.56-.82.47-.32.88-.68 1.23-1.05s.65-.76.9-1.15c.5-.77.78-1.53.96-2.16l.03-.12.03-.12c.02-.08.03-.15.05-.22.03-.14.05-.28.07-.4.02-.13.03-.24.04-.35.01-.05.01-.11.01-.16s.01-.1.01-.15c0-.05.01-.09.01-.13v-.53c.01-.05.01-.1.01-.17zm-1.96.55v.1c0 .03 0 .06-.01.09 0 .03 0 .06-.01.1 0 .03 0 .07-.01.11l-.03.26c-.02.09-.03.2-.05.3-.01.05-.02.11-.04.17-.01.03-.01.06-.02.09s-.02.06-.02.09c-.13.47-.34 1.04-.71 1.62-.37.58-.89 1.16-1.58 1.64-.35.24-.73.44-1.15.61-.05.02-.11.04-.16.06-.05.02-.11.04-.16.06-.06.02-.11.03-.17.05-.06.02-.11.03-.17.04-.06.01-.11.03-.17.04-.06.01-.12.02-.17.03l-.18.03c-.06.01-.12.02-.18.02-.06.01-.12.01-.18.02-.06 0-.12.01-.18.01H58.11c-.07 0-.15 0-.22-.01h-.09l-.08-.01c-.11-.01-.24-.03-.36-.04-.25-.04-.5-.09-.74-.17l-.09-.03-.09-.03-.18-.06c-.12-.05-.24-.09-.36-.15-.24-.11-.47-.24-.7-.38-.23-.14-.44-.31-.65-.48a5.782 5.782 0 0 1-1.78-2.74l-.06-.2c-.02-.07-.03-.14-.05-.2a.355.355 0 0 1-.02-.1l-.02-.1c-.01-.07-.03-.14-.03-.21-.04-.28-.06-.56-.06-.84l.01-.22v-.12l.01-.1.01-.1c0-.03 0-.06.01-.1l.03-.21.03-.21.02-.1c.01-.03.02-.07.02-.1.02-.07.03-.14.05-.2l.06-.2c.16-.54.39-1.05.7-1.51.3-.46.67-.88 1.08-1.23.21-.17.42-.34.65-.48.22-.14.46-.27.7-.38.12-.06.24-.1.36-.15l.18-.06.09-.03.09-.03c.25-.08.5-.12.74-.17.13-.01.25-.04.37-.04.06 0 .12-.01.19-.01h.37c.07 0 .14 0 .22.01.06 0 .11.01.17.01l.08.01c.03 0 .06.01.09.01.06.01.12.02.18.02l.18.03c.06.01.12.02.17.03.06.01.11.03.17.04.06.01.11.03.17.04.06.02.11.03.17.05.05.02.11.04.16.06.05.02.11.04.16.06.42.16.81.37 1.15.61a5.8 5.8 0 0 1 1.58 1.64c.37.58.59 1.14.71 1.62.13.47.17.86.19 1.13 0 .03 0 .06.01.09V25.92c-.05-.02-.05.03-.05.09zM47.67 18.28c-.58 0-1.05.47-1.05 1.05v.51-.5c0 .12.01 1.52.02 3.59.01 1.08.01 2.34.02 3.69 0 1.35.01 2.79.01 4.23 0 .72 0 1.44.01 2.15v1.53c0 .15-.01.3-.03.45-.03.29-.08.57-.14.82-.07.25-.16.48-.26.69-.21.4-.49.68-.82.86-.16.09-.33.16-.51.21-.09.03-.18.05-.27.06-.09.02-.18.03-.29.05-.38.05-.72.06-1.02.07-.31 0-1.05.01-1.05.01-.52.01-.87.43-.86.95.01.52.38.93.94.93 0 0 .68-.01.99-.01.33 0 .75-.01 1.24-.08.11-.01.24-.03.38-.06s.28-.06.43-.1a3.998 3.998 0 0 0 1.81-1.04c.27-.27.5-.59.69-.94.19-.34.33-.71.44-1.08.11-.37.18-.75.22-1.13.02-.19.04-.38.05-.57 0-.1.01-.19.01-.29v-1.32c0-.71 0-1.43.01-2.15 0-1.44.01-2.88.01-4.23.01-1.35.01-2.61.02-3.69.01-2.16.02-3.6.02-3.6a1.01 1.01 0 0 0-1.02-1.06zM116.25 25.6v-.28c0-.04-.01-.08-.01-.12-.01-.09-.01-.18-.02-.29-.01-.11-.03-.22-.04-.35-.02-.12-.04-.26-.07-.4-.02-.07-.03-.14-.05-.22-.02-.07-.03-.15-.06-.23-.02-.08-.04-.16-.07-.24-.02-.08-.05-.17-.08-.25-.01-.04-.03-.09-.04-.13a.694.694 0 0 0-.05-.13c-.03-.09-.07-.18-.1-.27-.15-.36-.34-.74-.58-1.13-.24-.38-.53-.77-.87-1.15-.34-.38-.74-.73-1.2-1.05-.46-.32-.97-.6-1.53-.82-.56-.22-1.17-.37-1.81-.44-.04 0-.08-.01-.12-.01-.04 0-.08-.01-.13-.01-.08-.01-.17-.01-.26-.02H108.69c-.08 0-.16.01-.25.01-.08.01-.16.01-.25.02-.17.01-.33.04-.49.07-.66.12-1.32.32-1.93.63-.16.07-.31.16-.46.24-.15.09-.3.18-.44.28-.15.1-.28.21-.42.31l-.2.17c-.03.03-.07.06-.1.09l-.1.09c-.06.06-.13.12-.19.18s-.12.13-.19.19c-.06.06-.12.13-.18.2l-.09.1-.08.1c-.02.02-.03.04-.05.06 0 .01-.01.01-.01.02-.02.02-.05.03-.08.03-.06 0-.11-.04-.11-.1V19.3a1.05 1.05 0 1 0-2.1 0v19.2a1.05 1.05 0 1 0 2.1 0v-7.8c.01-.06.06-.1.11-.1.03 0 .07.01.09.04l.01.01c.02.02.03.04.05.06l.08.1.09.1c.06.07.12.13.18.2.06.06.12.13.19.19.06.06.13.12.19.18l.1.09c.03.03.07.06.1.09l.2.17c.14.11.28.22.42.31.14.1.29.19.44.28.15.08.3.17.46.24.62.31 1.27.52 1.93.63.08.01.17.02.25.04.04.01.08.01.13.02l.13.01.13.01.07.01h.06c.07 0 .14.01.22.01h.49c.08 0 .16-.01.24-.01l.12-.01c.04 0 .08-.01.12-.01.64-.07 1.25-.22 1.81-.44s1.08-.5 1.53-.82c.46-.32.86-.68 1.2-1.05.34-.37.63-.76.87-1.15.24-.38.43-.76.58-1.13.04-.09.07-.18.1-.27.02-.04.03-.09.05-.13.01-.04.03-.09.04-.13.03-.09.06-.17.08-.25.02-.08.04-.16.07-.24.02-.08.04-.16.06-.23.02-.08.03-.15.05-.22.03-.14.05-.28.07-.4.02-.12.03-.24.04-.35.01-.11.02-.21.02-.31 0-.05.01-.09.01-.13v-.51zm-1.96.23v.24c0 .03 0 .06-.01.09-.01.06-.01.13-.02.2l-.03.26c-.02.09-.03.2-.05.3-.01.05-.02.11-.04.17-.01.06-.02.12-.04.17-.02.06-.03.12-.05.18-.02.06-.04.13-.06.19l-.03.1c-.01.03-.02.07-.04.1-.03.07-.05.13-.08.2-.11.27-.25.56-.42.86a5.82 5.82 0 0 1-1.52 1.69c-.33.25-.71.47-1.13.65-.41.18-.86.31-1.34.38-.03 0-.06.01-.09.01l-.09.01c-.06.01-.12.01-.18.02-.06 0-.12.01-.18.01h-.09.01H108.41l-.09-.01h-.09c-.03 0-.06-.01-.09-.01-.06-.01-.13-.01-.19-.02l-.19-.03-.09-.02c-.03-.01-.06-.01-.09-.02-.06-.01-.13-.03-.19-.04-.06-.02-.12-.03-.19-.05l-.09-.03-.09-.03c-.06-.02-.12-.04-.19-.06-.06-.02-.12-.05-.18-.07l-.05-.02-.04-.02-.09-.04c-.12-.05-.24-.12-.36-.18-.12-.07-.23-.13-.35-.21-.12-.07-.22-.15-.34-.23l-.16-.13c-.03-.02-.05-.04-.08-.06l-.08-.07-.08-.07c-.03-.02-.05-.05-.08-.07l-.15-.15c-.05-.05-.1-.1-.14-.15l-.07-.08-.07-.08-.13-.16-.13-.17c-.04-.06-.08-.12-.12-.17l-.06-.09-.06-.09a5.84 5.84 0 0 1-.7-1.57c-.08-.28-.14-.56-.18-.85l-.03-.22c-.01-.07-.01-.14-.02-.22l-.01-.11v-.11l-.01-.22.01-.23v-.12l.01-.1.01-.1c0-.03 0-.07.01-.1l.03-.22a6.115 6.115 0 0 1 .88-2.42l.06-.09.06-.09c.04-.06.08-.12.12-.17l.13-.17c.04-.06.09-.11.13-.16l.07-.08.07-.08c.05-.05.09-.1.14-.15l.15-.15c.02-.02.05-.05.08-.07l.08-.07.08-.07a.5.5 0 0 0 .08-.07l.16-.13c.11-.08.22-.16.34-.23.11-.08.23-.14.35-.21.12-.06.24-.13.36-.18l.09-.04.04-.02.05-.02c.06-.02.12-.05.18-.07.06-.02.12-.04.19-.06l.09-.03.09-.03c.06-.02.13-.03.19-.05.06-.01.13-.03.19-.04.03-.01.06-.01.09-.02l.09-.02.19-.03c.13-.01.25-.03.38-.04.06 0 .13-.01.19-.01h.37c.07 0 .14.01.21.01.06.01.11.01.17.02l.08.01c.03 0 .06.01.09.01.47.07.93.19 1.34.38.41.18.79.39 1.13.65a5.82 5.82 0 0 1 1.94 2.55c.03.07.05.14.08.2.01.03.03.07.04.1l.03.1c.02.07.04.13.06.19.02.06.03.12.05.18.12.48.16.86.18 1.13 0 .03 0 .06.01.09V25.72c-.01.03-.01.06-.01.11zM97.41 18.29c-.67-.14-1.26.38-1.26.98v7.63c-.15 2.69-2.31 4.72-5.04 4.72-2.83 0-4.59-1.8-4.59-4.85 0-1.4.07-2.2-.1-3.29-.54-3.43-3.12-5.53-6.56-5.33-1.87.11-3.45.9-4.77 2.25l-.01.01c-.02.02-.05.03-.07.03-.06 0-.11-.05-.11-.11v-.96c0-.57-.42-1.07-.99-1.1-.6-.03-1.1.45-1.1 1.04V32.2c0 .5.34.95.83 1.05.67.14 1.26-.37 1.26-1.02v-7.79c0-.72.18-1.45.57-2.06.08-.12.17-.25.27-.37.16-.19.28-.32.42-.48 1.48-1.56 3.72-2.07 5.67-1.3 1.75.69 2.67 2.24 2.7 4.54.01.82.02 1.42.02 2.45 0 2.63 1.25 4.78 3.86 5.74 2.66.97 5.09.44 7.19-1.51.09-.08.25-.24.38-.36l.01-.01c.02-.02.05-.03.07-.03.06 0 .11.05.11.11v1.03c0 .64.5 1.12 1.1 1.08.56-.03.99-.53.99-1.1V19.34c-.02-.5-.36-.95-.85-1.05z"/></g></svg>
