<?xml version="1.0" encoding="UTF-8" standalone="no"?>
<svg
   xmlns:dc="http://purl.org/dc/elements/1.1/"
   xmlns:cc="http://creativecommons.org/ns#"
   xmlns:rdf="http://www.w3.org/1999/02/22-rdf-syntax-ns#"
   xmlns:svg="http://www.w3.org/2000/svg"
   xmlns="http://www.w3.org/2000/svg"
   xmlns:sodipodi="http://sodipodi.sourceforge.net/DTD/sodipodi-0.dtd"
   xmlns:inkscape="http://www.inkscape.org/namespaces/inkscape"
   height="28.5"
   width="252"
   inkscape:version="1.0 (5b275a35d9, 2020-05-03)"
   sodipodi:docname="logo_eic.svg"
   xml:space="preserve"
   viewBox="5 11.5 252 28.5"
   y="0px"
   x="0px"
   id="Layer_1"
   version="1.1"><metadata
   id="metadata281"><rdf:RDF><cc:Work
       rdf:about=""><dc:format>image/svg+xml</dc:format><dc:type
         rdf:resource="http://purl.org/dc/dcmitype/StillImage" /><dc:title></dc:title></cc:Work></rdf:RDF></metadata><defs
   id="defs279" /><sodipodi:namedview
   inkscape:current-layer="Layer_1"
   inkscape:window-maximized="0"
   inkscape:window-y="26"
   inkscape:window-x="1488"
   inkscape:cy="-9.3834903"
   inkscape:cx="166.75242"
   inkscape:zoom="4.8928571"
   showgrid="false"
   id="namedview277"
   inkscape:window-height="1292"
   inkscape:window-width="1897"
   inkscape:pageshadow="2"
   inkscape:pageopacity="0"
   guidetolerance="10"
   gridtolerance="10"
   objecttolerance="10"
   borderopacity="1"
   bordercolor="#666666"
   pagecolor="#ffffff" />
<style
   id="style204"
   type="text/css">
	.st0{fill:none;stroke:#466280;stroke-width:0.6615;stroke-miterlimit:10;}
	.st1{fill:#466280;}
	.st2{fill:none;stroke:#FFFFFF;stroke-width:0.6615;stroke-miterlimit:10;}
	.st3{fill:#FFFFFF;}
</style>
<g
   id="g258">
	<path
   id="path206"
   d="m 16.97,17.92 c 0,3.1 -2.51,5.61 -5.61,5.61 -3.1,0 -5.61,-2.51 -5.61,-5.61 0,-3.1 2.51,-5.61 5.61,-5.61 3.1,0 5.61,2.51 5.61,5.61 z"
   class="st2" />
	<line
   id="line208"
   y2="33.02"
   x2="18.98"
   y1="34.18"
   x1="14.7"
   class="st2" />
	<line
   id="line210"
   y2="21.459999"
   x2="15.64"
   y1="26.440001"
   x1="20.219999"
   class="st2" />
	<line
   id="line212"
   y2="27.27"
   x2="33.099998"
   y1="28.57"
   x1="30.879999"
   class="st2" />
	<polyline
   id="polyline214"
   points="26.61,19.6 30.83,19.6 30.83,15.33  "
   class="st2" />
	<line
   id="line216"
   y2="20.719999"
   x2="25.49"
   y1="24.559999"
   x1="25.49"
   class="st2" />
	<line
   id="line218"
   y2="35.360001"
   x2="34.48"
   y1="35.360001"
   x1="28.99"
   class="st2" />
	<path
   id="path220"
   d="m 14.7,34.18 c 0,2.46 -1.99,4.45 -4.45,4.45 -2.46,0 -4.45,-1.99 -4.45,-4.45 0,-2.46 1.99,-4.45 4.45,-4.45 2.46,0 4.45,1.99 4.45,4.45 z"
   class="st2" />
	<path
   id="path222"
   d="m 31.06,30.71 c 0,3.46 -2.8,6.26 -6.26,6.26 -3.46,0 -6.26,-2.8 -6.26,-6.26 0,-3.46 2.8,-6.26 6.26,-6.26 3.45,0 6.26,2.81 6.26,6.26 z"
   class="st2" />
	<circle
   id="circle224"
   r="1.12"
   cy="19.6"
   cx="25.49"
   class="st2" />
	<circle
   id="circle226"
   r="1.12"
   cy="14.21"
   cx="30.83"
   class="st2" />
	<path
   id="path228"
   d="m 32.69,25.32 c -0.35,1.82 0.85,3.58 2.68,3.93 1.82,0.35 3.59,-0.85 3.93,-2.68 0.35,-1.82 -0.85,-3.58 -2.68,-3.93 -1.82,-0.34 -3.58,0.86 -3.93,2.68 z"
   class="st2" />
	<circle
   id="circle230"
   r="1.12"
   cy="35.349998"
   cx="35.599998"
   class="st2" />
	<path
   id="path232"
   d="m 14.83,21.03 c 0.02,0 0.03,-0.01 0.03,-0.03 v -0.11 c 0,-0.02 -0.01,-0.03 -0.03,-0.03 H 14.61 V 19.9 c 0,-0.02 -0.01,-0.04 -0.04,-0.04 h -0.1 c -0.03,0 -0.06,0 -0.09,0.02 l -0.16,0.06 c -0.02,0.01 -0.02,0.03 -0.02,0.04 v 0.06 c 0,0.02 0.01,0.03 0.03,0.03 h 0.18 v 0.79 h -0.2 c -0.02,0 -0.03,0.01 -0.03,0.03 V 21 c 0,0.02 0.01,0.03 0.03,0.03 z m -1.35,-1.01 c 0.22,0 0.25,0.16 0.25,0.43 0,0.25 -0.04,0.43 -0.25,0.43 -0.2,0 -0.23,-0.18 -0.23,-0.43 0,-0.24 0.03,-0.43 0.23,-0.43 m 0,1.03 c 0.42,0 0.45,-0.4 0.45,-0.62 0,-0.26 -0.04,-0.58 -0.45,-0.58 -0.41,0 -0.44,0.41 -0.44,0.58 0.01,0.25 0.03,0.62 0.44,0.62 m -1.01,-1.03 c 0.22,0 0.25,0.16 0.25,0.43 0,0.25 -0.04,0.43 -0.25,0.43 -0.2,0 -0.23,-0.18 -0.23,-0.43 0,-0.24 0.03,-0.43 0.23,-0.43 m 0,1.03 c 0.42,0 0.45,-0.4 0.45,-0.62 0,-0.26 -0.04,-0.58 -0.45,-0.58 -0.41,0 -0.44,0.41 -0.44,0.58 0,0.25 0.02,0.62 0.44,0.62 m -1.01,-1.03 c 0.22,0 0.25,0.16 0.25,0.43 0,0.25 -0.04,0.43 -0.25,0.43 -0.21,0 -0.23,-0.18 -0.23,-0.43 -0.01,-0.24 0.03,-0.43 0.23,-0.43 m 0,1.03 c 0.42,0 0.45,-0.4 0.45,-0.62 0,-0.26 -0.04,-0.58 -0.45,-0.58 -0.41,0 -0.44,0.41 -0.44,0.58 0,0.25 0.02,0.62 0.44,0.62 m -0.68,-0.6 c 0,0.27 -0.04,0.51 -0.31,0.51 -0.27,0 -0.3,-0.23 -0.3,-0.51 0,-0.26 0.03,-0.51 0.3,-0.51 0.28,0 0.31,0.21 0.31,0.51 m 0.1,-0.02 c 0,-0.28 -0.04,-0.58 -0.41,-0.58 -0.38,0 -0.4,0.39 -0.4,0.58 0,0.27 0.02,0.62 0.4,0.62 0.39,0 0.41,-0.38 0.41,-0.62 m -1.05,0.6 c 0.02,0 0.03,-0.01 0.03,-0.03 v -0.11 c 0,-0.02 -0.01,-0.03 -0.03,-0.03 H 9.61 V 19.9 c 0,-0.02 -0.01,-0.04 -0.04,-0.04 h -0.1 c -0.03,0 -0.06,0 -0.09,0.02 L 9.22,19.94 C 9.2,19.95 9.2,19.97 9.2,19.98 v 0.06 c 0,0.02 0.01,0.03 0.03,0.03 h 0.18 v 0.79 h -0.2 c -0.02,0 -0.03,0.01 -0.03,0.03 V 21 c 0,0.02 0.01,0.03 0.03,0.03 z M 8.48,20.02 c 0.22,0 0.25,0.16 0.25,0.43 0,0.25 -0.04,0.43 -0.25,0.43 -0.2,0 -0.23,-0.18 -0.23,-0.43 0,-0.24 0.03,-0.43 0.23,-0.43 m 0,1.03 c 0.42,0 0.45,-0.4 0.45,-0.62 0,-0.26 -0.04,-0.58 -0.45,-0.58 -0.41,0 -0.44,0.41 -0.44,0.58 0,0.25 0.02,0.62 0.44,0.62"
   class="st3" />
	<path
   id="path234"
   d="m 14.72,19.25 c 0,-0.01 -0.01,-0.02 -0.02,-0.02 h -0.25 v -1.06 c 0,-0.01 0,-0.02 -0.02,-0.02 h -0.06 c -0.02,0 -0.04,0 -0.05,0.01 l -0.18,0.05 c -0.01,0 -0.01,0.01 -0.01,0.02 v 0.03 c 0,0.01 0.01,0.02 0.02,0.02 h 0.21 v 0.95 h -0.24 c -0.01,0 -0.02,0 -0.02,0.02 v 0.06 c 0,0.01 0.01,0.02 0.02,0.02 h 0.59 c 0.01,0 0.02,-0.01 0.02,-0.02 v -0.06 z m -0.96,0.08 c 0.02,0 0.03,-0.01 0.03,-0.03 v -0.11 c 0,-0.02 -0.01,-0.03 -0.03,-0.03 H 13.54 V 18.2 c 0,-0.02 -0.01,-0.04 -0.04,-0.04 h -0.1 c -0.03,0 -0.06,0 -0.09,0.02 l -0.16,0.06 c -0.02,0.01 -0.02,0.03 -0.02,0.04 v 0.06 c 0,0.02 0.01,0.03 0.03,0.03 h 0.18 v 0.79 h -0.2 c -0.02,0 -0.03,0.01 -0.03,0.03 v 0.11 c 0,0.02 0.01,0.03 0.03,0.03 z m -1.35,-1.01 c 0.22,0 0.25,0.16 0.25,0.43 0,0.25 -0.04,0.43 -0.25,0.43 -0.21,0 -0.23,-0.18 -0.23,-0.43 0,-0.24 0.03,-0.43 0.23,-0.43 m 0,1.03 c 0.42,0 0.45,-0.4 0.45,-0.62 0,-0.26 -0.04,-0.58 -0.45,-0.58 -0.41,0 -0.44,0.41 -0.44,0.58 0,0.25 0.02,0.62 0.44,0.62 M 11.4,18.32 c 0.22,0 0.25,0.16 0.25,0.43 0,0.25 -0.04,0.43 -0.25,0.43 -0.2,0 -0.23,-0.18 -0.23,-0.43 -0.01,-0.24 0.03,-0.43 0.23,-0.43 m 0,1.03 c 0.42,0 0.45,-0.4 0.45,-0.62 0,-0.26 -0.04,-0.58 -0.45,-0.58 -0.41,0 -0.44,0.41 -0.44,0.58 0,0.25 0.02,0.62 0.44,0.62 m -0.67,-0.1 c 0,-0.01 -0.01,-0.02 -0.02,-0.02 h -0.25 v -1.06 c 0,-0.01 0,-0.02 -0.02,-0.02 h -0.06 c -0.02,0 -0.04,0 -0.05,0.01 l -0.18,0.05 c -0.01,0 -0.01,0.01 -0.01,0.02 v 0.03 c 0,0.01 0.01,0.02 0.02,0.02 h 0.21 v 0.95 h -0.24 c -0.01,0 -0.02,0 -0.02,0.02 v 0.06 c 0,0.01 0.01,0.02 0.02,0.02 h 0.59 c 0.01,0 0.02,-0.01 0.02,-0.02 v -0.06 z m -1.3,-0.93 c 0.22,0 0.25,0.16 0.25,0.43 0,0.25 -0.04,0.43 -0.25,0.43 -0.2,0 -0.23,-0.18 -0.23,-0.43 0,-0.24 0.03,-0.43 0.23,-0.43 m 0,1.03 c 0.42,0 0.45,-0.4 0.45,-0.62 0,-0.26 -0.04,-0.58 -0.45,-0.58 -0.41,0 -0.43,0.41 -0.43,0.58 0,0.25 0.02,0.62 0.43,0.62 m -0.67,-0.1 c 0,-0.01 -0.01,-0.02 -0.02,-0.02 H 8.5 v -1.06 c 0,-0.01 0,-0.02 -0.02,-0.02 H 8.42 c -0.02,0 -0.04,0 -0.05,0.01 l -0.18,0.05 c -0.01,0 -0.01,0.01 -0.01,0.02 v 0.03 c 0,0.01 0.01,0.02 0.02,0.02 h 0.2 v 0.95 H 8.16 c -0.01,0 -0.02,0 -0.02,0.02 v 0.06 c 0,0.01 0.01,0.02 0.02,0.02 h 0.59 c 0.01,0 0.02,-0.01 0.02,-0.02 v -0.06 z"
   class="st3" />
	<path
   id="path236"
   d="m 14.71,17.04 c 0,0.27 -0.04,0.51 -0.31,0.51 -0.27,0 -0.3,-0.23 -0.3,-0.51 0,-0.26 0.03,-0.51 0.3,-0.51 0.28,0 0.31,0.21 0.31,0.51 m 0.1,-0.01 c 0,-0.28 -0.04,-0.58 -0.41,-0.58 -0.38,0 -0.4,0.39 -0.4,0.58 0,0.27 0.02,0.62 0.4,0.62 0.39,-0.01 0.41,-0.38 0.41,-0.62 m -1.05,0.6 c 0.02,0 0.03,-0.01 0.03,-0.03 v -0.11 c 0,-0.02 -0.01,-0.03 -0.03,-0.03 H 13.54 V 16.5 c 0,-0.02 -0.01,-0.04 -0.04,-0.04 h -0.1 c -0.03,0 -0.06,0 -0.09,0.02 l -0.16,0.06 c -0.02,0.01 -0.02,0.03 -0.02,0.04 v 0.06 c 0,0.02 0.01,0.03 0.03,0.03 h 0.18 v 0.79 h -0.2 c -0.02,0 -0.03,0.01 -0.03,0.03 v 0.11 c 0,0.02 0.01,0.03 0.03,0.03 z m -1.01,-0.59 c 0,0.27 -0.04,0.51 -0.31,0.51 -0.27,0 -0.3,-0.23 -0.3,-0.51 0,-0.26 0.03,-0.51 0.3,-0.51 0.28,0 0.31,0.21 0.31,0.51 m 0.1,-0.01 c 0,-0.28 -0.04,-0.58 -0.41,-0.58 -0.38,0 -0.4,0.39 -0.4,0.58 0,0.27 0.02,0.62 0.4,0.62 0.38,-0.01 0.41,-0.38 0.41,-0.62 m -1.39,-0.41 c 0.22,0 0.25,0.16 0.25,0.43 0,0.25 -0.04,0.43 -0.25,0.43 -0.2,0 -0.23,-0.18 -0.23,-0.43 -0.01,-0.24 0.03,-0.43 0.23,-0.43 m 0,1.02 c 0.42,0 0.45,-0.4 0.45,-0.62 0,-0.26 -0.04,-0.58 -0.45,-0.58 -0.41,0 -0.44,0.41 -0.44,0.58 0,0.26 0.02,0.62 0.44,0.62 m -0.68,-0.01 c 0.02,0 0.03,-0.01 0.03,-0.03 v -0.11 c 0,-0.02 -0.01,-0.03 -0.03,-0.03 H 10.56 V 16.5 c 0,-0.02 -0.01,-0.04 -0.04,-0.04 h -0.1 c -0.03,0 -0.06,0 -0.09,0.02 l -0.16,0.06 c -0.02,0.01 -0.02,0.03 -0.02,0.04 v 0.06 c 0,0.02 0.01,0.03 0.03,0.03 h 0.18 v 0.79 h -0.2 c -0.02,0 -0.03,0.01 -0.03,0.03 v 0.11 c 0,0.02 0.01,0.03 0.03,0.03 z M 9.77,17.55 c 0,-0.01 -0.01,-0.02 -0.02,-0.02 H 9.51 v -1.06 c 0,-0.01 0,-0.02 -0.02,-0.02 H 9.43 c -0.02,0 -0.04,0 -0.05,0.01 L 9.2,16.51 c -0.01,0 -0.01,0.01 -0.01,0.02 v 0.03 c 0,0.01 0.01,0.02 0.02,0.02 h 0.21 v 0.95 H 9.17 c -0.01,0 -0.02,0 -0.02,0.02 v 0.06 c 0,0.01 0.01,0.02 0.02,0.02 h 0.59 c 0.01,0 0.02,-0.01 0.02,-0.02 v -0.06 z m -0.96,0.08 c 0.02,0 0.03,-0.01 0.03,-0.03 v -0.11 c 0,-0.02 -0.01,-0.03 -0.03,-0.03 H 8.6 V 16.5 c 0,-0.02 -0.01,-0.04 -0.04,-0.04 h -0.1 c -0.03,0 -0.06,0 -0.09,0.02 l -0.16,0.06 c -0.02,0.01 -0.02,0.03 -0.02,0.04 v 0.06 c 0,0.02 0.01,0.03 0.03,0.03 H 8.4 v 0.79 H 8.2 c -0.02,0 -0.03,0.01 -0.03,0.03 v 0.11 c 0,0.02 0.01,0.03 0.03,0.03 z"
   class="st3" />
	<path
   id="path238"
   d="m 14.83,15.93 c 0.02,0 0.03,-0.01 0.03,-0.03 v -0.11 c 0,-0.02 -0.01,-0.03 -0.03,-0.03 H 14.61 V 14.8 c 0,-0.02 -0.01,-0.04 -0.04,-0.04 h -0.1 c -0.03,0 -0.06,0 -0.09,0.02 l -0.16,0.06 c -0.02,0.01 -0.02,0.03 -0.02,0.04 v 0.06 c 0,0.02 0.01,0.03 0.03,0.03 h 0.18 v 0.79 h -0.2 c -0.02,0 -0.03,0.01 -0.03,0.03 v 0.11 c 0,0.02 0.01,0.03 0.03,0.03 z m -1.35,-1.02 c 0.22,0 0.25,0.16 0.25,0.43 0,0.25 -0.04,0.43 -0.25,0.43 -0.2,0 -0.23,-0.18 -0.23,-0.43 0,-0.23 0.03,-0.43 0.23,-0.43 m 0,1.03 c 0.42,0 0.45,-0.4 0.45,-0.62 0,-0.26 -0.04,-0.58 -0.45,-0.58 -0.41,0 -0.44,0.41 -0.44,0.58 0.01,0.25 0.03,0.62 0.44,0.62 m -1.01,-1.03 c 0.22,0 0.25,0.16 0.25,0.43 0,0.25 -0.04,0.43 -0.25,0.43 -0.2,0 -0.23,-0.18 -0.23,-0.43 0,-0.23 0.03,-0.43 0.23,-0.43 m 0,1.03 c 0.42,0 0.45,-0.4 0.45,-0.62 0,-0.26 -0.04,-0.58 -0.45,-0.58 -0.41,0 -0.44,0.41 -0.44,0.58 0,0.25 0.02,0.62 0.44,0.62 m -1.01,-1.03 c 0.22,0 0.25,0.16 0.25,0.43 0,0.25 -0.04,0.43 -0.25,0.43 -0.21,0 -0.23,-0.18 -0.23,-0.43 -0.01,-0.23 0.03,-0.43 0.23,-0.43 m 0,1.03 c 0.42,0 0.45,-0.4 0.45,-0.62 0,-0.26 -0.04,-0.58 -0.45,-0.58 -0.41,0 -0.44,0.41 -0.44,0.58 0,0.25 0.02,0.62 0.44,0.62 m -0.68,-0.6 c 0,0.27 -0.04,0.51 -0.31,0.51 -0.27,0 -0.3,-0.23 -0.3,-0.51 0,-0.26 0.03,-0.51 0.3,-0.51 0.28,0 0.31,0.21 0.31,0.51 m 0.1,-0.01 c 0,-0.28 -0.04,-0.58 -0.41,-0.58 -0.38,0 -0.4,0.39 -0.4,0.58 0,0.27 0.02,0.62 0.4,0.62 0.39,-0.01 0.41,-0.38 0.41,-0.62 m -1.05,0.6 c 0.02,0 0.03,-0.01 0.03,-0.03 v -0.11 c 0,-0.02 -0.01,-0.03 -0.03,-0.03 H 9.61 V 14.8 c 0,-0.02 -0.01,-0.04 -0.04,-0.04 h -0.1 c -0.03,0 -0.06,0 -0.09,0.02 l -0.16,0.06 c -0.02,0 -0.02,0.02 -0.02,0.04 v 0.06 c 0,0.02 0.01,0.03 0.03,0.03 h 0.18 v 0.79 h -0.2 c -0.02,0 -0.03,0.01 -0.03,0.03 v 0.11 c 0,0.02 0.01,0.03 0.03,0.03 z M 8.48,14.91 c 0.22,0 0.25,0.16 0.25,0.43 0,0.25 -0.04,0.43 -0.25,0.43 -0.2,0 -0.23,-0.18 -0.23,-0.43 0,-0.23 0.03,-0.43 0.23,-0.43 m 0,1.03 c 0.42,0 0.45,-0.4 0.45,-0.62 0,-0.26 -0.04,-0.58 -0.45,-0.58 -0.41,0 -0.44,0.41 -0.44,0.58 0,0.25 0.02,0.62 0.44,0.62"
   class="st3" />
	<g
   id="g252">
		<path
   id="path240"
   d="m 10.23,31.66 c -1.35,0.01 -2.44,1.11 -2.44,2.46 0.01,1.35 1.11,2.44 2.46,2.43 1.35,-0.01 2.44,-1.11 2.44,-2.46 -0.01,-1.35 -1.11,-2.44 -2.46,-2.43 m 0.03,5.23 c -1.53,0.01 -2.79,-1.23 -2.8,-2.77 -0.01,-1.53 1.23,-2.79 2.77,-2.8 1.53,-0.01 2.79,1.23 2.8,2.77 0,1.53 -1.24,2.79 -2.77,2.8"
   class="st3" />
		<path
   id="path242"
   d="m 10.23,31.66 c -0.85,0 -1.54,1.11 -1.54,2.46 0.01,1.35 0.71,2.44 1.56,2.44 0.85,0 1.54,-1.11 1.54,-2.46 -0.01,-1.35 -0.71,-2.45 -1.56,-2.44 m 0.03,5.23 c -1.04,0.01 -1.89,-1.24 -1.9,-2.77 -0.01,-1.53 0.83,-2.79 1.87,-2.79 1.04,-0.01 1.89,1.24 1.9,2.77 0,1.53 -0.83,2.78 -1.87,2.79"
   class="st3" />
		<path
   id="path244"
   d="m 10.23,31.66 c -0.15,0 -0.51,0.84 -0.5,2.45 0.01,1.61 0.37,2.45 0.53,2.45 0.15,0 0.51,-0.84 0.5,-2.45 -0.01,-1.62 -0.38,-2.45 -0.53,-2.45 m 0.03,5.23 c -0.58,0 -0.86,-1.44 -0.86,-2.78 -0.01,-1.34 0.25,-2.78 0.83,-2.79 0.58,0 0.86,1.44 0.86,2.78 0.01,1.34 -0.25,2.78 -0.83,2.79"
   class="st3" />
		
			<rect
   id="rect246"
   height="0.33000001"
   width="5.3800001"
   class="st3"
   transform="matrix(1,-0.0056333,0.0056333,1,-0.1918,0.0579)"
   y="33.900002"
   x="7.4899998" />
		
			<rect
   id="rect248"
   height="0.33000001"
   width="4.4499998"
   class="st3"
   transform="matrix(1,-0.0056333,0.0056333,1,-0.1845,0.0582)"
   y="32.619999"
   x="8.0100002" />
		<polygon
   id="polygon250"
   points="7.9,35.19 7.9,35.53 12.46,35.5 12.46,35.17 "
   class="st3" />
	</g>
	<path
   id="path254"
   d="m 27.12,33.02 v 0 H 24.64 L 22.7,33.01 c -1,-0.08 -1.8,-0.93 -1.8,-1.98 0,-1.1 0.87,-1.99 1.94,-1.99 0.16,0 0.31,0.02 0.46,0.05 0.33,-0.62 0.97,-1.05 1.72,-1.05 0.98,0 1.78,0.73 1.92,1.69 0.04,-0.01 0.09,-0.01 0.14,-0.01 0.89,0 1.61,0.74 1.61,1.65 -0.01,0.9 -0.71,1.63 -1.57,1.65 z"
   class="st2" />
	<path
   id="path256"
   d="m 35.26,27.47 c 0.1,0.1 0.27,0.1 0.38,0 0.1,-0.1 0.1,-0.27 0,-0.38 l -0.87,-0.88 h 3.09 c 0.15,0 0.27,-0.13 0.27,-0.28 0,-0.15 -0.12,-0.25 -0.27,-0.25 h -3.09 l 0.87,-0.88 c 0.1,-0.1 0.1,-0.27 0,-0.38 -0.1,-0.1 -0.27,-0.1 -0.38,0 l -1.41,1.52 z"
   class="st3" />
</g>

<text
   id="text285"
   y="33.742989"
   x="43.006329"
   style="font-size:21.3333px;line-height:1.25;font-family:'Bw Modelica';-inkscape-font-specification:'Bw Modelica';letter-spacing:-0.04px;word-spacing:0px;fill:#ffffff"
   xml:space="preserve"><tspan
     style="font-size:21.3333px;fill:#ffffff"
     y="33.742989"
     x="43.006329"
     id="tspan283"
     sodipodi:role="line">COVID-19 Challenge</tspan></text></svg>
