<?xml version="1.0" encoding="UTF-8" standalone="no"?>
<svg
   xmlns:dc="http://purl.org/dc/elements/1.1/"
   xmlns:cc="http://creativecommons.org/ns#"
   xmlns:rdf="http://www.w3.org/1999/02/22-rdf-syntax-ns#"
   xmlns:svg="http://www.w3.org/2000/svg"
   xmlns="http://www.w3.org/2000/svg"
   xmlns:sodipodi="http://sodipodi.sourceforge.net/DTD/sodipodi-0.dtd"
   xmlns:inkscape="http://www.inkscape.org/namespaces/inkscape"
   version="1.1"
   id="Layer_1"
   x="0px"
   y="0px"
   viewBox="5 11.5 170 28.5"
   xml:space="preserve"
   sodipodi:docname="logo.svg"
   inkscape:version="1.0.1 (0767f8302a, 2020-10-17)"
   width="170"
   height="28.5"><metadata
   id="metadata281"><rdf:RDF><cc:Work
       rdf:about=""><dc:format>image/svg+xml</dc:format><dc:type
         rdf:resource="http://purl.org/dc/dcmitype/StillImage" /><dc:title></dc:title></cc:Work></rdf:RDF></metadata><defs
   id="defs279" /><sodipodi:namedview
   inkscape:document-rotation="0"
   pagecolor="#ffffff"
   bordercolor="#666666"
   borderopacity="1"
   objecttolerance="10"
   gridtolerance="10"
   guidetolerance="10"
   inkscape:pageopacity="0"
   inkscape:pageshadow="2"
   inkscape:window-width="1897"
   inkscape:window-height="1292"
   id="namedview277"
   showgrid="false"
   inkscape:zoom="4.8928571"
   inkscape:cx="135.58454"
   inkscape:cy="-9.3834903"
   inkscape:window-x="1345"
   inkscape:window-y="3"
   inkscape:window-maximized="0"
   inkscape:current-layer="Layer_1" />
<style
   type="text/css"
   id="style204">
	.st0{fill:none;stroke:#466280;stroke-width:0.6615;stroke-miterlimit:10;}
	.st1{fill:#466280;}
	.st2{fill:none;stroke:#FFFFFF;stroke-width:0.6615;stroke-miterlimit:10;}
	.st3{fill:#FFFFFF;}
</style>
<g
   id="g258">
	<path
   class="st2"
   d="m 16.97,17.92 c 0,3.1 -2.51,5.61 -5.61,5.61 -3.1,0 -5.61,-2.51 -5.61,-5.61 0,-3.1 2.51,-5.61 5.61,-5.61 3.1,0 5.61,2.51 5.61,5.61 z"
   id="path206" />
	<line
   class="st2"
   x1="14.7"
   y1="34.18"
   x2="18.98"
   y2="33.02"
   id="line208" />
	<line
   class="st2"
   x1="20.219999"
   y1="26.440001"
   x2="15.64"
   y2="21.459999"
   id="line210" />
	<line
   class="st2"
   x1="30.879999"
   y1="28.57"
   x2="33.099998"
   y2="27.27"
   id="line212" />
	<polyline
   class="st2"
   points="26.61,19.6 30.83,19.6 30.83,15.33  "
   id="polyline214" />
	<line
   class="st2"
   x1="25.49"
   y1="24.559999"
   x2="25.49"
   y2="20.719999"
   id="line216" />
	<line
   class="st2"
   x1="28.99"
   y1="35.360001"
   x2="34.48"
   y2="35.360001"
   id="line218" />
	<path
   class="st2"
   d="m 14.7,34.18 c 0,2.46 -1.99,4.45 -4.45,4.45 -2.46,0 -4.45,-1.99 -4.45,-4.45 0,-2.46 1.99,-4.45 4.45,-4.45 2.46,0 4.45,1.99 4.45,4.45 z"
   id="path220" />
	<path
   class="st2"
   d="m 31.06,30.71 c 0,3.46 -2.8,6.26 -6.26,6.26 -3.46,0 -6.26,-2.8 -6.26,-6.26 0,-3.46 2.8,-6.26 6.26,-6.26 3.45,0 6.26,2.81 6.26,6.26 z"
   id="path222" />
	<circle
   class="st2"
   cx="25.49"
   cy="19.6"
   r="1.12"
   id="circle224" />
	<circle
   class="st2"
   cx="30.83"
   cy="14.21"
   r="1.12"
   id="circle226" />
	<path
   class="st2"
   d="m 32.69,25.32 c -0.35,1.82 0.85,3.58 2.68,3.93 1.82,0.35 3.59,-0.85 3.93,-2.68 0.35,-1.82 -0.85,-3.58 -2.68,-3.93 -1.82,-0.34 -3.58,0.86 -3.93,2.68 z"
   id="path228" />
	<circle
   class="st2"
   cx="35.599998"
   cy="35.349998"
   r="1.12"
   id="circle230" />
	<path
   class="st3"
   d="m 14.83,21.03 c 0.02,0 0.03,-0.01 0.03,-0.03 v -0.11 c 0,-0.02 -0.01,-0.03 -0.03,-0.03 H 14.61 V 19.9 c 0,-0.02 -0.01,-0.04 -0.04,-0.04 h -0.1 c -0.03,0 -0.06,0 -0.09,0.02 l -0.16,0.06 c -0.02,0.01 -0.02,0.03 -0.02,0.04 v 0.06 c 0,0.02 0.01,0.03 0.03,0.03 h 0.18 v 0.79 h -0.2 c -0.02,0 -0.03,0.01 -0.03,0.03 V 21 c 0,0.02 0.01,0.03 0.03,0.03 z m -1.35,-1.01 c 0.22,0 0.25,0.16 0.25,0.43 0,0.25 -0.04,0.43 -0.25,0.43 -0.2,0 -0.23,-0.18 -0.23,-0.43 0,-0.24 0.03,-0.43 0.23,-0.43 m 0,1.03 c 0.42,0 0.45,-0.4 0.45,-0.62 0,-0.26 -0.04,-0.58 -0.45,-0.58 -0.41,0 -0.44,0.41 -0.44,0.58 0.01,0.25 0.03,0.62 0.44,0.62 m -1.01,-1.03 c 0.22,0 0.25,0.16 0.25,0.43 0,0.25 -0.04,0.43 -0.25,0.43 -0.2,0 -0.23,-0.18 -0.23,-0.43 0,-0.24 0.03,-0.43 0.23,-0.43 m 0,1.03 c 0.42,0 0.45,-0.4 0.45,-0.62 0,-0.26 -0.04,-0.58 -0.45,-0.58 -0.41,0 -0.44,0.41 -0.44,0.58 0,0.25 0.02,0.62 0.44,0.62 m -1.01,-1.03 c 0.22,0 0.25,0.16 0.25,0.43 0,0.25 -0.04,0.43 -0.25,0.43 -0.21,0 -0.23,-0.18 -0.23,-0.43 -0.01,-0.24 0.03,-0.43 0.23,-0.43 m 0,1.03 c 0.42,0 0.45,-0.4 0.45,-0.62 0,-0.26 -0.04,-0.58 -0.45,-0.58 -0.41,0 -0.44,0.41 -0.44,0.58 0,0.25 0.02,0.62 0.44,0.62 m -0.68,-0.6 c 0,0.27 -0.04,0.51 -0.31,0.51 -0.27,0 -0.3,-0.23 -0.3,-0.51 0,-0.26 0.03,-0.51 0.3,-0.51 0.28,0 0.31,0.21 0.31,0.51 m 0.1,-0.02 c 0,-0.28 -0.04,-0.58 -0.41,-0.58 -0.38,0 -0.4,0.39 -0.4,0.58 0,0.27 0.02,0.62 0.4,0.62 0.39,0 0.41,-0.38 0.41,-0.62 m -1.05,0.6 c 0.02,0 0.03,-0.01 0.03,-0.03 v -0.11 c 0,-0.02 -0.01,-0.03 -0.03,-0.03 H 9.61 V 19.9 c 0,-0.02 -0.01,-0.04 -0.04,-0.04 h -0.1 c -0.03,0 -0.06,0 -0.09,0.02 L 9.22,19.94 C 9.2,19.95 9.2,19.97 9.2,19.98 v 0.06 c 0,0.02 0.01,0.03 0.03,0.03 h 0.18 v 0.79 h -0.2 c -0.02,0 -0.03,0.01 -0.03,0.03 V 21 c 0,0.02 0.01,0.03 0.03,0.03 z M 8.48,20.02 c 0.22,0 0.25,0.16 0.25,0.43 0,0.25 -0.04,0.43 -0.25,0.43 -0.2,0 -0.23,-0.18 -0.23,-0.43 0,-0.24 0.03,-0.43 0.23,-0.43 m 0,1.03 c 0.42,0 0.45,-0.4 0.45,-0.62 0,-0.26 -0.04,-0.58 -0.45,-0.58 -0.41,0 -0.44,0.41 -0.44,0.58 0,0.25 0.02,0.62 0.44,0.62"
   id="path232" />
	<path
   class="st3"
   d="m 14.72,19.25 c 0,-0.01 -0.01,-0.02 -0.02,-0.02 h -0.25 v -1.06 c 0,-0.01 0,-0.02 -0.02,-0.02 h -0.06 c -0.02,0 -0.04,0 -0.05,0.01 l -0.18,0.05 c -0.01,0 -0.01,0.01 -0.01,0.02 v 0.03 c 0,0.01 0.01,0.02 0.02,0.02 h 0.21 v 0.95 h -0.24 c -0.01,0 -0.02,0 -0.02,0.02 v 0.06 c 0,0.01 0.01,0.02 0.02,0.02 h 0.59 c 0.01,0 0.02,-0.01 0.02,-0.02 v -0.06 z m -0.96,0.08 c 0.02,0 0.03,-0.01 0.03,-0.03 v -0.11 c 0,-0.02 -0.01,-0.03 -0.03,-0.03 H 13.54 V 18.2 c 0,-0.02 -0.01,-0.04 -0.04,-0.04 h -0.1 c -0.03,0 -0.06,0 -0.09,0.02 l -0.16,0.06 c -0.02,0.01 -0.02,0.03 -0.02,0.04 v 0.06 c 0,0.02 0.01,0.03 0.03,0.03 h 0.18 v 0.79 h -0.2 c -0.02,0 -0.03,0.01 -0.03,0.03 v 0.11 c 0,0.02 0.01,0.03 0.03,0.03 z m -1.35,-1.01 c 0.22,0 0.25,0.16 0.25,0.43 0,0.25 -0.04,0.43 -0.25,0.43 -0.21,0 -0.23,-0.18 -0.23,-0.43 0,-0.24 0.03,-0.43 0.23,-0.43 m 0,1.03 c 0.42,0 0.45,-0.4 0.45,-0.62 0,-0.26 -0.04,-0.58 -0.45,-0.58 -0.41,0 -0.44,0.41 -0.44,0.58 0,0.25 0.02,0.62 0.44,0.62 M 11.4,18.32 c 0.22,0 0.25,0.16 0.25,0.43 0,0.25 -0.04,0.43 -0.25,0.43 -0.2,0 -0.23,-0.18 -0.23,-0.43 -0.01,-0.24 0.03,-0.43 0.23,-0.43 m 0,1.03 c 0.42,0 0.45,-0.4 0.45,-0.62 0,-0.26 -0.04,-0.58 -0.45,-0.58 -0.41,0 -0.44,0.41 -0.44,0.58 0,0.25 0.02,0.62 0.44,0.62 m -0.67,-0.1 c 0,-0.01 -0.01,-0.02 -0.02,-0.02 h -0.25 v -1.06 c 0,-0.01 0,-0.02 -0.02,-0.02 h -0.06 c -0.02,0 -0.04,0 -0.05,0.01 l -0.18,0.05 c -0.01,0 -0.01,0.01 -0.01,0.02 v 0.03 c 0,0.01 0.01,0.02 0.02,0.02 h 0.21 v 0.95 h -0.24 c -0.01,0 -0.02,0 -0.02,0.02 v 0.06 c 0,0.01 0.01,0.02 0.02,0.02 h 0.59 c 0.01,0 0.02,-0.01 0.02,-0.02 v -0.06 z m -1.3,-0.93 c 0.22,0 0.25,0.16 0.25,0.43 0,0.25 -0.04,0.43 -0.25,0.43 -0.2,0 -0.23,-0.18 -0.23,-0.43 0,-0.24 0.03,-0.43 0.23,-0.43 m 0,1.03 c 0.42,0 0.45,-0.4 0.45,-0.62 0,-0.26 -0.04,-0.58 -0.45,-0.58 -0.41,0 -0.43,0.41 -0.43,0.58 0,0.25 0.02,0.62 0.43,0.62 m -0.67,-0.1 c 0,-0.01 -0.01,-0.02 -0.02,-0.02 H 8.5 v -1.06 c 0,-0.01 0,-0.02 -0.02,-0.02 H 8.42 c -0.02,0 -0.04,0 -0.05,0.01 l -0.18,0.05 c -0.01,0 -0.01,0.01 -0.01,0.02 v 0.03 c 0,0.01 0.01,0.02 0.02,0.02 h 0.2 v 0.95 H 8.16 c -0.01,0 -0.02,0 -0.02,0.02 v 0.06 c 0,0.01 0.01,0.02 0.02,0.02 h 0.59 c 0.01,0 0.02,-0.01 0.02,-0.02 v -0.06 z"
   id="path234" />
	<path
   class="st3"
   d="m 14.71,17.04 c 0,0.27 -0.04,0.51 -0.31,0.51 -0.27,0 -0.3,-0.23 -0.3,-0.51 0,-0.26 0.03,-0.51 0.3,-0.51 0.28,0 0.31,0.21 0.31,0.51 m 0.1,-0.01 c 0,-0.28 -0.04,-0.58 -0.41,-0.58 -0.38,0 -0.4,0.39 -0.4,0.58 0,0.27 0.02,0.62 0.4,0.62 0.39,-0.01 0.41,-0.38 0.41,-0.62 m -1.05,0.6 c 0.02,0 0.03,-0.01 0.03,-0.03 v -0.11 c 0,-0.02 -0.01,-0.03 -0.03,-0.03 H 13.54 V 16.5 c 0,-0.02 -0.01,-0.04 -0.04,-0.04 h -0.1 c -0.03,0 -0.06,0 -0.09,0.02 l -0.16,0.06 c -0.02,0.01 -0.02,0.03 -0.02,0.04 v 0.06 c 0,0.02 0.01,0.03 0.03,0.03 h 0.18 v 0.79 h -0.2 c -0.02,0 -0.03,0.01 -0.03,0.03 v 0.11 c 0,0.02 0.01,0.03 0.03,0.03 z m -1.01,-0.59 c 0,0.27 -0.04,0.51 -0.31,0.51 -0.27,0 -0.3,-0.23 -0.3,-0.51 0,-0.26 0.03,-0.51 0.3,-0.51 0.28,0 0.31,0.21 0.31,0.51 m 0.1,-0.01 c 0,-0.28 -0.04,-0.58 -0.41,-0.58 -0.38,0 -0.4,0.39 -0.4,0.58 0,0.27 0.02,0.62 0.4,0.62 0.38,-0.01 0.41,-0.38 0.41,-0.62 m -1.39,-0.41 c 0.22,0 0.25,0.16 0.25,0.43 0,0.25 -0.04,0.43 -0.25,0.43 -0.2,0 -0.23,-0.18 -0.23,-0.43 -0.01,-0.24 0.03,-0.43 0.23,-0.43 m 0,1.02 c 0.42,0 0.45,-0.4 0.45,-0.62 0,-0.26 -0.04,-0.58 -0.45,-0.58 -0.41,0 -0.44,0.41 -0.44,0.58 0,0.26 0.02,0.62 0.44,0.62 m -0.68,-0.01 c 0.02,0 0.03,-0.01 0.03,-0.03 v -0.11 c 0,-0.02 -0.01,-0.03 -0.03,-0.03 H 10.56 V 16.5 c 0,-0.02 -0.01,-0.04 -0.04,-0.04 h -0.1 c -0.03,0 -0.06,0 -0.09,0.02 l -0.16,0.06 c -0.02,0.01 -0.02,0.03 -0.02,0.04 v 0.06 c 0,0.02 0.01,0.03 0.03,0.03 h 0.18 v 0.79 h -0.2 c -0.02,0 -0.03,0.01 -0.03,0.03 v 0.11 c 0,0.02 0.01,0.03 0.03,0.03 z M 9.77,17.55 c 0,-0.01 -0.01,-0.02 -0.02,-0.02 H 9.51 v -1.06 c 0,-0.01 0,-0.02 -0.02,-0.02 H 9.43 c -0.02,0 -0.04,0 -0.05,0.01 L 9.2,16.51 c -0.01,0 -0.01,0.01 -0.01,0.02 v 0.03 c 0,0.01 0.01,0.02 0.02,0.02 h 0.21 v 0.95 H 9.17 c -0.01,0 -0.02,0 -0.02,0.02 v 0.06 c 0,0.01 0.01,0.02 0.02,0.02 h 0.59 c 0.01,0 0.02,-0.01 0.02,-0.02 v -0.06 z m -0.96,0.08 c 0.02,0 0.03,-0.01 0.03,-0.03 v -0.11 c 0,-0.02 -0.01,-0.03 -0.03,-0.03 H 8.6 V 16.5 c 0,-0.02 -0.01,-0.04 -0.04,-0.04 h -0.1 c -0.03,0 -0.06,0 -0.09,0.02 l -0.16,0.06 c -0.02,0.01 -0.02,0.03 -0.02,0.04 v 0.06 c 0,0.02 0.01,0.03 0.03,0.03 H 8.4 v 0.79 H 8.2 c -0.02,0 -0.03,0.01 -0.03,0.03 v 0.11 c 0,0.02 0.01,0.03 0.03,0.03 z"
   id="path236" />
	<path
   class="st3"
   d="m 14.83,15.93 c 0.02,0 0.03,-0.01 0.03,-0.03 v -0.11 c 0,-0.02 -0.01,-0.03 -0.03,-0.03 H 14.61 V 14.8 c 0,-0.02 -0.01,-0.04 -0.04,-0.04 h -0.1 c -0.03,0 -0.06,0 -0.09,0.02 l -0.16,0.06 c -0.02,0.01 -0.02,0.03 -0.02,0.04 v 0.06 c 0,0.02 0.01,0.03 0.03,0.03 h 0.18 v 0.79 h -0.2 c -0.02,0 -0.03,0.01 -0.03,0.03 v 0.11 c 0,0.02 0.01,0.03 0.03,0.03 z m -1.35,-1.02 c 0.22,0 0.25,0.16 0.25,0.43 0,0.25 -0.04,0.43 -0.25,0.43 -0.2,0 -0.23,-0.18 -0.23,-0.43 0,-0.23 0.03,-0.43 0.23,-0.43 m 0,1.03 c 0.42,0 0.45,-0.4 0.45,-0.62 0,-0.26 -0.04,-0.58 -0.45,-0.58 -0.41,0 -0.44,0.41 -0.44,0.58 0.01,0.25 0.03,0.62 0.44,0.62 m -1.01,-1.03 c 0.22,0 0.25,0.16 0.25,0.43 0,0.25 -0.04,0.43 -0.25,0.43 -0.2,0 -0.23,-0.18 -0.23,-0.43 0,-0.23 0.03,-0.43 0.23,-0.43 m 0,1.03 c 0.42,0 0.45,-0.4 0.45,-0.62 0,-0.26 -0.04,-0.58 -0.45,-0.58 -0.41,0 -0.44,0.41 -0.44,0.58 0,0.25 0.02,0.62 0.44,0.62 m -1.01,-1.03 c 0.22,0 0.25,0.16 0.25,0.43 0,0.25 -0.04,0.43 -0.25,0.43 -0.21,0 -0.23,-0.18 -0.23,-0.43 -0.01,-0.23 0.03,-0.43 0.23,-0.43 m 0,1.03 c 0.42,0 0.45,-0.4 0.45,-0.62 0,-0.26 -0.04,-0.58 -0.45,-0.58 -0.41,0 -0.44,0.41 -0.44,0.58 0,0.25 0.02,0.62 0.44,0.62 m -0.68,-0.6 c 0,0.27 -0.04,0.51 -0.31,0.51 -0.27,0 -0.3,-0.23 -0.3,-0.51 0,-0.26 0.03,-0.51 0.3,-0.51 0.28,0 0.31,0.21 0.31,0.51 m 0.1,-0.01 c 0,-0.28 -0.04,-0.58 -0.41,-0.58 -0.38,0 -0.4,0.39 -0.4,0.58 0,0.27 0.02,0.62 0.4,0.62 0.39,-0.01 0.41,-0.38 0.41,-0.62 m -1.05,0.6 c 0.02,0 0.03,-0.01 0.03,-0.03 v -0.11 c 0,-0.02 -0.01,-0.03 -0.03,-0.03 H 9.61 V 14.8 c 0,-0.02 -0.01,-0.04 -0.04,-0.04 h -0.1 c -0.03,0 -0.06,0 -0.09,0.02 l -0.16,0.06 c -0.02,0 -0.02,0.02 -0.02,0.04 v 0.06 c 0,0.02 0.01,0.03 0.03,0.03 h 0.18 v 0.79 h -0.2 c -0.02,0 -0.03,0.01 -0.03,0.03 v 0.11 c 0,0.02 0.01,0.03 0.03,0.03 z M 8.48,14.91 c 0.22,0 0.25,0.16 0.25,0.43 0,0.25 -0.04,0.43 -0.25,0.43 -0.2,0 -0.23,-0.18 -0.23,-0.43 0,-0.23 0.03,-0.43 0.23,-0.43 m 0,1.03 c 0.42,0 0.45,-0.4 0.45,-0.62 0,-0.26 -0.04,-0.58 -0.45,-0.58 -0.41,0 -0.44,0.41 -0.44,0.58 0,0.25 0.02,0.62 0.44,0.62"
   id="path238" />
	<g
   id="g252">
		<path
   class="st3"
   d="m 10.23,31.66 c -1.35,0.01 -2.44,1.11 -2.44,2.46 0.01,1.35 1.11,2.44 2.46,2.43 1.35,-0.01 2.44,-1.11 2.44,-2.46 -0.01,-1.35 -1.11,-2.44 -2.46,-2.43 m 0.03,5.23 c -1.53,0.01 -2.79,-1.23 -2.8,-2.77 -0.01,-1.53 1.23,-2.79 2.77,-2.8 1.53,-0.01 2.79,1.23 2.8,2.77 0,1.53 -1.24,2.79 -2.77,2.8"
   id="path240" />
		<path
   class="st3"
   d="m 10.23,31.66 c -0.85,0 -1.54,1.11 -1.54,2.46 0.01,1.35 0.71,2.44 1.56,2.44 0.85,0 1.54,-1.11 1.54,-2.46 -0.01,-1.35 -0.71,-2.45 -1.56,-2.44 m 0.03,5.23 c -1.04,0.01 -1.89,-1.24 -1.9,-2.77 -0.01,-1.53 0.83,-2.79 1.87,-2.79 1.04,-0.01 1.89,1.24 1.9,2.77 0,1.53 -0.83,2.78 -1.87,2.79"
   id="path242" />
		<path
   class="st3"
   d="m 10.23,31.66 c -0.15,0 -0.51,0.84 -0.5,2.45 0.01,1.61 0.37,2.45 0.53,2.45 0.15,0 0.51,-0.84 0.5,-2.45 -0.01,-1.62 -0.38,-2.45 -0.53,-2.45 m 0.03,5.23 c -0.58,0 -0.86,-1.44 -0.86,-2.78 -0.01,-1.34 0.25,-2.78 0.83,-2.79 0.58,0 0.86,1.44 0.86,2.78 0.01,1.34 -0.25,2.78 -0.83,2.79"
   id="path244" />
		
			<rect
   x="7.4899998"
   y="33.900002"
   transform="matrix(1,-0.0056333,0.0056333,1,-0.1918,0.0579)"
   class="st3"
   width="5.3800001"
   height="0.33000001"
   id="rect246" />
		
			<rect
   x="8.0100002"
   y="32.619999"
   transform="matrix(1,-0.0056333,0.0056333,1,-0.1845,0.0582)"
   class="st3"
   width="4.4499998"
   height="0.33000001"
   id="rect248" />
		<polygon
   class="st3"
   points="12.46,35.5 12.46,35.17 7.9,35.19 7.9,35.53 "
   id="polygon250" />
	</g>
	<path
   class="st2"
   d="m 27.12,33.02 v 0 H 24.64 L 22.7,33.01 c -1,-0.08 -1.8,-0.93 -1.8,-1.98 0,-1.1 0.87,-1.99 1.94,-1.99 0.16,0 0.31,0.02 0.46,0.05 0.33,-0.62 0.97,-1.05 1.72,-1.05 0.98,0 1.78,0.73 1.92,1.69 0.04,-0.01 0.09,-0.01 0.14,-0.01 0.89,0 1.61,0.74 1.61,1.65 -0.01,0.9 -0.71,1.63 -1.57,1.65 z"
   id="path254" />
	<path
   class="st3"
   d="m 35.26,27.47 c 0.1,0.1 0.27,0.1 0.38,0 0.1,-0.1 0.1,-0.27 0,-0.38 l -0.87,-0.88 h 3.09 c 0.15,0 0.27,-0.13 0.27,-0.28 0,-0.15 -0.12,-0.25 -0.27,-0.25 h -3.09 l 0.87,-0.88 c 0.1,-0.1 0.1,-0.27 0,-0.38 -0.1,-0.1 -0.27,-0.1 -0.38,0 l -1.41,1.52 z"
   id="path256" />
</g>

<g
   style="font-size:21.3333px;line-height:1.25;font-family:'Bw Modelica';-inkscape-font-specification:'Bw Modelica';letter-spacing:-0.04px;word-spacing:0px;fill:#ffffff;fill-opacity:1"
   id="text285"
   aria-label="COVID-19 Challenge"
   transform="translate(-2,-2)"><path
     id="path284"
     style="font-size:21.3333px;fill:#ffffff;fill-opacity:1"
     d="m 61.92414,33.956322 c 2.816,0 5.07733,-1.151999 6.54932,-3.114662 l -1.55733,-1.407998 c -1.06666,1.599998 -2.70933,2.645329 -4.97066,2.645329 -3.47732,0 -5.82399,-2.517329 -5.82399,-6.27199 0,-3.711994 2.32533,-6.186657 5.84533,-6.186657 2.02666,0 3.58399,0.895999 4.58666,2.13333 L 67.9828,20.30301 c -1.49333,-1.642664 -3.49866,-2.559996 -6.07999,-2.559996 -4.88533,0 -8.14932,3.221328 -8.14932,8.063987 0,4.885326 3.28532,8.149321 8.17065,8.149321 z" /><path
     id="path286"
     style="font-size:21.3333px;fill:#ffffff;fill-opacity:1"
     d="m 76.66112,22.137674 c -1.72799,0 -3.07199,0.661332 -3.88266,1.834663 v -6.869322 h -2.17599 v 16.639974 h 2.17599 v -6.78399 c 0,-1.770664 1.25867,-2.943995 3.15733,-2.943995 1.89867,0 3.15733,1.173331 3.15733,2.943995 v 6.78399 h 2.176 V 26.575 c 0,-2.666663 -1.856,-4.437326 -4.608,-4.437326 z" /><path
     id="path288"
     style="font-size:21.3333px;fill:#ffffff;fill-opacity:1"
     d="m 88.53644,22.137674 c -1.89867,0 -3.28533,0.533332 -4.416,1.535997 l 0.96,1.301331 c 0.768,-0.725332 1.68533,-1.109331 2.92266,-1.109331 1.92,0 3.09333,1.130665 3.09333,2.943995 v 0.511999 c -0.98133,-0.213333 -2.02666,-0.319999 -2.94399,-0.319999 -2.85866,0 -4.75733,1.407998 -4.75733,3.541328 0,2.047996 1.55733,3.413328 3.84,3.413328 1.59999,0 3.09332,-0.810666 3.88266,-2.218664 l 0.0427,2.005331 h 2.112 V 26.575 c 0,-2.666663 -1.89866,-4.437326 -4.73599,-4.437326 z m -0.68267,10.239983 c -1.38666,0 -2.176,-0.746665 -2.176,-1.898663 0,-1.173332 1.088,-1.962664 2.752,-1.962664 0.832,0 1.77066,0.106667 2.66666,0.298666 -0.0213,2.26133 -1.66399,3.562661 -3.24266,3.562661 z" /><path
     id="path290"
     style="font-size:21.3333px;fill:#ffffff;fill-opacity:1"
     d="m 96.35676,33.742989 h 2.17599 V 17.103015 h -2.17599 z" /><path
     id="path292"
     style="font-size:21.3333px;fill:#ffffff;fill-opacity:1"
     d="m 101.81675,33.742989 h 2.176 V 17.103015 h -2.176 z" /><path
     id="path294"
     style="font-size:21.3333px;fill:#ffffff;fill-opacity:1"
     d="m 117.58072,27.897664 c 0,-3.455994 -2.19733,-5.75999 -5.50399,-5.75999 -3.32799,0 -5.52532,2.389329 -5.52532,5.95199 0,3.519995 2.26133,5.866658 5.61066,5.866658 2.09066,0 3.83999,-0.917332 4.90666,-2.495996 l -1.664,-0.895999 c -0.78933,1.023998 -1.89867,1.663997 -3.264,1.663997 -1.98399,0 -3.07199,-1.322664 -3.28533,-3.391994 h 8.68266 c 0.0427,-0.256 0.0427,-0.661333 0.0427,-0.938666 z m -5.50399,-4.031993 c 1.87733,0 3.072,1.301331 3.264,3.477328 h -6.48533 c 0.192,-2.154664 1.344,-3.477328 3.22133,-3.477328 z" /><path
     id="path296"
     style="font-size:21.3333px;fill:#ffffff;fill-opacity:1"
     d="m 126.08604,22.137674 c -1.74933,0 -3.11467,0.682665 -3.92533,1.898663 l -0.0427,-1.68533 h -2.09066 v 11.391982 h 2.176 v -6.78399 c 0,-1.770664 1.25866,-2.943995 3.15732,-2.943995 1.89867,0 3.15733,1.173331 3.15733,2.943995 v 6.78399 h 2.176 V 26.575 c 0,-2.666663 -1.856,-4.437326 -4.60799,-4.437326 z" /><path
     id="path298"
     style="font-size:21.3333px;fill:#ffffff;fill-opacity:1"
     d="m 142.76136,22.351007 -0.0427,2.090663 c -0.81067,-1.407998 -2.19733,-2.303996 -4.20266,-2.303996 -3.136,0 -5.46133,2.346663 -5.46133,5.866657 0,3.562661 2.32533,5.951991 5.46133,5.951991 2.00533,0 3.37066,-0.874666 4.18133,-2.26133 v 1.045332 c 0,2.431996 -1.74933,4.031993 -4.37333,4.031993 -1.77066,0 -3.24266,-0.447999 -4.50133,-1.322664 l -0.46933,1.727997 c 1.28,0.981332 3.02933,1.471998 5.03466,1.471998 3.90399,0 6.48532,-2.32533 6.48532,-5.845325 V 22.351007 Z m -3.75466,9.727984 c -2.21867,0 -3.69067,-1.621331 -3.69067,-4.053327 0,-2.410663 1.472,-4.01066 3.69067,-4.01066 2.19732,0 3.69066,1.621331 3.69066,4.031994 0,2.410662 -1.49334,4.031993 -3.69066,4.031993 z" /><path
     id="path300"
     style="font-size:21.3333px;fill:#ffffff;fill-opacity:1"
     d="m 158.37732,27.897664 c 0,-3.455994 -2.19733,-5.75999 -5.50399,-5.75999 -3.32799,0 -5.52532,2.389329 -5.52532,5.95199 0,3.519995 2.26133,5.866658 5.61066,5.866658 2.09066,0 3.83999,-0.917332 4.90666,-2.495996 l -1.664,-0.895999 c -0.78933,1.023998 -1.89867,1.663997 -3.264,1.663997 -1.98399,0 -3.07199,-1.322664 -3.28532,-3.391994 h 8.68265 c 0.0427,-0.256 0.0427,-0.661333 0.0427,-0.938666 z m -5.50399,-4.031993 c 1.87733,0 3.072,1.301331 3.264,3.477328 h -6.48532 c 0.19199,-2.154664 1.34399,-3.477328 3.22132,-3.477328 z" /></g></svg>
