<?xml version="1.0" encoding="utf-8"?>
<!-- Generator: Adobe Illustrator 18.1.1, SVG Export Plug-In . SVG Version: 6.00 Build 0)  -->
<svg version="1.1" id="Layer_1_copy" xmlns="http://www.w3.org/2000/svg" xmlns:xlink="http://www.w3.org/1999/xlink" x="0px"
	 y="0px" viewBox="0 0 153.5 106.7" enable-background="new 0 0 153.5 106.7" xml:space="preserve">
<rect x="31.4" y="73.6" fill="#FFFFFF" width="66.1" height="29.4"/>
<g>
	<path fill="#646567" d="M35.2,80.1c0-0.1,0.1-0.2,0.2-0.2h3.8c0.1,0,0.2,0.1,0.2,0.2v0.6c0,0.1-0.1,0.2-0.2,0.2h-2.8v1.8H39
		c0.1,0,0.2,0.1,0.2,0.2v0.6c0,0.1-0.1,0.2-0.2,0.2h-2.5v2.1h2.9c0.1,0,0.2,0.1,0.2,0.2v0.6c0,0.1-0.1,0.2-0.2,0.2h-3.9
		c-0.1,0-0.2-0.1-0.2-0.2V80.1z M44.4,86.8c0.1,0,0.2-0.1,0.2-0.2v-4.7c0-0.1-0.1-0.2-0.2-0.2h-0.7c-0.2,0-0.2,0.1-0.2,0.2v3.5
		c-0.3,0.1-1,0.5-1.4,0.5c-0.6,0-0.8-0.4-0.8-1v-2.9c0-0.1-0.1-0.2-0.2-0.2h-0.8c-0.1,0-0.2,0.1-0.2,0.2V85c0,1.1,0.1,1.9,1.5,1.9
		c0.6,0,1.3-0.3,1.8-0.6l0,0v0.3c0,0.1,0,0.2,0.2,0.2H44.4 M46.6,83.3c0.4-0.2,1.1-0.4,1.7-0.5c0.2,0,0.2-0.1,0.2-0.3l-0.1-0.7
		c0-0.2-0.1-0.2-0.3-0.2c-0.5,0.1-1.2,0.4-1.5,0.7l0,0v-0.5c0-0.1-0.1-0.2-0.2-0.2h-0.7c-0.1,0-0.2,0.1-0.2,0.2v4.7
		c0,0.1,0.1,0.2,0.2,0.2h0.8c0.1,0,0.2-0.1,0.2-0.2V83.3z M51,86.9c2.2,0,2.3-1.5,2.3-2.7c0-1.2-0.3-2.6-2.3-2.6
		c-2,0-2.2,1.6-2.2,2.6C48.8,85.4,48.9,86.9,51,86.9 M51,82.6c0.9,0,1.1,0.5,1.1,1.6c0,1.1-0.2,1.6-1.1,1.6c-0.9,0-1.1-0.5-1.1-1.6
		C49.9,83.2,50.1,82.6,51,82.6 M56.3,86.9c1.6,0,2.1-1,2.1-2.7c0-1.6-0.4-2.6-1.7-2.6c-0.6,0-1.3,0.4-1.6,0.6l0,0v-0.3
		c0-0.1,0-0.2-0.2-0.2h-0.7c-0.1,0-0.2,0.1-0.2,0.2v6.6c0,0.1,0,0.2,0.2,0.2h0.7c0.2,0,0.2-0.1,0.2-0.2v-1.8l0,0
		C55.5,86.9,56,86.9,56.3,86.9 M56.4,82.7c0.6,0,0.8,0.2,0.8,1.6c0,1.3-0.3,1.7-1,1.7c-0.4,0-0.7,0-1.2-0.2v-2.6
		C55.3,83,56,82.7,56.4,82.7 M63,84.6c0.4,0,0.5-0.3,0.5-0.6c0-1.1-0.4-2.3-2.2-2.3c-2,0-2.2,1.7-2.2,2.7c0,1.4,0.3,2.6,2.3,2.6
		c0.5,0,1.3-0.1,1.7-0.3c0.2-0.1,0.2-0.2,0.2-0.3L63.1,86c0-0.2-0.1-0.2-0.3-0.2c-0.4,0-1,0.1-1.4,0.1c-0.9,0-1.2-0.3-1.3-1.3H63z
		 M60.2,83.8c0.1-0.8,0.3-1.3,1-1.3c0.9,0,1,0.6,1,1.3H60.2 M67.3,86.3c0.1,0.5,0.4,0.6,0.9,0.6c0.2,0,0.3,0,0.5-0.1
		c0.2,0,0.3-0.1,0.3-0.2v-0.4c0-0.1,0-0.1-0.2-0.2c-0.3,0-0.4-0.1-0.4-0.5v-2c0-1.2-0.2-1.9-2-1.9c-0.5,0-1.3,0.1-1.8,0.2
		c-0.2,0.1-0.3,0.2-0.2,0.3l0.1,0.4c0,0.1,0.1,0.2,0.3,0.1c0.4,0,1.1-0.1,1.4-0.1c0.9,0,1.1,0.2,1.1,0.8v0.3h-1.3
		c-1.3,0-2,0.5-2,1.7c0,0.9,0.3,1.5,1.4,1.5C66,86.9,66.7,86.6,67.3,86.3L67.3,86.3z M67.2,85.5c-0.4,0.2-1,0.5-1.5,0.5
		c-0.5,0-0.6-0.1-0.6-0.6c0-0.7,0.3-0.9,0.9-0.9h1.3V85.5z M73.4,86.8c0.2,0,0.2-0.1,0.2-0.2v-3c0-1.1-0.1-2-1.5-2
		c-0.6,0-1.4,0.4-1.8,0.6c0,0,0,0,0,0v-0.3c0-0.1-0.1-0.2-0.2-0.2h-0.7c-0.1,0-0.2,0.1-0.2,0.2v4.7c0,0.1,0.1,0.2,0.2,0.2h0.7
		c0.1,0,0.2-0.1,0.2-0.2v-3.5c0.3-0.1,1-0.5,1.4-0.5c0.6,0,0.8,0.4,0.8,1l0,2.9c0,0.1,0.1,0.2,0.2,0.2H73.4 M38.1,90.9
		c-2.4,0-2.8,1.8-2.8,3.6c0,1.8,0.5,3.5,2.8,3.5c0.5,0,1.4-0.1,1.9-0.3c0.2-0.1,0.2-0.2,0.2-0.3l-0.1-0.4c0-0.1-0.1-0.2-0.3-0.2
		c-0.6,0.1-1.1,0.1-1.7,0.1c-1.4,0-1.6-1.1-1.6-2.4c0-1.4,0.2-2.5,1.6-2.5c0.5,0,1.2,0.1,1.7,0.1c0.2,0,0.2,0,0.3-0.2l0.1-0.4
		c0-0.2,0-0.3-0.2-0.3C39.4,90.9,38.6,90.9,38.1,90.9 M42.5,97.9c2.2,0,2.3-1.5,2.3-2.7c0-1.2-0.3-2.6-2.3-2.6c-2,0-2.2,1.6-2.2,2.6
		C40.3,96.4,40.4,97.9,42.5,97.9 M42.5,93.6c0.9,0,1.1,0.5,1.1,1.6c0,1.1-0.2,1.6-1.1,1.6c-0.9,0-1.1-0.5-1.1-1.6
		C41.4,94.2,41.6,93.6,42.5,93.6 M52.7,97.9c0.1,0,0.2-0.1,0.2-0.2v-3.1c0-1-0.1-1.9-1.5-1.9c-0.7,0-1.3,0.3-1.8,0.7
		c-0.3-0.6-0.8-0.7-1.4-0.7c-0.6,0-1.1,0.3-1.6,0.6l0,0v-0.3c0-0.1-0.1-0.2-0.2-0.2h-0.7c-0.1,0-0.2,0.1-0.2,0.2v4.7
		c0,0.1,0.1,0.2,0.2,0.2h0.8c0.1,0,0.2-0.1,0.2-0.2v-3.5c0.4-0.2,1-0.5,1.3-0.5c0.5,0,0.7,0.3,0.7,0.9v3c0,0.1,0,0.2,0.2,0.2h0.8
		c0.2,0,0.2-0.1,0.2-0.2v-3c0-0.2,0-0.4,0-0.5c0.3-0.2,0.9-0.5,1.3-0.5c0.5,0,0.7,0.2,0.7,1v3c0,0.1,0.1,0.2,0.2,0.2H52.7
		 M60.9,97.9c0.1,0,0.2-0.1,0.2-0.2v-3.1c0-1-0.1-1.9-1.5-1.9c-0.7,0-1.3,0.3-1.8,0.7c-0.3-0.6-0.8-0.7-1.4-0.7
		c-0.6,0-1.1,0.3-1.6,0.6l0,0v-0.3c0-0.1-0.1-0.2-0.2-0.2h-0.7c-0.1,0-0.2,0.1-0.2,0.2v4.7c0,0.1,0.1,0.2,0.2,0.2h0.8
		c0.1,0,0.2-0.1,0.2-0.2v-3.5c0.4-0.2,1-0.5,1.3-0.5c0.5,0,0.7,0.3,0.7,0.9v3c0,0.1,0,0.2,0.2,0.2h0.8c0.2,0,0.2-0.1,0.2-0.2v-3
		c0-0.2,0-0.4,0-0.5c0.3-0.2,0.9-0.5,1.3-0.5c0.5,0,0.7,0.2,0.7,1v3c0,0.1,0.1,0.2,0.2,0.2H60.9 M62.5,92c0.5,0,0.6-0.3,0.6-0.6
		c0-0.4-0.1-0.6-0.6-0.6c-0.5,0-0.6,0.3-0.6,0.6C61.9,91.7,62,92,62.5,92 M63.1,92.9c0-0.1,0-0.2-0.2-0.2h-0.7
		c-0.1,0-0.2,0.1-0.2,0.2v4.7c0,0.1,0.1,0.2,0.2,0.2h0.7c0.1,0,0.2-0.1,0.2-0.2V92.9z M65.6,97.9c1.1,0,2.1-0.4,2.1-1.6
		c0-1.2-0.9-1.4-1.9-1.6c-0.6-0.1-0.9-0.2-0.9-0.6c0-0.4,0.2-0.6,0.8-0.6c0.4,0,1,0.1,1.4,0.1c0.2,0,0.3,0,0.3-0.1l0.1-0.4
		c0-0.2,0-0.2-0.2-0.3c-0.4-0.2-1.2-0.2-1.6-0.2c-1.2,0-2,0.5-2,1.6c0,1.1,0.9,1.4,1.9,1.5c0.7,0.1,0.8,0.2,0.8,0.7
		c0,0.4-0.3,0.6-0.9,0.6c-0.4,0-1-0.1-1.5-0.1c-0.2,0-0.2,0-0.3,0.2l-0.1,0.3c0,0.2,0,0.3,0.2,0.3C64.4,97.9,65.1,97.9,65.6,97.9
		 M70,97.9c1.1,0,2.1-0.4,2.1-1.6c0-1.2-0.9-1.4-1.9-1.6c-0.6-0.1-0.9-0.2-0.9-0.6c0-0.4,0.2-0.6,0.8-0.6c0.4,0,1,0.1,1.4,0.1
		c0.2,0,0.3,0,0.3-0.1l0.1-0.4c0-0.2,0-0.2-0.2-0.3c-0.4-0.2-1.2-0.2-1.6-0.2c-1.2,0-2,0.5-2,1.6c0,1.1,0.9,1.4,1.9,1.5
		c0.7,0.1,0.8,0.2,0.8,0.7c0,0.4-0.3,0.6-0.9,0.6c-0.4,0-1-0.1-1.5-0.1c-0.2,0-0.2,0-0.3,0.2l-0.1,0.3c0,0.2,0,0.3,0.2,0.3
		C68.8,97.9,69.5,97.9,70,97.9 M73.4,92c0.5,0,0.6-0.3,0.6-0.6c0-0.4-0.1-0.6-0.6-0.6c-0.5,0-0.6,0.3-0.6,0.6
		C72.8,91.7,72.9,92,73.4,92 M74,92.9c0-0.1,0-0.2-0.2-0.2H73c-0.1,0-0.2,0.1-0.2,0.2v4.7c0,0.1,0.1,0.2,0.2,0.2h0.7
		c0.1,0,0.2-0.1,0.2-0.2V92.9z M77,97.9c2.2,0,2.3-1.5,2.3-2.7c0-1.2-0.3-2.6-2.3-2.6c-2,0-2.2,1.6-2.2,2.6
		C74.7,96.4,74.9,97.9,77,97.9 M77,93.6c0.9,0,1.1,0.5,1.1,1.6c0,1.1-0.2,1.6-1.1,1.6c-0.9,0-1.1-0.5-1.1-1.6
		C75.9,94.2,76.1,93.6,77,93.6 M84.1,97.9c0.2,0,0.2-0.1,0.2-0.2v-3c0-1.1-0.1-2-1.5-2c-0.6,0-1.4,0.4-1.8,0.6c0,0,0,0,0,0v-0.3
		c0-0.1-0.1-0.2-0.2-0.2H80c-0.1,0-0.2,0.1-0.2,0.2v4.7c0,0.1,0.1,0.2,0.2,0.2h0.7c0.1,0,0.2-0.1,0.2-0.2v-3.5
		c0.3-0.1,1-0.5,1.4-0.5c0.6,0,0.8,0.4,0.8,1l0,2.9c0,0.1,0.1,0.2,0.2,0.2H84.1"/>
	<path fill="#BDBCBC" d="M0,25c0,0,42.2-4.5,42.7-4.6c1.3-0.1,2.6-0.3,3.8-0.4c1.9-0.3,3.6-0.6,5.2-1c3.5-0.9,6.8-2.3,9.7-4.2
		c2.8-1.8,5.6-4.2,8.2-7.2c2-2.2,3.9-4.7,5.9-7.7v1.2c-1.7,2.5-3.4,5.1-5.1,7c-2.7,3.1-5.3,5.9-8.2,7.9c-3,2-6.4,3.6-10.1,4.6
		c-1.6,0.5-3.4,0.8-5.3,1.2C45.5,22.1,0,28,0,28V25z M61,20.3c-2.8,1.6-6.1,2.9-9.8,3.6c-1.6,0.3-3.2,0.6-5.2,0.8
		c-1.1,0.1-2.3,0.2-3.4,0.3c-0.6,0.1-1.2,0.1-1.8,0.2C26.8,26.4,13,27.8,0,29v3c13.1-1.6,27-3.3,41-4.9c0.6-0.1,1.2-0.1,1.9-0.2
		c1.1-0.1,2.3-0.3,3.4-0.4c2-0.3,3.7-0.6,5.3-0.9c3.8-0.9,7.2-2.2,10.1-4c2.9-1.8,5.5-4.3,8.3-7.3c1.7-1.9,3.7-4.6,5.5-7.1V6.2
		c-2.1,2.9-4.1,5.4-6.1,7.4C66.6,16.4,63.8,18.7,61,20.3 M69,19.6c-2.8,2.6-5.7,4.6-8.6,6c-2.9,1.4-6.1,2.4-9.8,3
		c-1.5,0.3-3.2,0.5-5.1,0.6L0,33v3l40.3-4.3l5.2-0.6c2-0.2,3.7-0.5,5.2-0.8c3.9-0.7,7.2-1.8,10.2-3.4c3-1.5,6.1-4.1,8.9-6.8
		c1.9-1.8,3.7-4.2,5.7-6.7v-1C73.3,15.3,71.1,17.6,69,19.6 M58,35c-2.6,1.5-4.6,2.3-8.4,2.7c-2.3,0.2-4.6,0.4-6.9,0.5
		c-1.1,0.1-2.2,0.1-3.3,0.2c-6.9,0.4-13.6,0.8-20.5,1.3L0,41v3l19.2-1.8c6.2-0.6,13.4-1.2,20.4-1.8l5.1-0.4c2-0.2,3.6-0.3,5.1-0.5
		c3.9-0.5,7.2-1.3,10.1-2.4c3.2-1.2,6.1-3,9.1-5.2c2.7-2,6.4-5.8,6.4-5.9v-1c-2.4,2.4-3.8,3.7-6.5,5.5C65.8,32.5,60.4,33.7,58,35
		 M59,40.6c-2.9,0.8-6.1,1.4-9.9,1.8c-1.5,0.1-3.2,0.2-5,0.3L39,42.9c-12.6,0.6-25.2,1.3-39,2v3c13.2-1,26.2-2,39.1-3l5.1-0.3
		c2-0.1,3.6-0.3,5.1-0.4c3.9-0.4,7.2-1.1,10.1-2.1c3.2-1,6.4-2.5,9.4-4.5c2.2-1.4,4.4-3.1,6.7-5.1v-0.1c-2.5,2.2-4.9,2.7-7.3,4.1
		C65.2,38.3,62.1,39.7,59,40.6 M58.5,45.6c-2.9,0.7-6,1.1-9.8,1.4c-1.5,0.1-3.1,0.2-5,0.2l-5,0.2C26,47.8,13.1,48.4,0,49v3
		c13-0.9,25.8-1.8,38.7-2.6l5-0.3c2-0.1,3.6-0.2,5-0.4c3.9-0.4,7.1-0.9,10-1.7c3.3-0.9,6.5-2.1,9.6-3.7c2.3-1.3,4.7-2.8,7.1-4.6
		v-1.3c-2.6,1.9-5.1,3.5-7.7,4.7C64.9,43.7,61.7,44.8,58.5,45.6 M58.1,50.4c-2.9,0.5-6,0.9-9.8,1.1c-1.4,0.1-3,0.1-5,0.2L0,52.8v3
		l38.4-2l5-0.3c1.9-0.1,3.5-0.2,5-0.3c3.9-0.3,7-0.7,10-1.3c3.3-0.7,6.6-1.7,9.7-3c2.5-1.1,4.9-2.3,7.5-3.9v-1.2
		c-2.7,1.6-5.4,2.9-8,3.9C64.5,48.9,61.3,49.8,58.1,50.4 M57.7,55.2c-5.3,0.7-10.8,0.8-16.1,0.9c-1.2,0-2.4,0-3.6,0.1L0,56.8v3
		l38.1-1.7c1.2-0.1,2.4-0.1,3.6-0.2c5.3-0.2,10.8-0.4,16.2-1.3c3.4-0.5,6.7-1.3,9.7-2.4c2.5-0.9,5.2-2,7.8-3.3v-1.1
		c-2.8,1.3-5.5,2.4-8.2,3.2C64.3,54.1,61.1,54.8,57.7,55.2 M57.4,60.1c-5,0.4-10.1,0.4-15,0.4c-1.5,0-3.1,0-4.6,0
		C25.2,60.6,12.7,60.7,0,60.8v3c12.1-0.4,25-0.8,37.9-1.2c1.5-0.1,3.1-0.1,4.6-0.1c5-0.1,10.1-0.3,15.1-0.8c3.5-0.4,6.7-0.9,9.8-1.7
		c2.7-0.7,5.4-1.5,8.2-2.6v-1.1c-2.8,1-5.7,1.9-8.4,2.5C64,59.3,60.9,59.8,57.4,60.1 M57.2,64.9C55.2,65,52.9,65,50.4,65
		c-1,0-1.9,0-2.9,0l-9.8-0.1c-6.7,0-13.3-0.1-19.6-0.1L0,64.8v3l18.1-0.5c6.2-0.2,12.9-0.3,19.6-0.4l9.8-0.1c2.7,0,6.2-0.1,9.8-0.4
		c3.5-0.2,6.7-0.6,9.8-1.1c2.8-0.4,5.6-1,8.4-1.8v-1c-2.9,0.7-5.8,1.2-8.6,1.6C63.9,64.5,60.7,64.7,57.2,64.9 M47.4,69.5l-9.8-0.1
		C25.1,69.2,12.7,69,0,68.8v3c12.1-0.1,25-0.2,37.6-0.3l9.8-0.1c3.3-0.1,6.5-0.1,9.8-0.2c6.7-0.2,12.7-0.7,18.3-1.4v-1
		c-5.6,0.6-11.7,0.9-18.4,1C53.9,69.6,50.6,69.6,47.4,69.5 M75.5,74.7L0,72.8v3h75.5V74.7z M68.7,25.2c-2.9,2.3-5.1,4-8.6,5.4
		c-3.1,1.2-6.3,1.7-10.1,2.2c-2.4,0.3-4.9,0.8-7.3,1c-1,0.1-2,0.1-3,0.2L0,36.9v3L39.9,36l5.2-0.5c1.9-0.2,3.6-0.4,5.2-0.7
		c3.9-0.6,7.2-1.6,10.2-2.9c3.1-1.4,6.2-3.6,9.1-6.1c2-1.7,3.9-3.8,6-6.1v-1.1C73,21.3,70.9,23.4,68.7,25.2 M107.6,5.1
		c0,0,12.8,18.4,15.9,22.8c3.7,5.2,7.1,5.8,15.3,7.7c8.2,1.8,14.6,3.2,14.6,3.2V38c0,0-4.4-1-14.4-3.1c-10.1-2.1-12.9-5.3-15.4-9.2
		c-2.5-4-16.1-25.6-16.1-25.6V5.1z M107.6,28.5c0,0,12.4,11.6,15.9,14.9c3.9,3.6,8.6,4.2,15.4,5.4c6.9,1.2,14.5,2.4,14.5,2.4v-0.7
		c0,0-8.1-1.3-14.5-2.5c-6.7-1.2-11.6-2.7-15.4-6.6c-3.6-3.7-15.9-16.7-15.9-16.7V28.5z M107.6,34.1c0,0,11.2,9.2,15.9,13.1
		c4.1,3.3,8.5,3.8,15.4,4.9c6.9,1.1,14.5,2.4,14.5,2.4v-0.8c0,0-6-0.9-14.5-2.4c-8.5-1.5-11.6-2.6-15.4-6
		c-4.2-3.7-15.9-14.7-15.9-14.7V34.1z M107.6,40.1c0,0,10.9,7.7,16,11.1c5.2,3.5,9.6,3.8,15.4,4.5c5.8,0.7,14.5,2,14.5,2v-0.8
		c0,0-4.9-0.7-14.5-2.1c-9.6-1.4-13-3.6-15.5-5.4c-2.5-1.9-15.9-12.5-15.9-12.5V40.1z M107.6,45.8c0,0,11.2,6.5,15.9,9.1
		c4.7,2.6,9.1,3.5,15.4,4.2c6.4,0.7,14.5,1.6,14.5,1.6V60c0,0-4.6-0.6-14.5-1.8c-9.8-1.3-12.8-3.6-15.4-5c-2.6-1.4-16-10.4-16-10.4
		V45.8z M107.6,51.6c0,0,11.1,5.2,15.9,7.3c5.4,2.4,8,2.7,15.4,3.4c7.5,0.7,14.5,1.5,14.5,1.5v-0.7c0,0-7.6-0.8-14.5-1.6
		c-7-0.8-10.9-1.9-15.4-4.2c-4-2-15.9-8.5-15.9-8.5V51.6z M107.6,57.5c0,0,10.3,3.6,16,5.5c5.6,1.9,8.5,2.1,15.4,2.7
		c6.9,0.6,14.5,1.2,14.5,1.2v-0.7c0,0-12.7-1.3-14.4-1.5c-4-0.4-8.9-0.7-15.4-3.2c-6.6-2.6-16-6.7-16-6.7V57.5z M107.6,63.5
		c0,0,11.7,2.8,15.9,3.7c3.8,0.8,9,1.3,15.4,1.8c8,0.6,14.5,1,14.5,1v-0.7c0,0-11.5-0.9-14.5-1.1c-3-0.2-9-0.9-15.4-2.6
		c-6.5-1.7-16-4.6-16-4.6V63.5z M107.6,69.5c0,0,8.3,1.1,15.9,1.8c3.4,0.4,9.4,0.7,15.4,1.1c5.8,0.3,14.5,0.8,14.5,0.8v-0.7
		c0,0-13.6-0.9-14.5-1c-0.9,0-9.2-0.7-15.4-1.7c-8.2-1.4-16-2.7-16-2.7V69.5z M107.6,75.8h45.9v-0.7c0,0-26.2-1.1-29.9-1.1
		c-3.7-0.1-16-0.5-16-0.5V75.8z M139,38.2c-11.1-2.4-13.6-6.4-15.5-9c-1.9-2.5-15.9-23-15.9-23v4.6c0.6,0.7,12.6,16.5,15.9,20.8
		c3.8,4.9,9.8,6,15.4,7.2c5.7,1.2,14.5,2.9,14.5,2.9v-0.6C153.5,41.1,141.9,38.8,139,38.2 M139,41.4c-9.1-1.8-12.8-4.7-15.5-8.2
		c-2.7-3.5-15.9-20.9-15.9-20.9v4.4c0.6,0.7,12.7,15,15.9,18.7c3.8,4.3,9.1,5.5,15.5,6.7c6.4,1.2,14.5,2.7,14.5,2.7v-0.6
		C153.5,44.2,144.3,42.5,139,41.4 M139,44.8c-9.5-1.8-11.4-3.4-15.4-7.7c-2.5-2.8-15.4-18-15.9-18.6v4.1c0,0,12,12.8,15.9,16.6
		c5.1,5,9.8,5.4,15.5,6.4c5.6,1,14.5,2.6,14.5,2.6v-0.7C153.5,47.4,142.8,45.5,139,44.8"/>
	<path fill="#0751A0" d="M31.4,103h66.1v3.8H31.4V103z M97.5,31.5H31.4v44.2h66.1V31.5z"/>
	<path fill="#FCEE23" d="M65.2,37.8h2.3l-1.9,1.4l0.7,2.3l-1.8-1.4l-1.8,1.4l0.7-2.3l-1.9-1.4h2.3l0.7-2.2L65.2,37.8z M64.6,65.2
		l-0.7,2.2h-2.3l1.9,1.4l-0.7,2.2l1.8-1.4l1.8,1.4l-0.7-2.2l1.9-1.4h-2.3L64.6,65.2z M71.9,63.2l-0.7,2.2h-2.3l1.9,1.4L70,69
		l1.8-1.4l1.8,1.4L73,66.8l1.9-1.4h-2.3L71.9,63.2z M71.9,37.6l-0.7,2.2h-2.3l1.9,1.4L70,43.4l1.8-1.4l1.8,1.4L73,41.2l1.9-1.4h-2.3
		L71.9,37.6z M77.3,43l-0.7,2.2h-2.3l1.9,1.4l-0.7,2.2l1.8-1.4l1.8,1.4l-0.7-2.2l1.9-1.4H78L77.3,43z M77.3,57.9L76.6,60h-2.3
		l1.9,1.4l-0.7,2.2l1.8-1.4l1.8,1.4l-0.7-2.2l1.9-1.4H78L77.3,57.9z M79.3,50.3l-0.7,2.1h-2.3l1.9,1.4l-0.7,2.2l1.8-1.4l1.8,1.4
		l-0.7-2.2l1.9-1.4H80L79.3,50.3z M57,37.6l-0.7,2.2h-2.3l1.9,1.4l-0.7,2.2L57,42l1.8,1.4l-0.7-2.2l1.9-1.4h-2.3L57,37.6z
		 M51.8,43.1l-0.7,2.2h-2.3l1.9,1.4l-0.7,2.2l1.8-1.4l1.8,1.4l-0.7-2.2l1.9-1.4h-2.3L51.8,43.1z M49.8,50.4l-0.7,2.1h-2.3l1.9,1.4
		L48,56.1l1.8-1.4l1.8,1.4L51,53.9l1.9-1.4h-2.3L49.8,50.4z M51.8,57.9L51.1,60h-2.3l1.9,1.4l-0.7,2.2l1.8-1.4l1.8,1.4l-0.7-2.2
		l1.9-1.4h-2.3L51.8,57.9z M57.1,63.2l-0.7,2.2h-2.3l1.9,1.4L55.3,69l1.8-1.4L59,69l-0.7-2.2l1.9-1.4h-2.3L57.1,63.2z"/>
</g>
</svg>
