<?xml version="1.0" encoding="utf-8"?>
<!-- Generator: Adobe Illustrator 23.0.3, SVG Export Plug-In . SVG Version: 6.00 Build 0)  -->
<svg version="1.1" id="Layer_1" xmlns="http://www.w3.org/2000/svg" xmlns:xlink="http://www.w3.org/1999/xlink" x="0px" y="0px"
	 viewBox="5 11.5 112 28.5" style="enable-background:new 0 0 120 50;" xml:space="preserve">
<style type="text/css">
	.st0{fill:none;stroke:#466280;stroke-width:0.6615;stroke-miterlimit:10;}
	.st1{fill:#466280;}
	.st2{fill:none;stroke:#FFFFFF;stroke-width:0.6615;stroke-miterlimit:10;}
	.st3{fill:#FFFFFF;}
</style>
<g>
	<path class="st2" d="M16.97,17.92c0,3.1-2.51,5.61-5.61,5.61s-5.61-2.51-5.61-5.61s2.51-5.61,5.61-5.61S16.97,14.82,16.97,17.92z"
		/>
	<line class="st2" x1="14.7" y1="34.18" x2="18.98" y2="33.02"/>
	<line class="st2" x1="20.22" y1="26.44" x2="15.64" y2="21.46"/>
	<line class="st2" x1="30.88" y1="28.57" x2="33.1" y2="27.27"/>
	<polyline class="st2" points="26.61,19.6 30.83,19.6 30.83,15.33 	"/>
	<line class="st2" x1="25.49" y1="24.56" x2="25.49" y2="20.72"/>
	<line class="st2" x1="28.99" y1="35.36" x2="34.48" y2="35.36"/>
	<path class="st2" d="M14.7,34.18c0,2.46-1.99,4.45-4.45,4.45S5.8,36.64,5.8,34.18s1.99-4.45,4.45-4.45S14.7,31.72,14.7,34.18z"/>
	<path class="st2" d="M31.06,30.71c0,3.46-2.8,6.26-6.26,6.26c-3.46,0-6.26-2.8-6.26-6.26s2.8-6.26,6.26-6.26
		C28.25,24.45,31.06,27.26,31.06,30.71z"/>
	<circle class="st2" cx="25.49" cy="19.6" r="1.12"/>
	<circle class="st2" cx="30.83" cy="14.21" r="1.12"/>
	<path class="st2" d="M32.69,25.32c-0.35,1.82,0.85,3.58,2.68,3.93c1.82,0.35,3.59-0.85,3.93-2.68c0.35-1.82-0.85-3.58-2.68-3.93
		C34.8,22.3,33.04,23.5,32.69,25.32z"/>
	<circle class="st2" cx="35.6" cy="35.35" r="1.12"/>
	<path class="st3" d="M14.83,21.03c0.02,0,0.03-0.01,0.03-0.03v-0.11c0-0.02-0.01-0.03-0.03-0.03h-0.22V19.9
		c0-0.02-0.01-0.04-0.04-0.04h-0.1c-0.03,0-0.06,0-0.09,0.02l-0.16,0.06c-0.02,0.01-0.02,0.03-0.02,0.04v0.06
		c0,0.02,0.01,0.03,0.03,0.03h0.18v0.79h-0.2c-0.02,0-0.03,0.01-0.03,0.03V21c0,0.02,0.01,0.03,0.03,0.03H14.83z M13.48,20.02
		c0.22,0,0.25,0.16,0.25,0.43c0,0.25-0.04,0.43-0.25,0.43c-0.2,0-0.23-0.18-0.23-0.43C13.25,20.21,13.28,20.02,13.48,20.02
		 M13.48,21.05c0.42,0,0.45-0.4,0.45-0.62c0-0.26-0.04-0.58-0.45-0.58c-0.41,0-0.44,0.41-0.44,0.58
		C13.05,20.68,13.07,21.05,13.48,21.05 M12.47,20.02c0.22,0,0.25,0.16,0.25,0.43c0,0.25-0.04,0.43-0.25,0.43
		c-0.2,0-0.23-0.18-0.23-0.43C12.24,20.21,12.27,20.02,12.47,20.02 M12.47,21.05c0.42,0,0.45-0.4,0.45-0.62
		c0-0.26-0.04-0.58-0.45-0.58c-0.41,0-0.44,0.41-0.44,0.58C12.03,20.68,12.05,21.05,12.47,21.05 M11.46,20.02
		c0.22,0,0.25,0.16,0.25,0.43c0,0.25-0.04,0.43-0.25,0.43c-0.21,0-0.23-0.18-0.23-0.43C11.22,20.21,11.26,20.02,11.46,20.02
		 M11.46,21.05c0.42,0,0.45-0.4,0.45-0.62c0-0.26-0.04-0.58-0.45-0.58c-0.41,0-0.44,0.41-0.44,0.58
		C11.02,20.68,11.04,21.05,11.46,21.05 M10.78,20.45c0,0.27-0.04,0.51-0.31,0.51c-0.27,0-0.3-0.23-0.3-0.51
		c0-0.26,0.03-0.51,0.3-0.51C10.75,19.94,10.78,20.15,10.78,20.45 M10.88,20.43c0-0.28-0.04-0.58-0.41-0.58
		c-0.38,0-0.4,0.39-0.4,0.58c0,0.27,0.02,0.62,0.4,0.62C10.86,21.05,10.88,20.67,10.88,20.43 M9.83,21.03
		c0.02,0,0.03-0.01,0.03-0.03v-0.11c0-0.02-0.01-0.03-0.03-0.03H9.61V19.9c0-0.02-0.01-0.04-0.04-0.04h-0.1
		c-0.03,0-0.06,0-0.09,0.02l-0.16,0.06C9.2,19.95,9.2,19.97,9.2,19.98v0.06c0,0.02,0.01,0.03,0.03,0.03h0.18v0.79h-0.2
		c-0.02,0-0.03,0.01-0.03,0.03V21c0,0.02,0.01,0.03,0.03,0.03H9.83z M8.48,20.02c0.22,0,0.25,0.16,0.25,0.43
		c0,0.25-0.04,0.43-0.25,0.43c-0.2,0-0.23-0.18-0.23-0.43C8.25,20.21,8.28,20.02,8.48,20.02 M8.48,21.05c0.42,0,0.45-0.4,0.45-0.62
		c0-0.26-0.04-0.58-0.45-0.58c-0.41,0-0.44,0.41-0.44,0.58C8.04,20.68,8.06,21.05,8.48,21.05"/>
	<path class="st3" d="M14.72,19.25c0-0.01-0.01-0.02-0.02-0.02h-0.25v-1.06c0-0.01,0-0.02-0.02-0.02h-0.06c-0.02,0-0.04,0-0.05,0.01
		l-0.18,0.05c-0.01,0-0.01,0.01-0.01,0.02v0.03c0,0.01,0.01,0.02,0.02,0.02h0.21v0.95h-0.24c-0.01,0-0.02,0-0.02,0.02v0.06
		c0,0.01,0.01,0.02,0.02,0.02h0.59c0.01,0,0.02-0.01,0.02-0.02V19.25z M13.76,19.33c0.02,0,0.03-0.01,0.03-0.03v-0.11
		c0-0.02-0.01-0.03-0.03-0.03h-0.22v-0.96c0-0.02-0.01-0.04-0.04-0.04h-0.1c-0.03,0-0.06,0-0.09,0.02l-0.16,0.06
		c-0.02,0.01-0.02,0.03-0.02,0.04v0.06c0,0.02,0.01,0.03,0.03,0.03h0.18v0.79h-0.2c-0.02,0-0.03,0.01-0.03,0.03v0.11
		c0,0.02,0.01,0.03,0.03,0.03H13.76z M12.41,18.32c0.22,0,0.25,0.16,0.25,0.43c0,0.25-0.04,0.43-0.25,0.43
		c-0.21,0-0.23-0.18-0.23-0.43C12.18,18.51,12.21,18.32,12.41,18.32 M12.41,19.35c0.42,0,0.45-0.4,0.45-0.62
		c0-0.26-0.04-0.58-0.45-0.58c-0.41,0-0.44,0.41-0.44,0.58C11.97,18.98,11.99,19.35,12.41,19.35 M11.4,18.32
		c0.22,0,0.25,0.16,0.25,0.43c0,0.25-0.04,0.43-0.25,0.43c-0.2,0-0.23-0.18-0.23-0.43C11.16,18.51,11.2,18.32,11.4,18.32
		 M11.4,19.35c0.42,0,0.45-0.4,0.45-0.62c0-0.26-0.04-0.58-0.45-0.58c-0.41,0-0.44,0.41-0.44,0.58
		C10.96,18.98,10.98,19.35,11.4,19.35 M10.73,19.25c0-0.01-0.01-0.02-0.02-0.02h-0.25v-1.06c0-0.01,0-0.02-0.02-0.02h-0.06
		c-0.02,0-0.04,0-0.05,0.01l-0.18,0.05c-0.01,0-0.01,0.01-0.01,0.02v0.03c0,0.01,0.01,0.02,0.02,0.02h0.21v0.95h-0.24
		c-0.01,0-0.02,0-0.02,0.02v0.06c0,0.01,0.01,0.02,0.02,0.02h0.59c0.01,0,0.02-0.01,0.02-0.02V19.25z M9.43,18.32
		c0.22,0,0.25,0.16,0.25,0.43c0,0.25-0.04,0.43-0.25,0.43c-0.2,0-0.23-0.18-0.23-0.43C9.2,18.51,9.23,18.32,9.43,18.32 M9.43,19.35
		c0.42,0,0.45-0.4,0.45-0.62c0-0.26-0.04-0.58-0.45-0.58C9.02,18.15,9,18.56,9,18.73C9,18.98,9.02,19.35,9.43,19.35 M8.76,19.25
		c0-0.01-0.01-0.02-0.02-0.02H8.5v-1.06c0-0.01,0-0.02-0.02-0.02H8.42c-0.02,0-0.04,0-0.05,0.01l-0.18,0.05
		c-0.01,0-0.01,0.01-0.01,0.02v0.03c0,0.01,0.01,0.02,0.02,0.02H8.4v0.95H8.16c-0.01,0-0.02,0-0.02,0.02v0.06
		c0,0.01,0.01,0.02,0.02,0.02h0.59c0.01,0,0.02-0.01,0.02-0.02V19.25z"/>
	<path class="st3" d="M14.71,17.04c0,0.27-0.04,0.51-0.31,0.51c-0.27,0-0.3-0.23-0.3-0.51c0-0.26,0.03-0.51,0.3-0.51
		C14.68,16.53,14.71,16.74,14.71,17.04 M14.81,17.03c0-0.28-0.04-0.58-0.41-0.58c-0.38,0-0.4,0.39-0.4,0.58
		c0,0.27,0.02,0.62,0.4,0.62C14.79,17.64,14.81,17.27,14.81,17.03 M13.76,17.63c0.02,0,0.03-0.01,0.03-0.03v-0.11
		c0-0.02-0.01-0.03-0.03-0.03h-0.22v-0.96c0-0.02-0.01-0.04-0.04-0.04h-0.1c-0.03,0-0.06,0-0.09,0.02l-0.16,0.06
		c-0.02,0.01-0.02,0.03-0.02,0.04v0.06c0,0.02,0.01,0.03,0.03,0.03h0.18v0.79h-0.2c-0.02,0-0.03,0.01-0.03,0.03v0.11
		c0,0.02,0.01,0.03,0.03,0.03H13.76z M12.75,17.04c0,0.27-0.04,0.51-0.31,0.51c-0.27,0-0.3-0.23-0.3-0.51c0-0.26,0.03-0.51,0.3-0.51
		C12.72,16.53,12.75,16.74,12.75,17.04 M12.85,17.03c0-0.28-0.04-0.58-0.41-0.58c-0.38,0-0.4,0.39-0.4,0.58
		c0,0.27,0.02,0.62,0.4,0.62C12.82,17.64,12.85,17.27,12.85,17.03 M11.46,16.62c0.22,0,0.25,0.16,0.25,0.43
		c0,0.25-0.04,0.43-0.25,0.43c-0.2,0-0.23-0.18-0.23-0.43C11.22,16.81,11.26,16.62,11.46,16.62 M11.46,17.64
		c0.42,0,0.45-0.4,0.45-0.62c0-0.26-0.04-0.58-0.45-0.58c-0.41,0-0.44,0.41-0.44,0.58C11.02,17.28,11.04,17.64,11.46,17.64
		 M10.78,17.63c0.02,0,0.03-0.01,0.03-0.03v-0.11c0-0.02-0.01-0.03-0.03-0.03h-0.22v-0.96c0-0.02-0.01-0.04-0.04-0.04h-0.1
		c-0.03,0-0.06,0-0.09,0.02l-0.16,0.06c-0.02,0.01-0.02,0.03-0.02,0.04v0.06c0,0.02,0.01,0.03,0.03,0.03h0.18v0.79h-0.2
		c-0.02,0-0.03,0.01-0.03,0.03v0.11c0,0.02,0.01,0.03,0.03,0.03H10.78z M9.77,17.55c0-0.01-0.01-0.02-0.02-0.02H9.51v-1.06
		c0-0.01,0-0.02-0.02-0.02H9.43c-0.02,0-0.04,0-0.05,0.01l-0.18,0.05c-0.01,0-0.01,0.01-0.01,0.02v0.03c0,0.01,0.01,0.02,0.02,0.02
		h0.21v0.95H9.17c-0.01,0-0.02,0-0.02,0.02v0.06c0,0.01,0.01,0.02,0.02,0.02h0.59c0.01,0,0.02-0.01,0.02-0.02V17.55z M8.81,17.63
		c0.02,0,0.03-0.01,0.03-0.03v-0.11c0-0.02-0.01-0.03-0.03-0.03H8.6v-0.96c0-0.02-0.01-0.04-0.04-0.04h-0.1
		c-0.03,0-0.06,0-0.09,0.02l-0.16,0.06c-0.02,0.01-0.02,0.03-0.02,0.04v0.06c0,0.02,0.01,0.03,0.03,0.03H8.4v0.79H8.2
		c-0.02,0-0.03,0.01-0.03,0.03v0.11c0,0.02,0.01,0.03,0.03,0.03H8.81z"/>
	<path class="st3" d="M14.83,15.93c0.02,0,0.03-0.01,0.03-0.03v-0.11c0-0.02-0.01-0.03-0.03-0.03h-0.22v-0.96
		c0-0.02-0.01-0.04-0.04-0.04h-0.1c-0.03,0-0.06,0-0.09,0.02l-0.16,0.06c-0.02,0.01-0.02,0.03-0.02,0.04v0.06
		c0,0.02,0.01,0.03,0.03,0.03h0.18v0.79h-0.2c-0.02,0-0.03,0.01-0.03,0.03v0.11c0,0.02,0.01,0.03,0.03,0.03H14.83z M13.48,14.91
		c0.22,0,0.25,0.16,0.25,0.43c0,0.25-0.04,0.43-0.25,0.43c-0.2,0-0.23-0.18-0.23-0.43C13.25,15.11,13.28,14.91,13.48,14.91
		 M13.48,15.94c0.42,0,0.45-0.4,0.45-0.62c0-0.26-0.04-0.58-0.45-0.58c-0.41,0-0.44,0.41-0.44,0.58
		C13.05,15.57,13.07,15.94,13.48,15.94 M12.47,14.91c0.22,0,0.25,0.16,0.25,0.43c0,0.25-0.04,0.43-0.25,0.43
		c-0.2,0-0.23-0.18-0.23-0.43C12.24,15.11,12.27,14.91,12.47,14.91 M12.47,15.94c0.42,0,0.45-0.4,0.45-0.62
		c0-0.26-0.04-0.58-0.45-0.58c-0.41,0-0.44,0.41-0.44,0.58C12.03,15.57,12.05,15.94,12.47,15.94 M11.46,14.91
		c0.22,0,0.25,0.16,0.25,0.43c0,0.25-0.04,0.43-0.25,0.43c-0.21,0-0.23-0.18-0.23-0.43C11.22,15.11,11.26,14.91,11.46,14.91
		 M11.46,15.94c0.42,0,0.45-0.4,0.45-0.62c0-0.26-0.04-0.58-0.45-0.58c-0.41,0-0.44,0.41-0.44,0.58
		C11.02,15.57,11.04,15.94,11.46,15.94 M10.78,15.34c0,0.27-0.04,0.51-0.31,0.51c-0.27,0-0.3-0.23-0.3-0.51
		c0-0.26,0.03-0.51,0.3-0.51C10.75,14.83,10.78,15.04,10.78,15.34 M10.88,15.33c0-0.28-0.04-0.58-0.41-0.58
		c-0.38,0-0.4,0.39-0.4,0.58c0,0.27,0.02,0.62,0.4,0.62C10.86,15.94,10.88,15.57,10.88,15.33 M9.83,15.93
		c0.02,0,0.03-0.01,0.03-0.03v-0.11c0-0.02-0.01-0.03-0.03-0.03H9.61v-0.96c0-0.02-0.01-0.04-0.04-0.04h-0.1
		c-0.03,0-0.06,0-0.09,0.02l-0.16,0.06C9.2,14.84,9.2,14.86,9.2,14.88v0.06c0,0.02,0.01,0.03,0.03,0.03h0.18v0.79h-0.2
		c-0.02,0-0.03,0.01-0.03,0.03v0.11c0,0.02,0.01,0.03,0.03,0.03H9.83z M8.48,14.91c0.22,0,0.25,0.16,0.25,0.43
		c0,0.25-0.04,0.43-0.25,0.43c-0.2,0-0.23-0.18-0.23-0.43C8.25,15.11,8.28,14.91,8.48,14.91 M8.48,15.94c0.42,0,0.45-0.4,0.45-0.62
		c0-0.26-0.04-0.58-0.45-0.58c-0.41,0-0.44,0.41-0.44,0.58C8.04,15.57,8.06,15.94,8.48,15.94"/>
	<g>
		<path class="st3" d="M10.23,31.66c-1.35,0.01-2.44,1.11-2.44,2.46c0.01,1.35,1.11,2.44,2.46,2.43c1.35-0.01,2.44-1.11,2.44-2.46
			C12.68,32.74,11.58,31.65,10.23,31.66 M10.26,36.89c-1.53,0.01-2.79-1.23-2.8-2.77c-0.01-1.53,1.23-2.79,2.77-2.8
			c1.53-0.01,2.79,1.23,2.8,2.77C13.03,35.62,11.79,36.88,10.26,36.89"/>
		<path class="st3" d="M10.23,31.66c-0.85,0-1.54,1.11-1.54,2.46c0.01,1.35,0.71,2.44,1.56,2.44c0.85,0,1.54-1.11,1.54-2.46
			C11.78,32.75,11.08,31.65,10.23,31.66 M10.26,36.89c-1.04,0.01-1.89-1.24-1.9-2.77c-0.01-1.53,0.83-2.79,1.87-2.79
			c1.04-0.01,1.89,1.24,1.9,2.77C12.13,35.63,11.3,36.88,10.26,36.89"/>
		<path class="st3" d="M10.23,31.66c-0.15,0-0.51,0.84-0.5,2.45c0.01,1.61,0.37,2.45,0.53,2.45c0.15,0,0.51-0.84,0.5-2.45
			C10.75,32.49,10.38,31.66,10.23,31.66 M10.26,36.89c-0.58,0-0.86-1.44-0.86-2.78c-0.01-1.34,0.25-2.78,0.83-2.79
			c0.58,0,0.86,1.44,0.86,2.78C11.1,35.44,10.84,36.88,10.26,36.89"/>
		
			<rect x="7.49" y="33.9" transform="matrix(1 -5.633305e-03 5.633305e-03 1 -0.1918 0.0579)" class="st3" width="5.38" height="0.33"/>
		
			<rect x="8.01" y="32.62" transform="matrix(1 -5.633305e-03 5.633305e-03 1 -0.1845 0.0582)" class="st3" width="4.45" height="0.33"/>
		<polygon class="st3" points="7.9,35.19 7.9,35.53 12.46,35.5 12.46,35.17 		"/>
	</g>
	<path class="st2" d="M27.12,33.02L27.12,33.02h-2.48l-1.94-0.01c-1-0.08-1.8-0.93-1.8-1.98c0-1.1,0.87-1.99,1.94-1.99
		c0.16,0,0.31,0.02,0.46,0.05c0.33-0.62,0.97-1.05,1.72-1.05c0.98,0,1.78,0.73,1.92,1.69c0.04-0.01,0.09-0.01,0.14-0.01
		c0.89,0,1.61,0.74,1.61,1.65C28.68,32.27,27.98,33,27.12,33.02z"/>
	<path class="st3" d="M35.26,27.47c0.1,0.1,0.27,0.1,0.38,0c0.1-0.1,0.1-0.27,0-0.38l-0.87-0.88h3.09c0.15,0,0.27-0.13,0.27-0.28
		c0-0.15-0.12-0.25-0.27-0.25h-3.09l0.87-0.88c0.1-0.1,0.1-0.27,0-0.38c-0.1-0.1-0.27-0.1-0.38,0l-1.41,1.52L35.26,27.47z"/>
</g>
<g>
	<circle class="st3" cx="47.62" cy="13.2" r="1.2"/>
	<circle class="st3" cx="68.96" cy="13.2" r="1.2"/>
	<path class="st3" d="M68.92,18.27c-0.58,0-1.05,0.47-1.05,1.05v12.92c0,0.58,0.47,1.05,1.05,1.05s1.05-0.47,1.05-1.05V19.32
		C69.97,18.74,69.5,18.27,68.92,18.27z"/>
	<path class="st3" d="M65.77,25.46c0-0.03,0-0.07,0-0.11c0-0.04-0.01-0.08-0.01-0.12c-0.02-0.35-0.08-0.87-0.25-1.5
		c-0.17-0.63-0.46-1.39-0.96-2.16c-0.25-0.39-0.54-0.78-0.9-1.15c-0.35-0.37-0.76-0.73-1.23-1.05c-0.47-0.32-0.99-0.6-1.56-0.82
		c-0.07-0.03-0.14-0.05-0.22-0.08c-0.07-0.02-0.15-0.05-0.22-0.08c-0.07-0.02-0.15-0.04-0.22-0.07c-0.08-0.02-0.15-0.04-0.23-0.06
		c-0.08-0.02-0.15-0.04-0.23-0.05c-0.08-0.02-0.16-0.03-0.23-0.05c-0.08-0.01-0.16-0.03-0.24-0.04c-0.08-0.01-0.16-0.02-0.24-0.03
		c-0.04,0-0.08-0.01-0.12-0.01c-0.04,0-0.09-0.01-0.13-0.01c-0.09-0.01-0.18-0.01-0.26-0.02c-0.07,0-0.14,0-0.22-0.01l-0.11,0
		c0.02,0-0.04,0-0.04,0l-0.02,0l-0.03,0l-0.06,0c-0.08,0-0.17,0-0.25,0.01c-0.08,0-0.17,0.01-0.25,0.02
		c-0.17,0.01-0.34,0.04-0.51,0.06c-0.34,0.05-0.68,0.12-1.01,0.22l-0.13,0.04c-0.04,0.01-0.08,0.03-0.12,0.04
		c-0.08,0.03-0.17,0.06-0.25,0.09c-0.16,0.07-0.33,0.13-0.49,0.2c-0.32,0.14-0.64,0.32-0.94,0.51c-0.3,0.19-0.59,0.41-0.87,0.65
		c-0.55,0.47-1.04,1.03-1.44,1.65c-0.4,0.62-0.72,1.31-0.93,2.02l-0.08,0.27c-0.02,0.09-0.04,0.18-0.06,0.27
		c-0.01,0.05-0.02,0.09-0.03,0.14l-0.02,0.14c-0.02,0.09-0.03,0.18-0.05,0.28l-0.03,0.28c-0.01,0.05-0.01,0.1-0.01,0.15l-0.01,0.15
		l-0.01,0.15c0,0.03,0,0.05,0,0.07l0,0.06l-0.01,0.27c0,0.37,0.03,0.75,0.08,1.12c0.01,0.09,0.03,0.19,0.05,0.28l0.02,0.14
		c0.01,0.05,0.02,0.09,0.03,0.14c0.02,0.09,0.04,0.18,0.06,0.27l0.08,0.27c0.21,0.72,0.53,1.4,0.93,2.02
		c0.4,0.62,0.89,1.18,1.44,1.65c0.28,0.23,0.56,0.46,0.87,0.65c0.3,0.19,0.62,0.37,0.94,0.51c0.16,0.08,0.33,0.14,0.49,0.2
		c0.08,0.03,0.17,0.06,0.25,0.09c0.04,0.01,0.08,0.03,0.12,0.04l0.13,0.04c0.33,0.1,0.67,0.17,1.01,0.22
		c0.17,0.02,0.33,0.05,0.52,0.06l0.13,0.01l0.07,0l0.03,0l0.03,0c0.07,0,0.15,0,0.22,0.01l0.05,0l0.03,0l0.01,0c0,0,0.06,0,0.04,0
		l0.12,0c0.08,0,0.16,0,0.25-0.01c0.08-0.01,0.16-0.01,0.25-0.02c0.08-0.01,0.16-0.01,0.24-0.02c0.08-0.01,0.16-0.02,0.24-0.03
		c0.08-0.01,0.16-0.03,0.24-0.04c0.08-0.02,0.16-0.03,0.23-0.05c0.08-0.02,0.15-0.04,0.23-0.05c0.08-0.02,0.15-0.04,0.23-0.06
		c0.08-0.02,0.15-0.04,0.22-0.07c0.07-0.03,0.15-0.05,0.22-0.08c0.07-0.03,0.15-0.05,0.22-0.08c0.57-0.22,1.09-0.5,1.56-0.82
		c0.47-0.32,0.88-0.68,1.23-1.05c0.35-0.37,0.65-0.76,0.9-1.15c0.5-0.77,0.78-1.53,0.96-2.16c0.01-0.04,0.02-0.08,0.03-0.12
		c0.01-0.04,0.02-0.08,0.03-0.12c0.02-0.08,0.03-0.15,0.05-0.22c0.03-0.14,0.05-0.28,0.07-0.4c0.02-0.13,0.03-0.24,0.04-0.35
		c0.01-0.05,0.01-0.11,0.01-0.16c0-0.05,0.01-0.1,0.01-0.15c0-0.05,0.01-0.09,0.01-0.13c0-0.02,0-0.04,0-0.05c0-0.02,0-0.03,0-0.05
		c0-0.06,0-0.11,0-0.15c0-0.08,0-0.12,0-0.12l0-0.02c0,0,0-0.05,0-0.14C65.77,25.58,65.77,25.53,65.77,25.46z M63.81,26.01
		c0,0.01,0,0.03,0,0.05c0,0.02,0,0.03,0,0.05c0,0.03,0,0.06-0.01,0.09c0,0.03,0,0.06-0.01,0.1c0,0.03,0,0.07-0.01,0.11
		c-0.01,0.08-0.02,0.17-0.03,0.26c-0.02,0.09-0.03,0.2-0.05,0.3c-0.01,0.05-0.02,0.11-0.04,0.17c-0.01,0.03-0.01,0.06-0.02,0.09
		c-0.01,0.03-0.02,0.06-0.02,0.09c-0.13,0.47-0.34,1.04-0.71,1.62c-0.37,0.58-0.89,1.16-1.58,1.64c-0.35,0.24-0.73,0.44-1.15,0.61
		c-0.05,0.02-0.11,0.04-0.16,0.06c-0.05,0.02-0.11,0.04-0.16,0.06c-0.06,0.02-0.11,0.03-0.17,0.05c-0.06,0.02-0.11,0.03-0.17,0.04
		c-0.06,0.01-0.11,0.03-0.17,0.04c-0.06,0.01-0.12,0.02-0.17,0.03c-0.06,0.01-0.12,0.02-0.18,0.03c-0.06,0.01-0.12,0.02-0.18,0.02
		c-0.06,0.01-0.12,0.01-0.18,0.02c-0.06,0-0.12,0.01-0.18,0.01c-0.06,0-0.12,0-0.18,0l-0.09,0c0,0-0.01,0-0.01,0l-0.02,0l-0.05,0
		c-0.07,0-0.15,0-0.22-0.01l-0.03,0l-0.02,0l-0.04,0l-0.08-0.01c-0.11-0.01-0.24-0.03-0.36-0.04c-0.25-0.04-0.5-0.09-0.74-0.17
		l-0.09-0.03c-0.03-0.01-0.06-0.02-0.09-0.03c-0.06-0.02-0.12-0.04-0.18-0.06c-0.12-0.05-0.24-0.09-0.36-0.15
		c-0.24-0.11-0.47-0.24-0.7-0.38c-0.23-0.14-0.44-0.31-0.65-0.48c-0.41-0.35-0.78-0.77-1.08-1.23c-0.3-0.46-0.54-0.98-0.7-1.51
		l-0.06-0.2c-0.02-0.07-0.03-0.14-0.05-0.2c-0.01-0.03-0.02-0.07-0.02-0.1l-0.02-0.1c-0.01-0.07-0.03-0.14-0.03-0.21
		c-0.04-0.28-0.06-0.56-0.06-0.84l0.01-0.22l0-0.06c0-0.02,0-0.04,0-0.06l0.01-0.1l0.01-0.1c0-0.03,0-0.06,0.01-0.1l0.03-0.21
		c0.01-0.07,0.02-0.14,0.03-0.21l0.02-0.1c0.01-0.03,0.02-0.07,0.02-0.1c0.02-0.07,0.03-0.14,0.05-0.2l0.06-0.2
		c0.16-0.54,0.39-1.05,0.7-1.51c0.3-0.46,0.67-0.88,1.08-1.23c0.21-0.17,0.42-0.34,0.65-0.48c0.22-0.14,0.46-0.27,0.7-0.38
		c0.12-0.06,0.24-0.1,0.36-0.15c0.06-0.02,0.12-0.04,0.18-0.06c0.03-0.01,0.06-0.02,0.09-0.03l0.09-0.03
		c0.25-0.08,0.5-0.12,0.74-0.17c0.13-0.01,0.25-0.04,0.37-0.04c0.06,0,0.12-0.01,0.19-0.01c0.06,0,0.12,0,0.19,0l0.05,0l0.02,0
		l0.01,0l0.1,0c0.07,0,0.14,0,0.22,0.01c0.06,0,0.11,0.01,0.17,0.01l0.08,0.01c0.03,0,0.06,0.01,0.09,0.01
		c0.06,0.01,0.12,0.02,0.18,0.02c0.06,0.01,0.12,0.02,0.18,0.03c0.06,0.01,0.12,0.02,0.17,0.03c0.06,0.01,0.11,0.03,0.17,0.04
		c0.06,0.01,0.11,0.03,0.17,0.04c0.06,0.02,0.11,0.03,0.17,0.05c0.05,0.02,0.11,0.04,0.16,0.06c0.05,0.02,0.11,0.04,0.16,0.06
		c0.42,0.16,0.81,0.37,1.15,0.61c0.69,0.48,1.22,1.07,1.58,1.64c0.37,0.58,0.59,1.14,0.71,1.62c0.13,0.47,0.17,0.86,0.19,1.13
		c0,0.03,0,0.06,0.01,0.09c0,0.03,0,0.06,0,0.08c0,0.05,0,0.09,0,0.13c0,0.05,0,0.09,0,0.1c0,0.02,0,0.05,0,0.1
		C63.81,25.9,63.81,25.95,63.81,26.01z"/>
	<path class="st3" d="M47.67,18.28c-0.58,0-1.05,0.47-1.05,1.05h0c0,0,0,0.51,0,0.51c0,0,0-0.5,0-0.5h0c0,0.12,0.01,1.52,0.02,3.59
		c0.01,1.08,0.01,2.34,0.02,3.69c0,1.35,0.01,2.79,0.01,4.23c0,0.72,0,1.44,0.01,2.15c0,0.35,0,0.71,0,1.05c0,0.08,0,0.16,0,0.25
		c0,0.08,0,0.15,0,0.23c0,0.15-0.01,0.3-0.03,0.45c-0.03,0.29-0.08,0.57-0.14,0.82c-0.07,0.25-0.16,0.48-0.26,0.69
		c-0.21,0.4-0.49,0.68-0.82,0.86c-0.16,0.09-0.33,0.16-0.51,0.21c-0.09,0.03-0.18,0.05-0.27,0.06c-0.09,0.02-0.18,0.03-0.29,0.05
		c-0.38,0.05-0.72,0.06-1.02,0.07c-0.31,0-1.05,0.01-1.05,0.01c-0.52,0.01-0.87,0.43-0.86,0.95c0.01,0.52,0.38,0.93,0.94,0.93
		c0,0,0.68-0.01,0.99-0.01c0.33,0,0.75-0.01,1.24-0.08c0.11-0.01,0.24-0.03,0.38-0.06c0.14-0.03,0.28-0.06,0.43-0.1
		c0.3-0.08,0.61-0.2,0.92-0.37c0.31-0.17,0.62-0.4,0.89-0.67c0.27-0.27,0.5-0.59,0.69-0.94c0.19-0.34,0.33-0.71,0.44-1.08
		c0.11-0.37,0.18-0.75,0.22-1.13c0.02-0.19,0.04-0.38,0.05-0.57c0-0.1,0.01-0.19,0.01-0.29c0-0.05,0-0.1,0-0.14
		c0-0.04,0-0.09,0-0.13c0-0.35,0-0.7,0-1.05c0-0.71,0-1.43,0.01-2.15c0-1.44,0.01-2.88,0.01-4.23c0.01-1.35,0.01-2.61,0.02-3.69
		c0.01-2.16,0.02-3.6,0.02-3.6h0C48.72,18.75,48.25,18.28,47.67,18.28z"/>
	<path class="st3" d="M116.25,25.6c0-0.04,0-0.1,0-0.17c0-0.03,0-0.07,0-0.11c0-0.04-0.01-0.08-0.01-0.12
		c-0.01-0.09-0.01-0.18-0.02-0.29c-0.01-0.11-0.03-0.22-0.04-0.35c-0.02-0.12-0.04-0.26-0.07-0.4c-0.02-0.07-0.03-0.14-0.05-0.22
		c-0.02-0.07-0.03-0.15-0.06-0.23c-0.02-0.08-0.04-0.16-0.07-0.24c-0.02-0.08-0.05-0.17-0.08-0.25c-0.01-0.04-0.03-0.09-0.04-0.13
		c-0.01-0.04-0.03-0.09-0.05-0.13c-0.03-0.09-0.07-0.18-0.1-0.27c-0.15-0.36-0.34-0.74-0.58-1.13c-0.24-0.38-0.53-0.77-0.87-1.15
		c-0.34-0.38-0.74-0.73-1.2-1.05c-0.46-0.32-0.97-0.6-1.53-0.82c-0.56-0.22-1.17-0.37-1.81-0.44c-0.04,0-0.08-0.01-0.12-0.01
		c-0.04,0-0.08-0.01-0.13-0.01c-0.08-0.01-0.17-0.01-0.26-0.02c-0.07,0-0.14,0-0.21,0l-0.11,0c-0.01,0-0.04,0-0.04,0l-0.02,0
		l-0.03,0l-0.06,0c-0.08,0-0.16,0.01-0.25,0.01c-0.08,0.01-0.16,0.01-0.25,0.02c-0.17,0.01-0.33,0.04-0.49,0.07
		c-0.66,0.12-1.32,0.32-1.93,0.63c-0.16,0.07-0.31,0.16-0.46,0.24c-0.15,0.09-0.3,0.18-0.44,0.28c-0.15,0.1-0.28,0.21-0.42,0.31
		c-0.07,0.06-0.13,0.11-0.2,0.17c-0.03,0.03-0.07,0.06-0.1,0.09l-0.1,0.09c-0.06,0.06-0.13,0.12-0.19,0.18
		c-0.06,0.06-0.12,0.13-0.19,0.19c-0.06,0.06-0.12,0.13-0.18,0.2l-0.09,0.1l-0.08,0.1c-0.02,0.02-0.03,0.04-0.05,0.06c0,0,0,0,0,0
		c0,0.01-0.01,0.01-0.01,0.02c0,0,0,0,0,0c-0.02,0.02-0.05,0.03-0.08,0.03c-0.06,0-0.11-0.04-0.11-0.1V19.3
		c0-0.58-0.47-1.05-1.05-1.05c-0.58,0-1.05,0.47-1.05,1.05v19.2c0,0.58,0.47,1.05,1.05,1.05c0.58,0,1.05-0.47,1.05-1.05v-7.8
		c0.01-0.06,0.06-0.1,0.11-0.1c0.03,0,0.07,0.01,0.09,0.04c0,0,0.01,0.01,0.01,0.01c0.02,0.02,0.03,0.04,0.05,0.06l0.08,0.1
		l0.09,0.1c0.06,0.07,0.12,0.13,0.18,0.2c0.06,0.06,0.12,0.13,0.19,0.19c0.06,0.06,0.13,0.12,0.19,0.18l0.1,0.09
		c0.03,0.03,0.07,0.06,0.1,0.09c0.07,0.06,0.13,0.11,0.2,0.17c0.14,0.11,0.28,0.22,0.42,0.31c0.14,0.1,0.29,0.19,0.44,0.28
		c0.15,0.08,0.3,0.17,0.46,0.24c0.62,0.31,1.27,0.52,1.93,0.63c0.08,0.01,0.17,0.02,0.25,0.04c0.04,0.01,0.08,0.01,0.13,0.02
		l0.13,0.01l0.13,0.01l0.07,0.01c0.02,0,0.04,0,0.06,0c0.07,0,0.14,0.01,0.22,0.01l0.05,0l0.03,0l0.01,0c0,0,0.03,0,0.04,0
		c0,0,0,0,0,0l0.12,0c0.08,0,0.16,0,0.24,0c0.08,0,0.16-0.01,0.24-0.01l0.12-0.01c0.04,0,0.08-0.01,0.12-0.01
		c0.64-0.07,1.25-0.22,1.81-0.44c0.56-0.22,1.08-0.5,1.53-0.82c0.46-0.32,0.86-0.68,1.2-1.05c0.34-0.37,0.63-0.76,0.87-1.15
		c0.24-0.38,0.43-0.76,0.58-1.13c0.04-0.09,0.07-0.18,0.1-0.27c0.02-0.04,0.03-0.09,0.05-0.13c0.01-0.04,0.03-0.09,0.04-0.13
		c0.03-0.09,0.06-0.17,0.08-0.25c0.02-0.08,0.04-0.16,0.07-0.24c0.02-0.08,0.04-0.16,0.06-0.23c0.02-0.08,0.03-0.15,0.05-0.22
		c0.03-0.14,0.05-0.28,0.07-0.4c0.02-0.12,0.03-0.24,0.04-0.35c0.01-0.11,0.02-0.21,0.02-0.31c0-0.05,0.01-0.09,0.01-0.13
		c0-0.04,0-0.07,0-0.1c0-0.06,0-0.11,0-0.15c0-0.08,0-0.12,0-0.12l0-0.02C116.25,25.73,116.25,25.69,116.25,25.6z M114.29,25.83
		c0,0.04,0,0.09,0,0.15c0,0.03,0,0.06,0,0.09c0,0.03,0,0.06-0.01,0.09c-0.01,0.06-0.01,0.13-0.02,0.2
		c-0.01,0.08-0.02,0.17-0.03,0.26c-0.02,0.09-0.03,0.2-0.05,0.3c-0.01,0.05-0.02,0.11-0.04,0.17c-0.01,0.06-0.02,0.12-0.04,0.17
		c-0.02,0.06-0.03,0.12-0.05,0.18c-0.02,0.06-0.04,0.13-0.06,0.19c-0.01,0.03-0.02,0.07-0.03,0.1c-0.01,0.03-0.02,0.07-0.04,0.1
		c-0.03,0.07-0.05,0.13-0.08,0.2c-0.11,0.27-0.25,0.56-0.42,0.86c-0.35,0.59-0.85,1.19-1.52,1.69c-0.33,0.25-0.71,0.47-1.13,0.65
		c-0.41,0.18-0.86,0.31-1.34,0.38c-0.03,0-0.06,0.01-0.09,0.01l-0.09,0.01c-0.06,0.01-0.12,0.01-0.18,0.02
		c-0.06,0-0.12,0.01-0.18,0.01l-0.09,0c0,0,0.01,0,0.01,0h-0.04l-0.05,0c-0.07,0-0.14,0-0.22,0c-0.02,0-0.03,0-0.05,0l-0.04,0
		l-0.09-0.01l-0.09,0c-0.03,0-0.06-0.01-0.09-0.01c-0.06-0.01-0.13-0.01-0.19-0.02c-0.06-0.01-0.13-0.02-0.19-0.03l-0.09-0.02
		c-0.03-0.01-0.06-0.01-0.09-0.02c-0.06-0.01-0.13-0.03-0.19-0.04c-0.06-0.02-0.12-0.03-0.19-0.05c-0.03-0.01-0.06-0.02-0.09-0.03
		l-0.09-0.03c-0.06-0.02-0.12-0.04-0.19-0.06c-0.06-0.02-0.12-0.05-0.18-0.07l-0.05-0.02l-0.04-0.02l-0.09-0.04
		c-0.12-0.05-0.24-0.12-0.36-0.18c-0.12-0.07-0.23-0.13-0.35-0.21c-0.12-0.07-0.22-0.15-0.34-0.23c-0.05-0.04-0.11-0.09-0.16-0.13
		c-0.03-0.02-0.05-0.04-0.08-0.06l-0.08-0.07l-0.08-0.07c-0.03-0.02-0.05-0.05-0.08-0.07c-0.05-0.05-0.1-0.1-0.15-0.15
		c-0.05-0.05-0.1-0.1-0.14-0.15l-0.07-0.08l-0.07-0.08c-0.04-0.05-0.09-0.11-0.13-0.16l-0.13-0.17c-0.04-0.06-0.08-0.12-0.12-0.17
		l-0.06-0.09l-0.06-0.09c-0.31-0.48-0.54-1.01-0.7-1.57c-0.08-0.28-0.14-0.56-0.18-0.85l-0.03-0.22c-0.01-0.07-0.01-0.14-0.02-0.22
		l-0.01-0.11c0-0.04,0-0.07,0-0.11l-0.01-0.22l0.01-0.23l0-0.06c0-0.02,0-0.04,0-0.06l0.01-0.1l0.01-0.1c0-0.03,0-0.07,0.01-0.1
		l0.03-0.22c0.04-0.29,0.1-0.57,0.18-0.85c0.16-0.56,0.4-1.09,0.7-1.57l0.06-0.09l0.06-0.09c0.04-0.06,0.08-0.12,0.12-0.17
		l0.13-0.17c0.04-0.06,0.09-0.11,0.13-0.16l0.07-0.08l0.07-0.08c0.05-0.05,0.09-0.1,0.14-0.15c0.05-0.05,0.1-0.1,0.15-0.15
		c0.02-0.02,0.05-0.05,0.08-0.07l0.08-0.07l0.08-0.07c0.03-0.02,0.05-0.04,0.08-0.07c0.05-0.04,0.11-0.09,0.16-0.13
		c0.11-0.08,0.22-0.16,0.34-0.23c0.11-0.08,0.23-0.14,0.35-0.21c0.12-0.06,0.24-0.13,0.36-0.18l0.09-0.04l0.04-0.02l0.05-0.02
		c0.06-0.02,0.12-0.05,0.18-0.07c0.06-0.02,0.12-0.04,0.19-0.06l0.09-0.03c0.03-0.01,0.06-0.02,0.09-0.03
		c0.06-0.02,0.13-0.03,0.19-0.05c0.06-0.01,0.13-0.03,0.19-0.04c0.03-0.01,0.06-0.01,0.09-0.02l0.09-0.02
		c0.06-0.01,0.13-0.02,0.19-0.03c0.13-0.01,0.25-0.03,0.38-0.04c0.06,0,0.13-0.01,0.19-0.01c0.06,0,0.12,0,0.19,0l0.07,0l0.11,0
		c0.07,0,0.14,0.01,0.21,0.01c0.06,0.01,0.11,0.01,0.17,0.02l0.08,0.01c0.03,0,0.06,0.01,0.09,0.01c0.47,0.07,0.93,0.19,1.34,0.38
		c0.41,0.18,0.79,0.39,1.13,0.65c0.67,0.5,1.17,1.1,1.52,1.69c0.17,0.29,0.31,0.58,0.42,0.86c0.03,0.07,0.05,0.14,0.08,0.2
		c0.01,0.03,0.03,0.07,0.04,0.1c0.01,0.03,0.02,0.07,0.03,0.1c0.02,0.07,0.04,0.13,0.06,0.19c0.02,0.06,0.03,0.12,0.05,0.18
		c0.12,0.48,0.16,0.86,0.18,1.13c0,0.03,0,0.06,0.01,0.09c0,0.03,0,0.06,0,0.08c0,0.05,0,0.09,0,0.13c0,0.05,0,0.09,0,0.1
		C114.29,25.75,114.29,25.78,114.29,25.83z"/>
	<path class="st3" d="M97.41,18.29c-0.67-0.14-1.26,0.38-1.26,0.98v7.63c-0.15,2.69-2.31,4.72-5.04,4.72c-2.83,0-4.59-1.8-4.59-4.85
		c0-1.4,0.07-2.2-0.1-3.29c-0.54-3.43-3.12-5.53-6.56-5.33c-1.87,0.11-3.45,0.9-4.77,2.25l0,0c0,0-0.01,0.01-0.01,0.01c0,0,0,0,0,0
		c-0.02,0.02-0.05,0.03-0.07,0.03c-0.06,0-0.11-0.05-0.11-0.11v-0.96c0-0.57-0.42-1.07-0.99-1.1c-0.6-0.03-1.1,0.45-1.1,1.04v12.89
		c0,0.5,0.34,0.95,0.83,1.05c0.67,0.14,1.26-0.37,1.26-1.02v-7.79c0-0.72,0.18-1.45,0.57-2.06c0.08-0.12,0.17-0.25,0.27-0.37
		c0.16-0.19,0.28-0.32,0.42-0.48c1.48-1.56,3.72-2.07,5.67-1.3c1.75,0.69,2.67,2.24,2.7,4.54c0.01,0.82,0.02,1.42,0.02,2.45
		c0,2.63,1.25,4.78,3.86,5.74c2.66,0.97,5.09,0.44,7.19-1.51c0.09-0.08,0.25-0.24,0.38-0.36c0,0,0.01-0.01,0.01-0.01c0,0,0,0,0,0
		c0.02-0.02,0.05-0.03,0.07-0.03c0.06,0,0.11,0.05,0.11,0.11v1.03c0,0.64,0.5,1.12,1.1,1.08c0.56-0.03,0.99-0.53,0.99-1.1
		c0-2.27,0-10.65,0-12.83C98.24,18.84,97.9,18.39,97.41,18.29z"/>
</g>
</svg>
